<?xml version="1.0" encoding="UTF-8" standalone="no"?>
<!-- Generator: Adobe Illustrator 16.0.0, SVG Export Plug-In . SVG Version: 6.00 Build 0)  -->

<svg
   xmlns:dc="http://purl.org/dc/elements/1.1/"
   xmlns:cc="http://creativecommons.org/ns#"
   xmlns:rdf="http://www.w3.org/1999/02/22-rdf-syntax-ns#"
   xmlns:svg="http://www.w3.org/2000/svg"
   xmlns="http://www.w3.org/2000/svg"
   xmlns:sodipodi="http://sodipodi.sourceforge.net/DTD/sodipodi-0.dtd"
   xmlns:inkscape="http://www.inkscape.org/namespaces/inkscape"
   version="1.1"
   id="Capa_1"
   x="0px"
   y="0px"
   width="21.332817"
   height="23.993334"
   viewBox="0 0 21.332817 23.993334"
   xml:space="preserve"
   sodipodi:docname="cube.svg"
   inkscape:version="0.92.3 (2405546, 2018-03-11)"><metadata
   id="metadata43"><rdf:RDF><cc:Work
       rdf:about=""><dc:format>image/svg+xml</dc:format><dc:type
         rdf:resource="http://purl.org/dc/dcmitype/StillImage" /><dc:title></dc:title></cc:Work></rdf:RDF></metadata><defs
   id="defs41" /><sodipodi:namedview
   pagecolor="#ffffff"
   bordercolor="#666666"
   borderopacity="1"
   objecttolerance="10"
   gridtolerance="10"
   guidetolerance="10"
   inkscape:pageopacity="0"
   inkscape:pageshadow="2"
   inkscape:window-width="1680"
   inkscape:window-height="997"
   id="namedview39"
   showgrid="false"
   inkscape:zoom="1.4077326"
   inkscape:cx="-33.498338"
   inkscape:cy="137.62621"
   inkscape:window-x="-8"
   inkscape:window-y="-8"
   inkscape:window-maximized="1"
   inkscape:current-layer="Capa_1"
   fit-margin-top="0"
   fit-margin-left="0"
   fit-margin-right="0"
   fit-margin-bottom="0" />
<g
   id="g6"
   transform="matrix(0.02530019,0,0,0.02530019,-1.3302587,0)"
   style="stroke-width:39.52539825">
	<g
   id="g4"
   style="stroke-width:39.52539825">
		<path
   d="m 457.701,939.221 c 0,0 10e-4,0 10e-4,0.002 l 16.472,9.123 16.472,-9.123 c 0,0 0,0 0,-0.002 L 737.597,802.45 895.767,714.848 v -20.037 -480.02 -21.83 l -19.85,-9.085 -47.105,-21.56 L 474.173,0 119.534,162.316 l -47.105,21.56 -19.85,9.085 v 21.83 480.02 20.037 L 210.75,802.45 Z M 586.337,328.471 474.173,390.592 362.01,328.471 161.968,217.678 474.173,74.784 786.378,217.678 Z m -78.164,523.31 V 449.494 L 827.767,272.489 v 402.287 z m -68,-402.287 V 851.782 L 120.58,674.775 V 272.488 Z"
   id="path2"
   inkscape:connector-curvature="0"
   style="stroke-width:39.52539825" />
	</g>
</g>
<g
   id="g8"
   transform="matrix(0.02530019,0,0,0.02530019,-1.3302587,0)"
   style="stroke-width:39.52539825">
</g>
<g
   id="g10"
   transform="matrix(0.02530019,0,0,0.02530019,-1.3302587,0)"
   style="stroke-width:39.52539825">
</g>
<g
   id="g12"
   transform="matrix(0.02530019,0,0,0.02530019,-1.3302587,0)"
   style="stroke-width:39.52539825">
</g>
<g
   id="g14"
   transform="matrix(0.02530019,0,0,0.02530019,-1.3302587,0)"
   style="stroke-width:39.52539825">
</g>
<g
   id="g16"
   transform="matrix(0.02530019,0,0,0.02530019,-1.3302587,0)"
   style="stroke-width:39.52539825">
</g>
<g
   id="g18"
   transform="matrix(0.02530019,0,0,0.02530019,-1.3302587,0)"
   style="stroke-width:39.52539825">
</g>
<g
   id="g20"
   transform="matrix(0.02530019,0,0,0.02530019,-1.3302587,0)"
   style="stroke-width:39.52539825">
</g>
<g
   id="g22"
   transform="matrix(0.02530019,0,0,0.02530019,-1.3302587,0)"
   style="stroke-width:39.52539825">
</g>
<g
   id="g24"
   transform="matrix(0.02530019,0,0,0.02530019,-1.3302587,0)"
   style="stroke-width:39.52539825">
</g>
<g
   id="g26"
   transform="matrix(0.02530019,0,0,0.02530019,-1.3302587,0)"
   style="stroke-width:39.52539825">
</g>
<g
   id="g28"
   transform="matrix(0.02530019,0,0,0.02530019,-1.3302587,0)"
   style="stroke-width:39.52539825">
</g>
<g
   id="g30"
   transform="matrix(0.02530019,0,0,0.02530019,-1.3302587,0)"
   style="stroke-width:39.52539825">
</g>
<g
   id="g32"
   transform="matrix(0.02530019,0,0,0.02530019,-1.3302587,0)"
   style="stroke-width:39.52539825">
</g>
<g
   id="g34"
   transform="matrix(0.02530019,0,0,0.02530019,-1.3302587,0)"
   style="stroke-width:39.52539825">
</g>
<g
   id="g36"
   transform="matrix(0.02530019,0,0,0.02530019,-1.3302587,0)"
   style="stroke-width:39.52539825">
</g>
</svg>