<?xml version="1.0" encoding="UTF-8" standalone="no"?>
<!DOCTYPE svg PUBLIC "-//W3C//DTD SVG 1.0//EN" "http://www.w3.org/TR/2001/REC-SVG-20010904/DTD/svg10.dtd">
<!-- Generated by Microsoft Visio 11.0, SVG Export, v1.0 delete.svg Page-1 -->
<svg xmlns="http://www.w3.org/2000/svg" xmlns:xlink="http://www.w3.org/1999/xlink" xmlns:ev="http://www.w3.org/2001/xml-events"
		xmlns:v="http://schemas.microsoft.com/visio/2003/SVGExtensions/" width="2.69417in" height="1.60042in"
		viewBox="0 0 193.98 115.23" xml:space="preserve" color-interpolation-filters="sRGB" class="st9">
	<title>figure12</title>
	<v:documentProperties v:langID="2060" v:viewMarkup="false"/>

	<style type="text/css">
	<![CDATA[
		.st1 {fill:#eeeaf2;stroke:#000000;stroke-linecap:round;stroke-linejoin:round;stroke-width:0.24}
		.st2 {stroke:#000000;stroke-linecap:round;stroke-linejoin:round;stroke-width:0.24}
		.st3 {marker-end:url(#mrkr5-120);stroke:#000000;stroke-linecap:round;stroke-linejoin:round;stroke-width:0.24}
		.st4 {fill:#000000;fill-opacity:1;stroke:#000000;stroke-opacity:1;stroke-width:0.11764705882353}
		.st5 {fill:none;stroke:none;stroke-linecap:round;stroke-linejoin:round;stroke-width:0.24}
		.st6 {fill:#000000;font-family:Arial;font-size:0.666664em}
		.st7 {fill:#ffffff;stroke:#000000;stroke-linecap:round;stroke-linejoin:round;stroke-width:0.24}
		.st8 {stroke:#000000;stroke-dasharray:1.68,1.2;stroke-linecap:round;stroke-linejoin:round;stroke-width:0.24}
		.st9 {fill:none;fill-rule:evenodd;font-size:12px;overflow:visible;stroke-linecap:square;stroke-miterlimit:3}
	]]>
	</style>

	<defs id="Markers">
		<g id="lend5">
			<path d="M 2 1 L 0 0 L 1.98117 -0.993387 C 1.67173 -0.364515 1.67301 0.372641 1.98465 1.00043 " style="stroke:none"/>
		</g>
		<marker id="mrkr5-120" class="st4" v:arrowType="5" v:arrowSize="1" v:setback="14.875" refX="-14.875" orient="auto"
				markerUnits="strokeWidth" overflow="visible">
			<use xlink:href="#lend5" transform="scale(-8.5,-8.5) "/>
		</marker>
	</defs>
	<g v:mID="0" v:index="1" v:groupContext="foregroundPage">
		<title>Page-1</title>
		<v:pageProperties v:drawingScale="1" v:pageScale="1" v:drawingUnits="19" v:shadowOffsetX="7.2" v:shadowOffsetY="-7.2"/>
		<g id="group429-1" transform="translate(18.24,-67.74)" v:mID="429" v:groupContext="group">
			<title>Sheet.429</title>
			<g id="shape415-2" v:mID="415" v:groupContext="shape">
				<title>Sheet.415</title>
				<rect x="0" y="97.23" width="144" height="18" class="st1"/>
			</g>
			<g id="shape2-4" v:mID="2" v:groupContext="shape" transform="translate(178.23,97.23) rotate(90)">
				<title>Sheet.2</title>
				<path d="M0 115.23 L18 115.23" class="st2"/>
			</g>
			<g id="shape3-7" v:mID="3" v:groupContext="shape" transform="translate(186.897,97.23) rotate(90)">
				<title>Sheet.3</title>
				<path d="M0 115.23 L18 115.23" class="st2"/>
			</g>
			<g id="shape4-10" v:mID="4" v:groupContext="shape" transform="translate(196.23,97.23) rotate(90)">
				<title>Sheet.4</title>
				<path d="M0 115.23 L18 115.23" class="st2"/>
			</g>
			<g id="shape6-13" v:mID="6" v:groupContext="shape" transform="translate(222.897,97.23) rotate(90)">
				<title>Sheet.6</title>
				<path d="M0 115.23 L18 115.23" class="st2"/>
			</g>
			<g id="shape7-16" v:mID="7" v:groupContext="shape" transform="translate(241.23,97.23) rotate(90)">
				<title>Sheet.7</title>
				<path d="M0 115.23 L18 115.23" class="st2"/>
			</g>
			<g id="shape8-19" v:mID="8" v:groupContext="shape" transform="translate(232.23,97.23) rotate(90)">
				<title>Sheet.8</title>
				<path d="M0 115.23 L18 115.23" class="st2"/>
			</g>
			<g id="shape10-22" v:mID="10" v:groupContext="shape" transform="translate(250.23,97.23) rotate(90)">
				<title>Sheet.10</title>
				<path d="M0 115.23 L18 115.23" class="st2"/>
			</g>
			<g id="shape11-25" v:mID="11" v:groupContext="shape" transform="translate(204.563,97.23) rotate(90)">
				<title>Sheet.11</title>
				<path d="M0 115.23 L18 115.23" class="st2"/>
			</g>
			<g id="shape12-28" v:mID="12" v:groupContext="shape" transform="translate(160.23,97.23) rotate(90)">
				<title>Sheet.12</title>
				<path d="M0 115.23 L18 115.23" class="st2"/>
			</g>
			<g id="shape13-31" v:mID="13" v:groupContext="shape" transform="translate(151.23,97.23) rotate(90)">
				<title>Sheet.13</title>
				<path d="M0 115.23 L18 115.23" class="st2"/>
			</g>
			<g id="shape14-34" v:mID="14" v:groupContext="shape" transform="translate(142.23,97.23) rotate(90)">
				<title>Sheet.14</title>
				<path d="M0 115.23 L18 115.23" class="st2"/>
			</g>
			<g id="shape15-37" v:mID="15" v:groupContext="shape" transform="translate(133.23,97.23) rotate(90)">
				<title>Sheet.15</title>
				<path d="M0 115.23 L18 115.23" class="st2"/>
			</g>
			<g id="shape16-40" v:mID="16" v:groupContext="shape" transform="translate(124.23,97.23) rotate(90)">
				<title>Sheet.16</title>
				<path d="M0 115.23 L18 115.23" class="st2"/>
			</g>
			<g id="shape409-43" v:mID="409" v:groupContext="shape" transform="translate(214.23,97.23) rotate(90)">
				<title>Sheet.409</title>
				<path d="M0 115.23 L18 115.23" class="st2"/>
			</g>
		</g>
		<g id="shape418-46" v:mID="418" v:groupContext="shape" transform="translate(18.24,-4.74)">
			<title>Sheet.418</title>
			<rect x="0" y="97.23" width="144" height="18" class="st1"/>
		</g>
		<g id="shape417-48" v:mID="417" v:groupContext="shape" transform="translate(112.74,-31.74)">
			<title>Sheet.417</title>
			<rect x="0" y="97.23" width="49.5" height="18" class="st1"/>
		</g>
		<g id="shape416-50" v:mID="416" v:groupContext="shape" transform="translate(18.24,-31.74)">
			<title>Sheet.416</title>
			<rect x="0" y="97.23" width="63" height="18" class="st1"/>
		</g>
		<g id="shape17-52" v:mID="17" v:groupContext="shape" transform="translate(191.97,18.24) rotate(90)">
			<title>Sheet.17</title>
			<path d="M0 115.23 L4.5 115.23" class="st2"/>
		</g>
		<g id="shape18-55" v:mID="18" v:groupContext="shape" transform="translate(76.74,-94.74)">
			<title>Sheet.18</title>
			<path d="M0 115.23 L36 115.23" class="st2"/>
		</g>
		<g id="shape19-58" v:mID="19" v:groupContext="shape" transform="translate(227.97,18.24) rotate(90)">
			<title>Sheet.19</title>
			<path d="M0 115.23 L4.5 115.23" class="st2"/>
		</g>
		<g id="shape22-61" v:mID="22" v:groupContext="shape" transform="translate(241.137,65.49) rotate(90)">
			<title>Sheet.22</title>
			<path d="M0 115.23 L18 115.23" class="st2"/>
		</g>
		<g id="shape23-64" v:mID="23" v:groupContext="shape" transform="translate(259.47,65.49) rotate(90)">
			<title>Sheet.23</title>
			<path d="M0 115.23 L18 115.23" class="st2"/>
		</g>
		<g id="shape24-67" v:mID="24" v:groupContext="shape" transform="translate(250.47,65.49) rotate(90)">
			<title>Sheet.24</title>
			<path d="M0 115.23 L18 115.23" class="st2"/>
		</g>
		<g id="shape26-70" v:mID="26" v:groupContext="shape" transform="translate(268.47,65.49) rotate(90)">
			<title>Sheet.26</title>
			<path d="M0 115.23 L18 115.23" class="st2"/>
		</g>
		<g id="shape27-73" v:mID="27" v:groupContext="shape" transform="translate(178.47,65.49) rotate(90)">
			<title>Sheet.27</title>
			<path d="M0 115.23 L18 115.23" class="st2"/>
		</g>
		<g id="shape28-76" v:mID="28" v:groupContext="shape" transform="translate(169.47,65.49) rotate(90)">
			<title>Sheet.28</title>
			<path d="M0 115.23 L18 115.23" class="st2"/>
		</g>
		<g id="shape29-79" v:mID="29" v:groupContext="shape" transform="translate(160.47,65.49) rotate(90)">
			<title>Sheet.29</title>
			<path d="M0 115.23 L18 115.23" class="st2"/>
		</g>
		<g id="shape30-82" v:mID="30" v:groupContext="shape" transform="translate(151.47,65.49) rotate(90)">
			<title>Sheet.30</title>
			<path d="M0 115.23 L18 115.23" class="st2"/>
		</g>
		<g id="shape31-85" v:mID="31" v:groupContext="shape" transform="translate(142.47,65.49) rotate(90)">
			<title>Sheet.31</title>
			<path d="M0 115.23 L18 115.23" class="st2"/>
		</g>
		<g id="shape34-88" v:mID="34" v:groupContext="shape" transform="translate(241.137,92.49) rotate(90)">
			<title>Sheet.34</title>
			<path d="M0 115.23 L18 115.23" class="st2"/>
		</g>
		<g id="shape35-91" v:mID="35" v:groupContext="shape" transform="translate(259.47,92.49) rotate(90)">
			<title>Sheet.35</title>
			<path d="M0 115.23 L18 115.23" class="st2"/>
		</g>
		<g id="shape36-94" v:mID="36" v:groupContext="shape" transform="translate(250.47,92.49) rotate(90)">
			<title>Sheet.36</title>
			<path d="M0 115.23 L18 115.23" class="st2"/>
		</g>
		<g id="shape38-97" v:mID="38" v:groupContext="shape" transform="translate(268.47,92.49) rotate(90)">
			<title>Sheet.38</title>
			<path d="M0 115.23 L18 115.23" class="st2"/>
		</g>
		<g id="shape39-100" v:mID="39" v:groupContext="shape" transform="translate(178.47,92.49) rotate(90)">
			<title>Sheet.39</title>
			<path d="M0 115.23 L18 115.23" class="st2"/>
		</g>
		<g id="shape40-103" v:mID="40" v:groupContext="shape" transform="translate(169.47,92.49) rotate(90)">
			<title>Sheet.40</title>
			<path d="M0 115.23 L18 115.23" class="st2"/>
		</g>
		<g id="shape41-106" v:mID="41" v:groupContext="shape" transform="translate(160.47,92.49) rotate(90)">
			<title>Sheet.41</title>
			<path d="M0 115.23 L18 115.23" class="st2"/>
		</g>
		<g id="shape42-109" v:mID="42" v:groupContext="shape" transform="translate(151.47,92.49) rotate(90)">
			<title>Sheet.42</title>
			<path d="M0 115.23 L18 115.23" class="st2"/>
		</g>
		<g id="shape43-112" v:mID="43" v:groupContext="shape" transform="translate(142.47,92.49) rotate(90)">
			<title>Sheet.43</title>
			<path d="M0 115.23 L18 115.23" class="st2"/>
		</g>
		<g id="shape44-115" v:mID="44" v:groupContext="shape" transform="translate(18.24,-103.74)">
			<title>Sheet.44</title>
			<path d="M0 115.23 L32.43 115.23" class="st3"/>
		</g>
		<g id="shape45-121" v:mID="45" v:groupContext="shape" transform="translate(0.24,-31.74)">
			<title>Sheet.45</title>
			<desc>(1)</desc>
			<v:textBlock v:margins="rect(0,0,0,0)" v:tabSpace="42.5197"/>
			<v:textRect cx="9" cy="106.23" width="18" height="18"/>
			<rect x="0" y="97.23" width="18" height="18" class="st5"/>
			<text x="4.11" y="108.63" class="st6" v:langID="1036"><v:paragraph v:horizAlign="1"/><v:tabList/>(1)</text>		</g>
		<g id="shape49-124" v:mID="49" v:groupContext="shape" transform="translate(76.74,-95.865)">
			<title>Sheet.49</title>
			<desc>delete</desc>
			<v:textBlock v:margins="rect(0,0,0,0)" v:tabSpace="42.5197"/>
			<v:textRect cx="18" cy="109.605" width="36" height="11.25"/>
			<rect x="0" y="103.98" width="36" height="11.25" class="st5"/>
			<text x="7.1" y="112" class="st6" v:langID="1036"><v:paragraph v:horizAlign="1"/><v:tabList/>delete</text>		</g>
		<g id="shape410-127" v:mID="410" v:groupContext="shape" transform="translate(187.47,65.49) rotate(90)">
			<title>Sheet.410</title>
			<path d="M0 115.23 L18 115.23" class="st2"/>
		</g>
		<g id="shape411-130" v:mID="411" v:groupContext="shape" transform="translate(232.47,65.49) rotate(90)">
			<title>Sheet.411</title>
			<path d="M0 115.23 L18 115.23" class="st2"/>
		</g>
		<g id="shape412-133" v:mID="412" v:groupContext="shape" transform="translate(187.303,92.49) rotate(90)">
			<title>Sheet.412</title>
			<path d="M0 115.23 L18 115.23" class="st2"/>
		</g>
		<g id="shape413-136" v:mID="413" v:groupContext="shape" transform="translate(232.47,92.49) rotate(90)">
			<title>Sheet.413</title>
			<path d="M0 115.23 L18 115.23" class="st2"/>
		</g>
		<g id="group420-139" transform="translate(80.24,-53.115)" v:mID="420" v:groupContext="group">
			<title>Sheet.420</title>
			<g id="shape197-140" v:mID="197" v:groupContext="shape" transform="translate(1.59872E-014,-1.125)">
				<title>Sheet.197</title>
				<path d="M2.25 106.23 L2.25 110.73 L0 110.73 L3.94 115.23 L7.88 110.73 L5.63 110.73 L5.62 106.23 L2.25 106.23 Z"
						class="st7"/>
			</g>
			<g id="shape419-142" v:mID="419" v:groupContext="shape" transform="translate(5.5,0)">
				<title>Sheet.419</title>
				<desc>result</desc>
				<v:textBlock v:margins="rect(0,0,0,0)" v:tabSpace="42.5197"/>
				<v:textRect cx="13.5" cy="109.605" width="27" height="11.25"/>
				<rect x="0" y="103.98" width="27" height="11.25" class="st5"/>
				<text x="3.72" y="112" class="st6" v:langID="2060"><v:paragraph v:horizAlign="1"/><v:tabList/>result</text>			</g>
		</g>
		<g id="shape46-145" v:mID="46" v:groupContext="shape" transform="translate(191.97,27.24) rotate(90)">
			<title>Sheet.46</title>
			<path d="M0 115.23 L87.75 115.23" class="st8"/>
		</g>
		<g id="shape47-148" v:mID="47" v:groupContext="shape" transform="translate(227.97,27.24) rotate(90)">
			<title>Sheet.47</title>
			<path d="M0 115.23 L87.75 115.23" class="st8"/>
		</g>
		<g id="shape431-151" v:mID="431" v:groupContext="shape" transform="translate(187.637,29.49) rotate(90)">
			<title>Sheet.431</title>
			<path d="M0 115.23 L18 115.23" class="st2"/>
		</g>
		<g id="shape432-154" v:mID="432" v:groupContext="shape" transform="translate(0.24,-4.74)">
			<title>Sheet.432</title>
			<desc>(2)</desc>
			<v:textBlock v:margins="rect(0,0,0,0)" v:tabSpace="42.5197"/>
			<v:textRect cx="9" cy="106.23" width="18" height="18"/>
			<rect x="0" y="97.23" width="18" height="18" class="st5"/>
			<text x="4.11" y="108.63" class="st6" v:langID="1036"><v:paragraph v:horizAlign="1"/><v:tabList/>(2)</text>		</g>
		<g id="shape455-157" v:mID="455" v:groupContext="shape" transform="translate(290.97,29.49) rotate(90)">
			<title>Sheet.455</title>
			<path d="M0 115.23 L18 115.23" class="st2"/>
		</g>
		<g id="shape456-160" v:mID="456" v:groupContext="shape" transform="translate(175.74,-67.74)">
			<title>Sheet.456</title>
			<rect x="0" y="97.23" width="18" height="18" class="st1"/>
		</g>
		<g id="shape457-162" v:mID="457" v:groupContext="shape" transform="translate(300.137,29.49) rotate(90)">
			<title>Sheet.457</title>
			<path d="M0 115.23 L18 115.23" class="st2"/>
		</g>
		<g id="shape458-165" v:mID="458" v:groupContext="shape" transform="translate(290.97,65.49) rotate(90)">
			<title>Sheet.458</title>
			<path d="M0 115.23 L18 115.23" class="st2"/>
		</g>
		<g id="shape459-168" v:mID="459" v:groupContext="shape" transform="translate(175.74,-31.74)">
			<title>Sheet.459</title>
			<rect x="0" y="97.23" width="18" height="18" class="st1"/>
		</g>
		<g id="shape460-170" v:mID="460" v:groupContext="shape" transform="translate(300.137,65.49) rotate(90)">
			<title>Sheet.460</title>
			<path d="M0 115.23 L18 115.23" class="st2"/>
		</g>
		<g id="shape461-173" v:mID="461" v:groupContext="shape" transform="translate(290.97,92.49) rotate(90)">
			<title>Sheet.461</title>
			<path d="M0 115.23 L18 115.23" class="st2"/>
		</g>
		<g id="shape462-176" v:mID="462" v:groupContext="shape" transform="translate(175.74,-4.74)">
			<title>Sheet.462</title>
			<rect x="0" y="97.23" width="18" height="18" class="st1"/>
		</g>
		<g id="shape463-178" v:mID="463" v:groupContext="shape" transform="translate(300.137,92.49) rotate(90)">
			<title>Sheet.463</title>
			<path d="M0 115.23 L18 115.23" class="st2"/>
		</g>
		<g id="shape464-181" v:mID="464" v:groupContext="shape" transform="translate(18.24,-103.74)">
			<title>Sheet.464</title>
			<desc>time</desc>
			<v:textBlock v:margins="rect(0,0,0,0)" v:tabSpace="42.5197"/>
			<v:textRect cx="18" cy="109.605" width="36" height="11.25"/>
			<rect x="0" y="103.98" width="36" height="11.25" class="st5"/>
			<text x="10.44" y="112" class="st6" v:langID="1036"><v:paragraph v:horizAlign="1"/><v:tabList/>time</text>		</g>
	</g>
</svg>
