<?xml version="1.0" encoding="UTF-8" standalone="no"?>
<!DOCTYPE svg PUBLIC "-//W3C//DTD SVG 1.0//EN" "http://www.w3.org/TR/2001/REC-SVG-20010904/DTD/svg10.dtd">
<!-- Generated by Microsoft Visio 11.0, SVG Export, v1.0 insert.svg Page-1 -->
<svg xmlns="http://www.w3.org/2000/svg" xmlns:xlink="http://www.w3.org/1999/xlink" xmlns:ev="http://www.w3.org/2001/xml-events"
		xmlns:v="http://schemas.microsoft.com/visio/2003/SVGExtensions/" width="2.63167in" height="1.94417in"
		viewBox="0 0 189.48 139.98" xml:space="preserve" color-interpolation-filters="sRGB" class="st9">
	<title>figure12</title>
	<v:documentProperties v:langID="2060" v:viewMarkup="false"/>

	<style type="text/css">
	<![CDATA[
		.st1 {fill:#f2dcda;stroke:#000000;stroke-linecap:round;stroke-linejoin:round;stroke-width:0.24}
		.st2 {fill:#eeeaf2;stroke:#000000;stroke-linecap:round;stroke-linejoin:round;stroke-width:0.24}
		.st3 {marker-end:url(#mrkr5-10);stroke:#000000;stroke-linecap:round;stroke-linejoin:round;stroke-width:0.24}
		.st4 {fill:#000000;fill-opacity:1;stroke:#000000;stroke-opacity:1;stroke-width:0.11764705882353}
		.st5 {fill:none;stroke:none;stroke-linecap:round;stroke-linejoin:round;stroke-width:0.24}
		.st6 {fill:#000000;font-family:Arial;font-size:0.666664em}
		.st7 {stroke:#000000;stroke-linecap:round;stroke-linejoin:round;stroke-width:0.24}
		.st8 {fill:#ffffff;stroke:#000000;stroke-linecap:round;stroke-linejoin:round;stroke-width:0.24}
		.st9 {fill:none;fill-rule:evenodd;font-size:12px;overflow:visible;stroke-linecap:square;stroke-miterlimit:3}
	]]>
	</style>

	<defs id="Markers">
		<g id="lend5">
			<path d="M 2 1 L 0 0 L 1.98117 -0.993387 C 1.67173 -0.364515 1.67301 0.372641 1.98465 1.00043 " style="stroke:none"/>
		</g>
		<marker id="mrkr5-10" class="st4" v:arrowType="5" v:arrowSize="1" v:setback="14.875" refX="-14.875" orient="auto"
				markerUnits="strokeWidth" overflow="visible">
			<use xlink:href="#lend5" transform="scale(-8.5,-8.5) "/>
		</marker>
	</defs>
	<g v:mID="0" v:index="1" v:groupContext="foregroundPage">
		<title>Page-1</title>
		<v:pageProperties v:drawingScale="1" v:pageScale="1" v:drawingUnits="19" v:shadowOffsetX="7.2" v:shadowOffsetY="-7.2"/>
		<g id="shape352-1" v:mID="352" v:groupContext="shape" transform="translate(108.24,-72.24)">
			<title>Sheet.352</title>
			<rect x="0" y="121.98" width="27" height="18" class="st1"/>
		</g>
		<g id="shape353-3" v:mID="353" v:groupContext="shape" transform="translate(18.24,-99.24)">
			<title>Sheet.353</title>
			<rect x="0" y="121.98" width="36" height="18" class="st2"/>
		</g>
		<g id="shape354-5" v:mID="354" v:groupContext="shape" transform="translate(18.24,-126.24)">
			<title>Sheet.354</title>
			<path d="M0 139.98 L32.43 139.98" class="st3"/>
		</g>
		<g id="shape355-11" v:mID="355" v:groupContext="shape" transform="translate(18.24,-126.24)">
			<title>Sheet.355</title>
			<desc>time</desc>
			<v:textBlock v:margins="rect(0,0,0,0)" v:tabSpace="42.5197"/>
			<v:textRect cx="18" cy="133.23" width="36" height="13.5"/>
			<rect x="0" y="126.48" width="36" height="13.5" class="st5"/>
			<text x="10.44" y="135.63" class="st6" v:langID="1036"><v:paragraph v:horizAlign="1"/><v:tabList/>time</text>		</g>
		<g id="shape356-14" v:mID="356" v:groupContext="shape" transform="translate(90.24,-126.24)">
			<title>Sheet.356</title>
			<desc>insert</desc>
			<v:textBlock v:margins="rect(0,0,0,0)" v:tabSpace="42.5197"/>
			<v:textRect cx="18" cy="133.23" width="36" height="13.5"/>
			<rect x="0" y="126.48" width="36" height="13.5" class="st5"/>
			<text x="8.22" y="135.63" class="st6" v:langID="1036"><v:paragraph v:horizAlign="1"/><v:tabList/>insert</text>		</g>
		<g id="shape359-17" v:mID="359" v:groupContext="shape" transform="translate(284.22,22.74) rotate(90)">
			<title>Sheet.359</title>
			<path d="M0 139.98 L18 139.98" class="st7"/>
		</g>
		<g id="shape361-20" v:mID="361" v:groupContext="shape" transform="translate(194.22,22.74) rotate(90)">
			<title>Sheet.361</title>
			<path d="M0 139.98 L18 139.98" class="st7"/>
		</g>
		<g id="shape362-23" v:mID="362" v:groupContext="shape" transform="translate(185.22,22.74) rotate(90)">
			<title>Sheet.362</title>
			<path d="M0 139.98 L18 139.98" class="st7"/>
		</g>
		<g id="shape363-26" v:mID="363" v:groupContext="shape" transform="translate(176.22,22.74) rotate(90)">
			<title>Sheet.363</title>
			<path d="M0 139.98 L18 139.98" class="st7"/>
		</g>
		<g id="shape364-29" v:mID="364" v:groupContext="shape" transform="translate(167.22,22.74) rotate(90)">
			<title>Sheet.364</title>
			<path d="M0 139.98 L18 139.98" class="st7"/>
		</g>
		<g id="shape368-32" v:mID="368" v:groupContext="shape" transform="translate(54.24,-72.24)">
			<title>Sheet.368</title>
			<rect x="0" y="121.98" width="36" height="18" class="st1"/>
		</g>
		<g id="shape369-34" v:mID="369" v:groupContext="shape" transform="translate(203.22,49.74) rotate(90)">
			<title>Sheet.369</title>
			<path d="M0 139.98 L18 139.98" class="st7"/>
		</g>
		<g id="shape370-37" v:mID="370" v:groupContext="shape" transform="translate(211.887,49.74) rotate(90)">
			<title>Sheet.370</title>
			<path d="M0 139.98 L18 139.98" class="st7"/>
		</g>
		<g id="shape371-40" v:mID="371" v:groupContext="shape" transform="translate(221.22,49.74) rotate(90)">
			<title>Sheet.371</title>
			<path d="M0 139.98 L18 139.98" class="st7"/>
		</g>
		<g id="shape372-43" v:mID="372" v:groupContext="shape" transform="translate(257.22,49.74) rotate(90)">
			<title>Sheet.372</title>
			<path d="M0 139.98 L18 139.98" class="st7"/>
		</g>
		<g id="shape373-46" v:mID="373" v:groupContext="shape" transform="translate(265.887,49.74) rotate(90)">
			<title>Sheet.373</title>
			<path d="M0 139.98 L18 139.98" class="st7"/>
		</g>
		<g id="shape386-49" v:mID="386" v:groupContext="shape" transform="translate(135.24,-0.24)">
			<title>Sheet.386</title>
			<rect x="0" y="121.98" width="27" height="18" class="st2"/>
		</g>
		<g id="shape387-51" v:mID="387" v:groupContext="shape" transform="translate(90.24,-0.24)">
			<title>Sheet.387</title>
			<rect x="0" y="121.98" width="18" height="18" class="st2"/>
		</g>
		<g id="shape388-53" v:mID="388" v:groupContext="shape" transform="translate(18.24,-0.24)">
			<title>Sheet.388</title>
			<rect x="0" y="121.98" width="36" height="18" class="st2"/>
		</g>
		<g id="shape389-55" v:mID="389" v:groupContext="shape" transform="translate(293.22,121.74) rotate(90)">
			<title>Sheet.389</title>
			<path d="M0 139.98 L18 139.98" class="st7"/>
		</g>
		<g id="shape390-58" v:mID="390" v:groupContext="shape" transform="translate(185.22,121.74) rotate(90)">
			<title>Sheet.390</title>
			<path d="M0 139.98 L18 139.98" class="st7"/>
		</g>
		<g id="shape391-61" v:mID="391" v:groupContext="shape" transform="translate(176.22,121.74) rotate(90)">
			<title>Sheet.391</title>
			<path d="M0 139.98 L18 139.98" class="st7"/>
		</g>
		<g id="shape392-64" v:mID="392" v:groupContext="shape" transform="translate(167.22,121.74) rotate(90)">
			<title>Sheet.392</title>
			<path d="M0 139.98 L18 139.98" class="st7"/>
		</g>
		<g id="shape393-67" v:mID="393" v:groupContext="shape" transform="translate(54.24,-0.24)">
			<title>Sheet.393</title>
			<rect x="0" y="121.98" width="36" height="18" class="st1"/>
		</g>
		<g id="shape394-69" v:mID="394" v:groupContext="shape" transform="translate(203.22,121.74) rotate(90)">
			<title>Sheet.394</title>
			<path d="M0 139.98 L18 139.98" class="st7"/>
		</g>
		<g id="shape395-72" v:mID="395" v:groupContext="shape" transform="translate(211.887,121.74) rotate(90)">
			<title>Sheet.395</title>
			<path d="M0 139.98 L18 139.98" class="st7"/>
		</g>
		<g id="shape396-75" v:mID="396" v:groupContext="shape" transform="translate(221.22,121.74) rotate(90)">
			<title>Sheet.396</title>
			<path d="M0 139.98 L18 139.98" class="st7"/>
		</g>
		<g id="shape397-78" v:mID="397" v:groupContext="shape" transform="translate(108.24,-0.24)">
			<title>Sheet.397</title>
			<rect x="0" y="121.98" width="27" height="18" class="st1"/>
		</g>
		<g id="shape398-80" v:mID="398" v:groupContext="shape" transform="translate(257.22,121.74) rotate(90)">
			<title>Sheet.398</title>
			<path d="M0 139.98 L18 139.98" class="st7"/>
		</g>
		<g id="shape399-83" v:mID="399" v:groupContext="shape" transform="translate(265.887,121.74) rotate(90)">
			<title>Sheet.399</title>
			<path d="M0 139.98 L18 139.98" class="st7"/>
		</g>
		<g id="shape400-86" v:mID="400" v:groupContext="shape" transform="translate(144.24,-99.24)">
			<title>Sheet.400</title>
			<rect x="0" y="121.98" width="18" height="18" class="st2"/>
		</g>
		<g id="shape401-88" v:mID="401" v:groupContext="shape" transform="translate(293.387,22.74) rotate(90)">
			<title>Sheet.401</title>
			<path d="M0 139.98 L18 139.98" class="st7"/>
		</g>
		<g id="shape402-91" v:mID="402" v:groupContext="shape" transform="translate(284.387,121.74) rotate(90)">
			<title>Sheet.402</title>
			<path d="M0 139.98 L18 139.98" class="st7"/>
		</g>
		<g id="shape404-94" v:mID="404" v:groupContext="shape" transform="translate(239.22,121.74) rotate(90)">
			<title>Sheet.404</title>
			<path d="M0 139.98 L18 139.98" class="st7"/>
		</g>
		<g id="shape405-97" v:mID="405" v:groupContext="shape" transform="translate(90.24,-99.24)">
			<title>Sheet.405</title>
			<rect x="0" y="121.98" width="9" height="18" class="st2"/>
		</g>
		<g id="shape425-99" v:mID="425" v:groupContext="shape" transform="translate(85.74,-53.115)">
			<title>Sheet.425</title>
			<path d="M2.25 130.98 L2.25 135.48 L0 135.48 L3.94 139.98 L7.88 135.48 L5.63 135.48 L5.62 130.98 L2.25 130.98 Z"
					class="st8"/>
		</g>
		<g id="shape426-101" v:mID="426" v:groupContext="shape" transform="translate(91.24,-51.99)">
			<title>Sheet.426</title>
			<desc>result</desc>
			<v:textBlock v:margins="rect(0,0,0,0)" v:tabSpace="42.5197"/>
			<v:textRect cx="17.5" cy="134.355" width="35.01" height="11.25"/>
			<rect x="0" y="128.73" width="35" height="11.25" class="st5"/>
			<text x="7.72" y="136.75" class="st6" v:langID="2060"><v:paragraph v:horizAlign="1"/><v:tabList/>result</text>		</g>
		<g id="group427-104" transform="translate(18.24,-27.24)" v:mID="427" v:groupContext="group">
			<title>Sheet.427</title>
			<g id="shape351-105" v:mID="351" v:groupContext="shape" transform="translate(126,0)">
				<title>Sheet.351</title>
				<rect x="0" y="121.98" width="18" height="18" class="st2"/>
			</g>
			<g id="shape374-107" v:mID="374" v:groupContext="shape">
				<title>Sheet.374</title>
				<rect x="0" y="121.98" width="36" height="18" class="st2"/>
			</g>
			<g id="shape375-109" v:mID="375" v:groupContext="shape" transform="translate(274.98,121.98) rotate(90)">
				<title>Sheet.375</title>
				<path d="M0 139.98 L18 139.98" class="st7"/>
			</g>
			<g id="shape376-112" v:mID="376" v:groupContext="shape" transform="translate(166.98,121.98) rotate(90)">
				<title>Sheet.376</title>
				<path d="M0 139.98 L18 139.98" class="st7"/>
			</g>
			<g id="shape377-115" v:mID="377" v:groupContext="shape" transform="translate(157.98,121.98) rotate(90)">
				<title>Sheet.377</title>
				<path d="M0 139.98 L18 139.98" class="st7"/>
			</g>
			<g id="shape378-118" v:mID="378" v:groupContext="shape" transform="translate(148.98,121.98) rotate(90)">
				<title>Sheet.378</title>
				<path d="M0 139.98 L18 139.98" class="st7"/>
			</g>
			<g id="shape379-121" v:mID="379" v:groupContext="shape" transform="translate(36,0)">
				<title>Sheet.379</title>
				<rect x="0" y="121.98" width="36" height="18" class="st1"/>
			</g>
			<g id="shape380-123" v:mID="380" v:groupContext="shape" transform="translate(184.98,121.98) rotate(90)">
				<title>Sheet.380</title>
				<path d="M0 139.98 L18 139.98" class="st7"/>
			</g>
			<g id="shape381-126" v:mID="381" v:groupContext="shape" transform="translate(193.647,121.98) rotate(90)">
				<title>Sheet.381</title>
				<path d="M0 139.98 L18 139.98" class="st7"/>
			</g>
			<g id="shape382-129" v:mID="382" v:groupContext="shape" transform="translate(202.98,121.98) rotate(90)">
				<title>Sheet.382</title>
				<path d="M0 139.98 L18 139.98" class="st7"/>
			</g>
			<g id="shape383-132" v:mID="383" v:groupContext="shape" transform="translate(90,0)">
				<title>Sheet.383</title>
				<rect x="0" y="121.98" width="27" height="18" class="st1"/>
			</g>
			<g id="shape384-134" v:mID="384" v:groupContext="shape" transform="translate(238.98,121.98) rotate(90)">
				<title>Sheet.384</title>
				<path d="M0 139.98 L18 139.98" class="st7"/>
			</g>
			<g id="shape385-137" v:mID="385" v:groupContext="shape" transform="translate(247.647,121.98) rotate(90)">
				<title>Sheet.385</title>
				<path d="M0 139.98 L18 139.98" class="st7"/>
			</g>
			<g id="shape403-140" v:mID="403" v:groupContext="shape" transform="translate(72,0)">
				<title>Sheet.403</title>
				<rect x="0" y="121.98" width="9" height="18" class="st2"/>
			</g>
		</g>
		<g id="shape435-142" v:mID="435" v:groupContext="shape" transform="translate(0.24,-27.24)">
			<title>Sheet.435</title>
			<desc>(1)</desc>
			<v:textBlock v:margins="rect(0,0,0,0)" v:tabSpace="42.5197"/>
			<v:textRect cx="9" cy="130.98" width="18" height="18"/>
			<rect x="0" y="121.98" width="18" height="18" class="st5"/>
			<text x="4.11" y="133.38" class="st6" v:langID="1036"><v:paragraph v:horizAlign="1"/><v:tabList/>(1)</text>		</g>
		<g id="shape436-145" v:mID="436" v:groupContext="shape" transform="translate(0.24,-0.24)">
			<title>Sheet.436</title>
			<desc>(2)</desc>
			<v:textBlock v:margins="rect(0,0,0,0)" v:tabSpace="42.5197"/>
			<v:textRect cx="9" cy="130.98" width="18" height="18"/>
			<rect x="0" y="121.98" width="18" height="18" class="st5"/>
			<text x="4.11" y="133.38" class="st6" v:langID="1036"><v:paragraph v:horizAlign="1"/><v:tabList/>(2)</text>		</g>
		<g id="shape437-148" v:mID="437" v:groupContext="shape" transform="translate(311.22,22.74) rotate(90)">
			<title>Sheet.437</title>
			<path d="M0 139.98 L18 139.98" class="st7"/>
		</g>
		<g id="shape438-151" v:mID="438" v:groupContext="shape" transform="translate(171.24,-99.24)">
			<title>Sheet.438</title>
			<rect x="0" y="121.98" width="18" height="18" class="st2"/>
		</g>
		<g id="shape439-153" v:mID="439" v:groupContext="shape" transform="translate(320.387,22.74) rotate(90)">
			<title>Sheet.439</title>
			<path d="M0 139.98 L18 139.98" class="st7"/>
		</g>
		<g id="shape440-156" v:mID="440" v:groupContext="shape" transform="translate(311.22,94.74) rotate(90)">
			<title>Sheet.440</title>
			<path d="M0 139.98 L18 139.98" class="st7"/>
		</g>
		<g id="shape441-159" v:mID="441" v:groupContext="shape" transform="translate(171.24,-27.24)">
			<title>Sheet.441</title>
			<rect x="0" y="121.98" width="18" height="18" class="st2"/>
		</g>
		<g id="shape442-161" v:mID="442" v:groupContext="shape" transform="translate(320.387,94.74) rotate(90)">
			<title>Sheet.442</title>
			<path d="M0 139.98 L18 139.98" class="st7"/>
		</g>
		<g id="shape443-164" v:mID="443" v:groupContext="shape" transform="translate(311.22,121.74) rotate(90)">
			<title>Sheet.443</title>
			<path d="M0 139.98 L18 139.98" class="st7"/>
		</g>
		<g id="shape444-167" v:mID="444" v:groupContext="shape" transform="translate(171.24,-0.24)">
			<title>Sheet.444</title>
			<rect x="0" y="121.98" width="18" height="18" class="st2"/>
		</g>
		<g id="shape445-169" v:mID="445" v:groupContext="shape" transform="translate(320.387,121.74) rotate(90)">
			<title>Sheet.445</title>
			<path d="M0 139.98 L18 139.98" class="st7"/>
		</g>
	</g>
</svg>
