<?xml version="1.0" encoding="UTF-8" standalone="no"?>
<!DOCTYPE svg PUBLIC "-//W3C//DTD SVG 1.0//EN" "http://www.w3.org/TR/2001/REC-SVG-20010904/DTD/svg10.dtd">
<!-- Generated by Microsoft Visio 11.0, SVG Export, v1.0 modif_sql.svg Page-1 -->
<svg xmlns="http://www.w3.org/2000/svg" xmlns:xlink="http://www.w3.org/1999/xlink" xmlns:ev="http://www.w3.org/2001/xml-events"
		xmlns:v="http://schemas.microsoft.com/visio/2003/SVGExtensions/" width="5.60042in" height="2.31917in"
		viewBox="0 0 403.23 166.98" xml:space="preserve" color-interpolation-filters="sRGB" class="st11">
	<title>figure12</title>
	<v:documentProperties v:langID="2060" v:viewMarkup="false"/>

	<style type="text/css">
	<![CDATA[
		.st1 {fill:#eeeaf2;stroke:#000000;stroke-linecap:round;stroke-linejoin:round;stroke-width:0.24}
		.st2 {stroke:#000000;stroke-linecap:round;stroke-linejoin:round;stroke-width:0.24}
		.st3 {fill:#f2dcda;stroke:#000000;stroke-linecap:round;stroke-linejoin:round;stroke-width:0.24}
		.st4 {fill:#ffffff;stroke:#000000;stroke-linecap:round;stroke-linejoin:round;stroke-width:0.24}
		.st5 {marker-end:url(#mrkr5-91);stroke:#000000;stroke-linecap:round;stroke-linejoin:round;stroke-width:0.24}
		.st6 {fill:#000000;fill-opacity:1;stroke:#000000;stroke-opacity:1;stroke-width:0.11764705882353}
		.st7 {fill:none;stroke:none;stroke-linecap:round;stroke-linejoin:round;stroke-width:0.24}
		.st8 {fill:#000000;font-family:Arial;font-size:0.666664em}
		.st9 {stroke:#000000;stroke-linecap:round;stroke-linejoin:round;stroke-width:0.5}
		.st10 {stroke:#000000;stroke-dasharray:1.68,1.2;stroke-linecap:round;stroke-linejoin:round;stroke-width:0.24}
		.st11 {fill:none;fill-rule:evenodd;font-size:12px;overflow:visible;stroke-linecap:square;stroke-miterlimit:3}
	]]>
	</style>

	<defs id="Markers">
		<g id="lend5">
			<path d="M 2 1 L 0 0 L 1.98117 -0.993387 C 1.67173 -0.364515 1.67301 0.372641 1.98465 1.00043 " style="stroke:none"/>
		</g>
		<marker id="mrkr5-91" class="st6" v:arrowType="5" v:arrowSize="1" v:setback="14.875" refX="-14.875" orient="auto"
				markerUnits="strokeWidth" overflow="visible">
			<use xlink:href="#lend5" transform="scale(-8.5,-8.5) "/>
		</marker>
	</defs>
	<g v:mID="0" v:index="1" v:groupContext="foregroundPage">
		<title>Page-1</title>
		<v:pageProperties v:drawingScale="1" v:pageScale="1" v:drawingUnits="19" v:shadowOffsetX="7.2" v:shadowOffsetY="-7.2"/>
		<g id="shape1-1" v:mID="1" v:groupContext="shape" transform="translate(194.22,13.74) rotate(90)">
			<title>Sheet.1</title>
			<rect x="0" y="148.98" width="36" height="18" class="st1"/>
		</g>
		<g id="shape2-3" v:mID="2" v:groupContext="shape" transform="translate(45.24,306.72) rotate(180)">
			<title>Sheet.2</title>
			<path d="M0 166.98 L18 166.98" class="st2"/>
		</g>
		<g id="shape3-6" v:mID="3" v:groupContext="shape" transform="translate(45.24,207.72) rotate(180)">
			<title>Sheet.3</title>
			<path d="M0 166.98 L18 166.98" class="st2"/>
		</g>
		<g id="shape4-9" v:mID="4" v:groupContext="shape" transform="translate(45.24,198.72) rotate(180)">
			<title>Sheet.4</title>
			<path d="M0 166.98 L18 166.98" class="st2"/>
		</g>
		<g id="shape5-12" v:mID="5" v:groupContext="shape" transform="translate(45.24,189.72) rotate(180)">
			<title>Sheet.5</title>
			<path d="M0 166.98 L18 166.98" class="st2"/>
		</g>
		<g id="shape6-15" v:mID="6" v:groupContext="shape" transform="translate(194.22,139.74) rotate(90)">
			<title>Sheet.6</title>
			<rect x="0" y="148.98" width="18" height="18" class="st1"/>
		</g>
		<g id="shape7-17" v:mID="7" v:groupContext="shape" transform="translate(45.24,315.887) rotate(180)">
			<title>Sheet.7</title>
			<path d="M0 166.98 L18 166.98" class="st2"/>
		</g>
		<g id="shape8-20" v:mID="8" v:groupContext="shape" transform="translate(194.22,85.74) rotate(90)">
			<title>Sheet.8</title>
			<rect x="0" y="148.98" width="9" height="18" class="st1"/>
		</g>
		<g id="shape9-22" v:mID="9" v:groupContext="shape" transform="translate(221.22,103.74) rotate(90)">
			<title>Sheet.9</title>
			<rect x="0" y="148.98" width="27" height="18" class="st3"/>
		</g>
		<g id="shape10-24" v:mID="10" v:groupContext="shape" transform="translate(221.22,49.74) rotate(90)">
			<title>Sheet.10</title>
			<rect x="0" y="148.98" width="36" height="18" class="st3"/>
		</g>
		<g id="shape11-26" v:mID="11" v:groupContext="shape" transform="translate(72.24,225.72) rotate(180)">
			<title>Sheet.11</title>
			<path d="M0 166.98 L18 166.98" class="st2"/>
		</g>
		<g id="shape12-29" v:mID="12" v:groupContext="shape" transform="translate(72.24,234.387) rotate(180)">
			<title>Sheet.12</title>
			<path d="M0 166.98 L18 166.98" class="st2"/>
		</g>
		<g id="shape13-32" v:mID="13" v:groupContext="shape" transform="translate(72.24,243.72) rotate(180)">
			<title>Sheet.13</title>
			<path d="M0 166.98 L18 166.98" class="st2"/>
		</g>
		<g id="shape14-35" v:mID="14" v:groupContext="shape" transform="translate(72.24,279.72) rotate(180)">
			<title>Sheet.14</title>
			<path d="M0 166.98 L18 166.98" class="st2"/>
		</g>
		<g id="shape15-38" v:mID="15" v:groupContext="shape" transform="translate(72.24,288.387) rotate(180)">
			<title>Sheet.15</title>
			<path d="M0 166.98 L18 166.98" class="st2"/>
		</g>
		<g id="shape16-41" v:mID="16" v:groupContext="shape" transform="translate(266.22,130.74) rotate(90)">
			<title>Sheet.16</title>
			<rect x="0" y="148.98" width="27" height="18" class="st1"/>
		</g>
		<g id="shape17-43" v:mID="17" v:groupContext="shape" transform="translate(266.22,85.74) rotate(90)">
			<title>Sheet.17</title>
			<rect x="0" y="148.98" width="18" height="18" class="st1"/>
		</g>
		<g id="shape18-45" v:mID="18" v:groupContext="shape" transform="translate(266.22,13.74) rotate(90)">
			<title>Sheet.18</title>
			<rect x="0" y="148.98" width="36" height="18" class="st1"/>
		</g>
		<g id="shape19-47" v:mID="19" v:groupContext="shape" transform="translate(117.24,315.72) rotate(180)">
			<title>Sheet.19</title>
			<path d="M0 166.98 L18 166.98" class="st2"/>
		</g>
		<g id="shape20-50" v:mID="20" v:groupContext="shape" transform="translate(117.24,207.72) rotate(180)">
			<title>Sheet.20</title>
			<path d="M0 166.98 L18 166.98" class="st2"/>
		</g>
		<g id="shape21-53" v:mID="21" v:groupContext="shape" transform="translate(117.24,198.72) rotate(180)">
			<title>Sheet.21</title>
			<path d="M0 166.98 L18 166.98" class="st2"/>
		</g>
		<g id="shape22-56" v:mID="22" v:groupContext="shape" transform="translate(117.24,189.72) rotate(180)">
			<title>Sheet.22</title>
			<path d="M0 166.98 L18 166.98" class="st2"/>
		</g>
		<g id="shape23-59" v:mID="23" v:groupContext="shape" transform="translate(266.22,49.74) rotate(90)">
			<title>Sheet.23</title>
			<rect x="0" y="148.98" width="36" height="18" class="st3"/>
		</g>
		<g id="shape24-61" v:mID="24" v:groupContext="shape" transform="translate(117.24,225.72) rotate(180)">
			<title>Sheet.24</title>
			<path d="M0 166.98 L18 166.98" class="st2"/>
		</g>
		<g id="shape25-64" v:mID="25" v:groupContext="shape" transform="translate(117.24,234.387) rotate(180)">
			<title>Sheet.25</title>
			<path d="M0 166.98 L18 166.98" class="st2"/>
		</g>
		<g id="shape26-67" v:mID="26" v:groupContext="shape" transform="translate(117.24,243.72) rotate(180)">
			<title>Sheet.26</title>
			<path d="M0 166.98 L18 166.98" class="st2"/>
		</g>
		<g id="shape27-70" v:mID="27" v:groupContext="shape" transform="translate(266.22,103.74) rotate(90)">
			<title>Sheet.27</title>
			<rect x="0" y="148.98" width="27" height="18" class="st3"/>
		</g>
		<g id="shape28-72" v:mID="28" v:groupContext="shape" transform="translate(117.24,279.72) rotate(180)">
			<title>Sheet.28</title>
			<path d="M0 166.98 L18 166.98" class="st2"/>
		</g>
		<g id="shape29-75" v:mID="29" v:groupContext="shape" transform="translate(117.24,288.387) rotate(180)">
			<title>Sheet.29</title>
			<path d="M0 166.98 L18 166.98" class="st2"/>
		</g>
		<g id="shape30-78" v:mID="30" v:groupContext="shape" transform="translate(117.24,306.887) rotate(180)">
			<title>Sheet.30</title>
			<path d="M0 166.98 L18 166.98" class="st2"/>
		</g>
		<g id="shape31-81" v:mID="31" v:groupContext="shape" transform="translate(117.24,261.72) rotate(180)">
			<title>Sheet.31</title>
			<path d="M0 166.98 L18 166.98" class="st2"/>
		</g>
		<g id="shape32-84" v:mID="32" v:groupContext="shape" transform="translate(-76.74,85.74) rotate(-90)">
			<title>Sheet.32</title>
			<path d="M2.25 157.98 L2.25 162.48 L0 162.48 L3.94 166.98 L7.88 162.48 L5.63 162.48 L5.62 157.98 L2.25 157.98 Z"
					class="st4"/>
		</g>
		<g id="shape34-86" v:mID="34" v:groupContext="shape" transform="translate(176.22,13.74) rotate(90)">
			<title>Sheet.34</title>
			<path d="M0 166.98 L27.93 166.98" class="st5"/>
		</g>
		<g id="shape35-92" v:mID="35" v:groupContext="shape" transform="translate(53.115,-153.24)">
			<title>Sheet.35</title>
			<desc>insert</desc>
			<v:textBlock v:margins="rect(0,0,0,0)" v:tabSpace="42.5197"/>
			<v:textRect cx="18" cy="160.23" width="36" height="13.5"/>
			<rect x="0" y="153.48" width="36" height="13.5" class="st7"/>
			<text x="8.22" y="162.63" class="st8" v:langID="1036"><v:paragraph v:horizAlign="1"/><v:tabList/>insert</text>		</g>
		<g id="shape36-95" v:mID="36" v:groupContext="shape" transform="translate(365.22,103.74) rotate(90)">
			<title>Sheet.36</title>
			<rect x="0" y="148.98" width="27" height="18" class="st3"/>
		</g>
		<g id="shape37-97" v:mID="37" v:groupContext="shape" transform="translate(365.22,49.74) rotate(90)">
			<title>Sheet.37</title>
			<rect x="0" y="148.98" width="36" height="18" class="st3"/>
		</g>
		<g id="shape38-99" v:mID="38" v:groupContext="shape" transform="translate(216.24,225.72) rotate(180)">
			<title>Sheet.38</title>
			<path d="M0 166.98 L18 166.98" class="st2"/>
		</g>
		<g id="shape39-102" v:mID="39" v:groupContext="shape" transform="translate(216.24,234.387) rotate(180)">
			<title>Sheet.39</title>
			<path d="M0 166.98 L18 166.98" class="st2"/>
		</g>
		<g id="shape40-105" v:mID="40" v:groupContext="shape" transform="translate(216.24,243.72) rotate(180)">
			<title>Sheet.40</title>
			<path d="M0 166.98 L18 166.98" class="st2"/>
		</g>
		<g id="shape41-108" v:mID="41" v:groupContext="shape" transform="translate(216.24,279.72) rotate(180)">
			<title>Sheet.41</title>
			<path d="M0 166.98 L18 166.98" class="st2"/>
		</g>
		<g id="shape42-111" v:mID="42" v:groupContext="shape" transform="translate(216.24,288.387) rotate(180)">
			<title>Sheet.42</title>
			<path d="M0 166.98 L18 166.98" class="st2"/>
		</g>
		<g id="shape43-114" v:mID="43" v:groupContext="shape" transform="translate(410.22,130.74) rotate(90)">
			<title>Sheet.43</title>
			<rect x="0" y="148.98" width="27" height="18" class="st1"/>
		</g>
		<g id="shape44-116" v:mID="44" v:groupContext="shape" transform="translate(410.22,85.74) rotate(90)">
			<title>Sheet.44</title>
			<rect x="0" y="148.98" width="18" height="18" class="st1"/>
		</g>
		<g id="shape45-118" v:mID="45" v:groupContext="shape" transform="translate(410.22,13.74) rotate(90)">
			<title>Sheet.45</title>
			<rect x="0" y="148.98" width="36" height="18" class="st1"/>
		</g>
		<g id="shape46-120" v:mID="46" v:groupContext="shape" transform="translate(261.24,315.72) rotate(180)">
			<title>Sheet.46</title>
			<path d="M0 166.98 L18 166.98" class="st2"/>
		</g>
		<g id="shape47-123" v:mID="47" v:groupContext="shape" transform="translate(261.24,207.72) rotate(180)">
			<title>Sheet.47</title>
			<path d="M0 166.98 L18 166.98" class="st2"/>
		</g>
		<g id="shape48-126" v:mID="48" v:groupContext="shape" transform="translate(261.24,198.72) rotate(180)">
			<title>Sheet.48</title>
			<path d="M0 166.98 L18 166.98" class="st2"/>
		</g>
		<g id="shape49-129" v:mID="49" v:groupContext="shape" transform="translate(261.24,189.72) rotate(180)">
			<title>Sheet.49</title>
			<path d="M0 166.98 L18 166.98" class="st2"/>
		</g>
		<g id="shape50-132" v:mID="50" v:groupContext="shape" transform="translate(410.22,49.74) rotate(90)">
			<title>Sheet.50</title>
			<rect x="0" y="148.98" width="36" height="18" class="st3"/>
		</g>
		<g id="shape51-134" v:mID="51" v:groupContext="shape" transform="translate(261.24,225.72) rotate(180)">
			<title>Sheet.51</title>
			<path d="M0 166.98 L18 166.98" class="st2"/>
		</g>
		<g id="shape52-137" v:mID="52" v:groupContext="shape" transform="translate(261.24,234.387) rotate(180)">
			<title>Sheet.52</title>
			<path d="M0 166.98 L18 166.98" class="st2"/>
		</g>
		<g id="shape53-140" v:mID="53" v:groupContext="shape" transform="translate(261.24,243.72) rotate(180)">
			<title>Sheet.53</title>
			<path d="M0 166.98 L18 166.98" class="st2"/>
		</g>
		<g id="shape54-143" v:mID="54" v:groupContext="shape" transform="translate(410.22,103.74) rotate(90)">
			<title>Sheet.54</title>
			<rect x="0" y="148.98" width="27" height="18" class="st3"/>
		</g>
		<g id="shape55-145" v:mID="55" v:groupContext="shape" transform="translate(261.24,279.72) rotate(180)">
			<title>Sheet.55</title>
			<path d="M0 166.98 L18 166.98" class="st2"/>
		</g>
		<g id="shape56-148" v:mID="56" v:groupContext="shape" transform="translate(261.24,288.387) rotate(180)">
			<title>Sheet.56</title>
			<path d="M0 166.98 L18 166.98" class="st2"/>
		</g>
		<g id="shape57-151" v:mID="57" v:groupContext="shape" transform="translate(261.24,306.887) rotate(180)">
			<title>Sheet.57</title>
			<path d="M0 166.98 L18 166.98" class="st2"/>
		</g>
		<g id="shape58-154" v:mID="58" v:groupContext="shape" transform="translate(261.24,261.72) rotate(180)">
			<title>Sheet.58</title>
			<path d="M0 166.98 L18 166.98" class="st2"/>
		</g>
		<g id="shape59-157" v:mID="59" v:groupContext="shape" transform="translate(67.26,85.74) rotate(-90)">
			<title>Sheet.59</title>
			<path d="M2.25 157.98 L2.25 162.48 L0 162.48 L3.94 166.98 L7.88 162.48 L5.63 162.48 L5.62 157.98 L2.25 157.98 Z"
					class="st4"/>
		</g>
		<g id="shape62-159" v:mID="62" v:groupContext="shape" transform="translate(193.74,-153.24)">
			<title>Sheet.62</title>
			<desc>update</desc>
			<v:textBlock v:margins="rect(0,0,0,0)" v:tabSpace="42.5197"/>
			<v:textRect cx="18" cy="160.23" width="36" height="13.5"/>
			<rect x="0" y="153.48" width="36" height="13.5" class="st7"/>
			<text x="5.77" y="162.63" class="st8" v:langID="1036"><v:paragraph v:horizAlign="1"/><v:tabList/>update</text>		</g>
		<g id="shape63-162" v:mID="63" v:groupContext="shape" transform="translate(193.26,85.74) rotate(-90)">
			<title>Sheet.63</title>
			<path d="M2.25 157.98 L2.25 162.48 L0 162.48 L3.94 166.98 L7.88 162.48 L5.63 162.48 L5.62 157.98 L2.25 157.98 Z"
					class="st4"/>
		</g>
		<g id="shape66-164" v:mID="66" v:groupContext="shape" transform="translate(337.74,-153.24)">
			<title>Sheet.66</title>
			<desc>delete</desc>
			<v:textBlock v:margins="rect(0,0,0,0)" v:tabSpace="42.5197"/>
			<v:textRect cx="18" cy="160.23" width="36" height="13.5"/>
			<rect x="0" y="153.48" width="36" height="13.5" class="st7"/>
			<text x="7.1" y="162.63" class="st8" v:langID="1036"><v:paragraph v:horizAlign="1"/><v:tabList/>delete</text>		</g>
		<g id="shape68-167" v:mID="68" v:groupContext="shape" transform="translate(338.22,13.74) rotate(90)">
			<title>Sheet.68</title>
			<rect x="0" y="148.98" width="81" height="18" class="st1"/>
		</g>
		<g id="shape69-169" v:mID="69" v:groupContext="shape" transform="translate(189.24,243.72) rotate(180)">
			<title>Sheet.69</title>
			<path d="M0 166.98 L18 166.98" class="st2"/>
		</g>
		<g id="shape70-172" v:mID="70" v:groupContext="shape" transform="translate(189.24,252.72) rotate(180)">
			<title>Sheet.70</title>
			<path d="M0 166.98 L18 166.98" class="st2"/>
		</g>
		<g id="shape71-175" v:mID="71" v:groupContext="shape" transform="translate(189.24,225.72) rotate(180)">
			<title>Sheet.71</title>
			<path d="M0 166.98 L18 166.98" class="st2"/>
		</g>
		<g id="shape72-178" v:mID="72" v:groupContext="shape" transform="translate(189.24,216.72) rotate(180)">
			<title>Sheet.72</title>
			<path d="M0 166.98 L18 166.98" class="st2"/>
		</g>
		<g id="shape73-181" v:mID="73" v:groupContext="shape" transform="translate(189.24,207.72) rotate(180)">
			<title>Sheet.73</title>
			<path d="M0 166.98 L18 166.98" class="st2"/>
		</g>
		<g id="shape74-184" v:mID="74" v:groupContext="shape" transform="translate(189.24,198.72) rotate(180)">
			<title>Sheet.74</title>
			<path d="M0 166.98 L18 166.98" class="st2"/>
		</g>
		<g id="shape75-187" v:mID="75" v:groupContext="shape" transform="translate(189.24,189.72) rotate(180)">
			<title>Sheet.75</title>
			<path d="M0 166.98 L18 166.98" class="st2"/>
		</g>
		<g id="shape76-190" v:mID="76" v:groupContext="shape" transform="translate(189.24,234.72) rotate(180)">
			<title>Sheet.76</title>
			<path d="M0 166.98 L18 166.98" class="st2"/>
		</g>
		<g id="shape77-193" v:mID="77" v:groupContext="shape" transform="translate(338.22,139.74) rotate(90)">
			<title>Sheet.77</title>
			<rect x="0" y="148.98" width="18" height="18" class="st1"/>
		</g>
		<g id="shape78-195" v:mID="78" v:groupContext="shape" transform="translate(189.24,315.887) rotate(180)">
			<title>Sheet.78</title>
			<path d="M0 166.98 L18 166.98" class="st2"/>
		</g>
		<g id="shape79-198" v:mID="79" v:groupContext="shape" transform="translate(338.22,112.74) rotate(90)">
			<title>Sheet.79</title>
			<rect x="0" y="148.98" width="9" height="18" class="st1"/>
		</g>
		<g id="shape80-200" v:mID="80" v:groupContext="shape" transform="translate(344.49,239.22) rotate(180)">
			<title>Sheet.80</title>
			<path d="M0 166.98 L4.5 166.98" class="st9"/>
		</g>
		<g id="shape81-203" v:mID="81" v:groupContext="shape" transform="translate(509.22,72.24) rotate(90)">
			<title>Sheet.81</title>
			<path d="M0 166.98 L36 166.98" class="st9"/>
		</g>
		<g id="shape82-206" v:mID="82" v:groupContext="shape" transform="translate(344.49,275.22) rotate(180)">
			<title>Sheet.82</title>
			<path d="M0 166.98 L4.5 166.98" class="st9"/>
		</g>
		<g id="shape83-209" v:mID="83" v:groupContext="shape" transform="translate(344.49,302.22) rotate(180)">
			<title>Sheet.83</title>
			<path d="M0 166.98 L4.5 166.98" class="st9"/>
		</g>
		<g id="shape84-212" v:mID="84" v:groupContext="shape" transform="translate(509.22,135.24) rotate(90)">
			<title>Sheet.84</title>
			<path d="M0 166.98 L18 166.98" class="st9"/>
		</g>
		<g id="shape85-215" v:mID="85" v:groupContext="shape" transform="translate(344.49,320.22) rotate(180)">
			<title>Sheet.85</title>
			<path d="M0 166.98 L4.5 166.98" class="st9"/>
		</g>
		<g id="shape86-218" v:mID="86" v:groupContext="shape" transform="translate(545.22,13.74) rotate(90)">
			<title>Sheet.86</title>
			<rect x="0" y="148.98" width="153" height="18" class="st1"/>
		</g>
		<g id="shape87-220" v:mID="87" v:groupContext="shape" transform="translate(396.24,279.72) rotate(180)">
			<title>Sheet.87</title>
			<path d="M0 166.98 L18 166.98" class="st2"/>
		</g>
		<g id="shape88-223" v:mID="88" v:groupContext="shape" transform="translate(396.24,298.053) rotate(180)">
			<title>Sheet.88</title>
			<path d="M0 166.98 L18 166.98" class="st2"/>
		</g>
		<g id="shape89-226" v:mID="89" v:groupContext="shape" transform="translate(396.24,289.053) rotate(180)">
			<title>Sheet.89</title>
			<path d="M0 166.98 L18 166.98" class="st2"/>
		</g>
		<g id="shape90-229" v:mID="90" v:groupContext="shape" transform="translate(396.24,324.72) rotate(180)">
			<title>Sheet.90</title>
			<path d="M0 166.98 L18 166.98" class="st2"/>
		</g>
		<g id="shape91-232" v:mID="91" v:groupContext="shape" transform="translate(396.24,207.887) rotate(180)">
			<title>Sheet.91</title>
			<path d="M0 166.98 L18 166.98" class="st2"/>
		</g>
		<g id="shape92-235" v:mID="92" v:groupContext="shape" transform="translate(396.24,198.887) rotate(180)">
			<title>Sheet.92</title>
			<path d="M0 166.98 L18 166.98" class="st2"/>
		</g>
		<g id="shape93-238" v:mID="93" v:groupContext="shape" transform="translate(396.24,189.887) rotate(180)">
			<title>Sheet.93</title>
			<path d="M0 166.98 L18 166.98" class="st2"/>
		</g>
		<g id="shape96-241" v:mID="96" v:groupContext="shape" transform="translate(396.24,216.72) rotate(180)">
			<title>Sheet.96</title>
			<path d="M0 166.98 L18 166.98" class="st2"/>
		</g>
		<g id="shape97-244" v:mID="97" v:groupContext="shape" transform="translate(396.24,225.72) rotate(180)">
			<title>Sheet.97</title>
			<path d="M0 166.98 L18 166.98" class="st2"/>
		</g>
		<g id="shape98-247" v:mID="98" v:groupContext="shape" transform="translate(396.24,234.72) rotate(180)">
			<title>Sheet.98</title>
			<path d="M0 166.98 L18 166.98" class="st2"/>
		</g>
		<g id="shape99-250" v:mID="99" v:groupContext="shape" transform="translate(402.99,275.22) rotate(180)">
			<title>Sheet.99</title>
			<path d="M0 166.98 L38.25 166.98" class="st10"/>
		</g>
		<g id="shape100-253" v:mID="100" v:groupContext="shape" transform="translate(402.99,239.22) rotate(180)">
			<title>Sheet.100</title>
			<path d="M0 166.98 L38.25 166.98" class="st10"/>
		</g>
		<g id="shape101-256" v:mID="101" v:groupContext="shape" transform="translate(402.99,320.22) rotate(180)">
			<title>Sheet.101</title>
			<path d="M0 166.98 L38.25 166.98" class="st10"/>
		</g>
		<g id="shape102-259" v:mID="102" v:groupContext="shape" transform="translate(402.99,302.22) rotate(180)">
			<title>Sheet.102</title>
			<path d="M0 166.98 L38.25 166.98" class="st10"/>
		</g>
		<g id="shape103-262" v:mID="103" v:groupContext="shape" transform="translate(482.22,13.74) rotate(90)">
			<title>Sheet.103</title>
			<rect x="0" y="148.98" width="126" height="18" class="st1"/>
		</g>
		<g id="shape104-264" v:mID="104" v:groupContext="shape" transform="translate(333.24,225.72) rotate(180)">
			<title>Sheet.104</title>
			<path d="M0 166.98 L18 166.98" class="st2"/>
		</g>
		<g id="shape105-267" v:mID="105" v:groupContext="shape" transform="translate(333.24,234.387) rotate(180)">
			<title>Sheet.105</title>
			<path d="M0 166.98 L18 166.98" class="st2"/>
		</g>
		<g id="shape106-270" v:mID="106" v:groupContext="shape" transform="translate(333.24,243.72) rotate(180)">
			<title>Sheet.106</title>
			<path d="M0 166.98 L18 166.98" class="st2"/>
		</g>
		<g id="shape107-273" v:mID="107" v:groupContext="shape" transform="translate(333.24,270.387) rotate(180)">
			<title>Sheet.107</title>
			<path d="M0 166.98 L18 166.98" class="st2"/>
		</g>
		<g id="shape108-276" v:mID="108" v:groupContext="shape" transform="translate(333.24,288.72) rotate(180)">
			<title>Sheet.108</title>
			<path d="M0 166.98 L18 166.98" class="st2"/>
		</g>
		<g id="shape109-279" v:mID="109" v:groupContext="shape" transform="translate(333.24,279.72) rotate(180)">
			<title>Sheet.109</title>
			<path d="M0 166.98 L18 166.98" class="st2"/>
		</g>
		<g id="shape110-282" v:mID="110" v:groupContext="shape" transform="translate(333.24,297.72) rotate(180)">
			<title>Sheet.110</title>
			<path d="M0 166.98 L18 166.98" class="st2"/>
		</g>
		<g id="shape111-285" v:mID="111" v:groupContext="shape" transform="translate(333.24,252.053) rotate(180)">
			<title>Sheet.111</title>
			<path d="M0 166.98 L18 166.98" class="st2"/>
		</g>
		<g id="shape112-288" v:mID="112" v:groupContext="shape" transform="translate(333.24,207.72) rotate(180)">
			<title>Sheet.112</title>
			<path d="M0 166.98 L18 166.98" class="st2"/>
		</g>
		<g id="shape113-291" v:mID="113" v:groupContext="shape" transform="translate(333.24,198.72) rotate(180)">
			<title>Sheet.113</title>
			<path d="M0 166.98 L18 166.98" class="st2"/>
		</g>
		<g id="shape114-294" v:mID="114" v:groupContext="shape" transform="translate(333.24,189.72) rotate(180)">
			<title>Sheet.114</title>
			<path d="M0 166.98 L18 166.98" class="st2"/>
		</g>
		<g id="shape117-297" v:mID="117" v:groupContext="shape" transform="translate(333.24,261.72) rotate(180)">
			<title>Sheet.117</title>
			<path d="M0 166.98 L18 166.98" class="st2"/>
		</g>
		<g id="shape118-300" v:mID="118" v:groupContext="shape" transform="translate(333.24,216.887) rotate(180)">
			<title>Sheet.118</title>
			<path d="M0 166.98 L18 166.98" class="st2"/>
		</g>
		<g id="shape119-303" v:mID="119" v:groupContext="shape" transform="translate(482.22,148.74) rotate(90)">
			<title>Sheet.119</title>
			<rect x="0" y="148.98" width="18" height="18" class="st1"/>
		</g>
		<g id="shape120-305" v:mID="120" v:groupContext="shape" transform="translate(333.24,324.887) rotate(180)">
			<title>Sheet.120</title>
			<path d="M0 166.98 L18 166.98" class="st2"/>
		</g>
		<g id="shape122-308" v:mID="122" v:groupContext="shape" transform="translate(0.24,-153.24)">
			<title>Sheet.122</title>
			<desc>time</desc>
			<v:textBlock v:margins="rect(0,0,0,0)" v:tabSpace="42.5197"/>
			<v:textRect cx="9" cy="160.23" width="18" height="13.5"/>
			<rect x="0" y="153.48" width="18" height="13.5" class="st7"/>
			<text x="1.44" y="162.63" class="st8" v:langID="1036"><v:paragraph v:horizAlign="1"/><v:tabList/>time</text>		</g>
	</g>
</svg>
