<?xml version="1.0" encoding="UTF-8" standalone="no"?>
<svg
   xmlns:dc="http://purl.org/dc/elements/1.1/"
   xmlns:cc="http://creativecommons.org/ns#"
   xmlns:rdf="http://www.w3.org/1999/02/22-rdf-syntax-ns#"
   xmlns:svg="http://www.w3.org/2000/svg"
   xmlns="http://www.w3.org/2000/svg"
   xmlns:sodipodi="http://sodipodi.sourceforge.net/DTD/sodipodi-0.dtd"
   xmlns:inkscape="http://www.inkscape.org/namespaces/inkscape"
   viewBox="0 0 21.332815 21.332815"
   version="1.1"
   id="svg3829"
   sodipodi:docname="python.svg"
   width="21.332815"
   height="21.332815"
   inkscape:version="0.92.3 (2405546, 2018-03-11)">
  <defs
     id="defs3833" />
  <sodipodi:namedview
     pagecolor="#ffffff"
     bordercolor="#666666"
     borderopacity="1"
     objecttolerance="10"
     gridtolerance="10"
     guidetolerance="10"
     inkscape:pageopacity="0"
     inkscape:pageshadow="2"
     inkscape:window-width="1680"
     inkscape:window-height="997"
     id="namedview3831"
     showgrid="false"
     fit-margin-top="0"
     fit-margin-left="0"
     fit-margin-right="0"
     fit-margin-bottom="0"
     inkscape:zoom="15.96"
     inkscape:cx="10.666408"
     inkscape:cy="10.666408"
     inkscape:window-x="-8"
     inkscape:window-y="-8"
     inkscape:window-maximized="1"
     inkscape:current-layer="svg3829" />
  <path
     d="M 10.666408,0 C 8.784019,0 7.506832,0.44938 6.695258,1.101422 5.884147,1.753464 5.565082,2.592401 5.565082,3.289891 v 2.275191 h 4.637569 v 0.463757 h -6.91276 c -0.847748,0 -1.70848,0.367759 -2.318784,1.145016 C 0.360339,7.951111 0,9.110503 0,10.666408 c 0,1.555904 0.360339,2.715296 0.971107,3.492553 0.610304,0.777256 1.471036,1.145015 2.318784,1.145015 h 2.275191 v 2.738949 c 0,0.69749 0.319065,1.536426 1.130639,2.188468 0.811575,0.652042 2.087834,1.101423 3.970687,1.101423 1.882389,0 3.159575,-0.449381 3.97115,-1.101423 0.811574,-0.652042 1.130175,-1.490978 1.130175,-2.188468 v -2.275192 h -4.637568 v -0.463757 h 6.91276 c 0.847747,0 1.70848,-0.367759 2.318784,-1.145015 0.610768,-0.777257 0.971107,-1.936649 0.971107,-3.492553 0,-1.555905 -0.360339,-2.715297 -0.971107,-3.492553 C 19.751405,6.396598 18.890672,6.028839 18.042925,6.028839 H 15.767733 V 3.289891 c 0,-0.715577 -0.317209,-1.556368 -1.130639,-2.202845 C 13.824592,0.440105 12.547406,0 10.666408,0 Z m 0,0.927513 c 1.737233,0 2.789961,0.405788 3.391454,0.883921 0.600565,0.478597 0.782358,1.034178 0.782358,1.478457 V 8.81138 a 1.3912706,1.3912706 0 0 1 -1.391271,1.391271 H 7.883867 c -0.954876,0 -1.777117,0.588971 -2.1305,1.420487 a 2.227888,2.227888 0 0 0 -0.144692,0.43454 2.3011616,2.3011616 0 0 0 -0.04359,0.463757 v 1.855028 H 3.289894 c -0.588971,0 -1.134349,-0.230024 -1.579556,-0.797198 C 1.264201,13.013018 0.927513,12.07762 0.927513,10.666408 0.927513,9.255196 1.264665,8.320262 1.710335,7.753551 2.155078,7.186376 2.70092,6.956353 3.289891,6.956353 h 7.840274 V 4.637568 H 6.492596 V 3.289891 c 0,-0.415062 0.179474,-0.980382 0.782822,-1.463617 C 7.878301,1.342112 8.93103,0.927513 10.666408,0.927513 Z M 8.347623,2.318784 c -0.51106,0 -0.927513,0.416454 -0.927513,0.927514 0,0.51106 0.416453,0.927514 0.927513,0.927514 0.51106,0 0.927514,-0.416454 0.927514,-0.927514 0,-0.51106 -0.416454,-0.927514 -0.927514,-0.927514 z m 7.42011,4.637569 h 2.275192 c 0.588971,0 1.134349,0.230023 1.580019,0.797198 0.445207,0.566247 0.782358,1.501645 0.782358,2.912857 0,1.411212 -0.337151,2.346146 -0.782822,2.912857 -0.445206,0.567174 -0.990584,0.797198 -1.579555,0.797198 h -7.840274 v 2.318784 h 4.637569 v 1.347678 c 0,0.415062 -0.179474,0.980382 -0.782822,1.46408 -0.602884,0.483235 -1.655612,0.898297 -3.39099,0.898297 -1.735378,0 -2.788107,-0.415062 -3.391454,-0.898761 C 6.67207,19.023307 6.492596,18.457987 6.492596,18.043388 v -5.521953 a 1.3959082,1.3959082 0 0 1 1.391271,-1.39127 h 5.565082 c 1.273476,0 2.318784,-1.045308 2.318784,-2.318785 z m -2.782541,10.202651 c -0.51106,0 -0.927514,0.416454 -0.927514,0.927514 0,0.51106 0.416454,0.927513 0.927514,0.927513 0.51106,0 0.927514,-0.416453 0.927514,-0.927513 0,-0.51106 -0.416454,-0.927514 -0.927514,-0.927514 z"
     id="surface1"
     inkscape:connector-curvature="0"
     style="stroke-width:0.99999994" />
  <metadata
     id="metadata3827">
    <rdf:RDF>
      <rdf:Description
         about="https://iconscout.com/legal#licenses"
         dc:title="python"
         dc:description="python"
         dc:publisher="Iconscout"
         dc:date="2017-12-09"
         dc:format="image/svg+xml"
         dc:language="en">
        <dc:creator>
          <rdf:Bag>
            <rdf:li>Icons8</rdf:li>
          </rdf:Bag>
        </dc:creator>
      </rdf:Description>
      <cc:Work
         rdf:about="">
        <dc:format>image/svg+xml</dc:format>
        <dc:type
           rdf:resource="http://purl.org/dc/dcmitype/StillImage" />
        <dc:title></dc:title>
      </cc:Work>
    </rdf:RDF>
  </metadata>
</svg>
