<?xml version="1.0" encoding="UTF-8"?><svg xmlns="http://www.w3.org/2000/svg" xmlns:xlink="http://www.w3.org/1999/xlink" viewBox="0 0 50 50" version="1.1"><path d="M25 2c-4.059 0-6.813.969-8.563 2.375C14.688 5.781 14 7.59 14 9.094V14h10v1H9.094c-1.828 0-3.684.793-5 2.469C2.777 19.145 2 21.645 2 25c0 3.355.777 5.855 2.094 7.531C5.41 34.207 7.266 35 9.094 35H14v5.906c0 1.504.688 3.313 2.438 4.719C18.188 47.031 20.94 48 25 48c4.059 0 6.813-.969 8.563-2.375C35.313 44.219 36 42.41 36 40.906V36H26v-1h14.906c1.828 0 3.684-.793 5-2.469C47.223 30.855 48 28.355 48 25c0-3.355-.777-5.855-2.094-7.531-1.316-1.676-3.172-2.469-5-2.469H36V9.094c0-1.543-.684-3.356-2.438-4.75C31.81 2.949 29.056 2 25 2zm0 2c3.746 0 6.016.875 7.313 1.906C33.608 6.938 34 8.136 34 9.094V21a3 3 0 0 1-3 3H19c-2.059 0-3.832 1.27-4.594 3.063a4.804 4.804 0 0 0-.312.937A4.962 4.962 0 0 0 14 29v4H9.094c-1.27 0-2.446-.496-3.406-1.719C4.726 30.06 4 28.043 4 25c0-3.043.727-5.059 1.688-6.281C6.647 17.496 7.824 17 9.094 17H26v-5H16V9.094c0-.895.387-2.114 1.688-3.156C18.988 4.894 21.258 4 25 4zm-5 3c-1.102 0-2 .898-2 2 0 1.102.898 2 2 2 1.102 0 2-.898 2-2 0-1.102-.898-2-2-2zm16 10h4.906c1.27 0 2.446.496 3.407 1.719C45.273 19.94 46 21.957 46 25c0 3.043-.727 5.059-1.688 6.281-.96 1.223-2.136 1.719-3.406 1.719H24v5h10v2.906c0 .895-.387 2.114-1.688 3.157C31.012 45.105 28.742 46 25 46c-3.742 0-6.012-.895-7.313-1.938C16.387 43.02 16 41.801 16 40.907V29a3.01 3.01 0 0 1 3-3h12c2.746 0 5-2.254 5-5zm-6 22c-1.102 0-2 .898-2 2 0 1.102.898 2 2 2 1.102 0 2-.898 2-2 0-1.102-.898-2-2-2z" id="surface1"/><metadata><rdf:RDF xmlns:rdf="http://www.w3.org/1999/02/22-rdf-syntax-ns#" xmlns:rdfs="http://www.w3.org/2000/01/rdf-schema#" xmlns:dc="http://purl.org/dc/elements/1.1/"><rdf:Description about="https://iconscout.com/legal#licenses" dc:title="python" dc:description="python" dc:publisher="Iconscout" dc:date="2017-12-09" dc:format="image/svg+xml" dc:language="en"><dc:creator><rdf:Bag><rdf:li>Icons8</rdf:li></rdf:Bag></dc:creator></rdf:Description></rdf:RDF></metadata></svg>