<?xml version="1.0" encoding="UTF-8" standalone="no"?>
<!DOCTYPE svg PUBLIC "-//W3C//DTD SVG 1.1//EN" "http://www.w3.org/Graphics/SVG/1.1/DTD/svg11.dtd">
<!-- Generated by Microsoft Visio, SVG Export tspatial.svg Page-1 -->
<svg xmlns="http://www.w3.org/2000/svg" xmlns:xlink="http://www.w3.org/1999/xlink" xmlns:ev="http://www.w3.org/2001/xml-events"
		width="4.87833in" height="2.50333in" viewBox="0 0 351.24 180.24" xml:space="preserve" color-interpolation-filters="sRGB"
		class="st8">
	<style type="text/css">
	<![CDATA[
		.st1 {fill:none;stroke:#000000;stroke-linecap:round;stroke-linejoin:round;stroke-width:0.24}
		.st2 {fill:#000000;font-family:Arial;font-size:0.833336em}
		.st3 {marker-start:url(#mrkr14-9);stroke:#000000;stroke-linecap:round;stroke-linejoin:round;stroke-width:0.24}
		.st4 {fill:#000000;fill-opacity:1;stroke:#000000;stroke-opacity:1;stroke-width:0.08695652173913}
		.st5 {stroke:#000000;stroke-linecap:round;stroke-linejoin:round;stroke-width:0.24}
		.st6 {fill:#ffffff;stroke:#000000;stroke-linecap:round;stroke-linejoin:round;stroke-width:0.24}
		.st7 {stroke:#000000;stroke-linecap:round;stroke-linejoin:round;stroke-width:0.25}
		.st8 {fill:none;fill-rule:evenodd;font-size:12px;overflow:visible;stroke-linecap:square;stroke-miterlimit:3}
	]]>
	</style>

	<defs id="Markers">
		<g id="lend14">
			<path d="M 3 -1 L 0 0 L 3 1 L 3 -1 " style="stroke-linecap:round;stroke-linejoin:round;fill:none"/>
		</g>
		<marker id="mrkr14-9" class="st4" refX="33" orient="auto" markerUnits="strokeWidth" overflow="visible">
			<use xlink:href="#lend14" transform="scale(11.5) "/>
		</marker>
	</defs>
	<g>
		<title>Page-1</title>
		<g id="shape3-1" transform="translate(72.12,-81.12)">
			<title>Sheet.3</title>
			<desc>TGeo</desc>
			<rect x="0" y="162.24" width="63" height="18" class="st1"/>
			<text x="19" y="174.24" class="st2">TGeo</text>		</g>
		<g id="shape5-4" transform="translate(355.86,54.12) rotate(90)">
			<title>Sheet.5</title>
			<path d="M7.92 180.24 L8.28 180.24 L27 180.24" class="st3"/>
		</g>
		<g id="shape6-10" transform="translate(184.62,-108.12)">
			<title>Sheet.6</title>
			<desc>total/exclusive</desc>
			<text x="2.35" y="174.24" class="st2">total/exclusive</text>		</g>
		<g id="shape7-12" transform="translate(31.62,-99.12)">
			<title>Sheet.7</title>
			<path d="M0 180.24 L0 171.24 L288 171.24 L288 180.24" class="st5"/>
		</g>
		<g id="shape8-15" transform="translate(144.12,-81.12)">
			<title>Sheet.8</title>
			<desc>TNpoint</desc>
			<rect x="0" y="162.24" width="63" height="18" class="st1"/>
			<text x="13.99" y="174.24" class="st2">TNpoint</text>		</g>
		<g id="shape10-18" transform="translate(288.12,-81.12)">
			<title>Sheet.10</title>
			<desc>TRGeometry</desc>
			<rect x="0" y="162.24" width="63" height="18" class="st1"/>
			<text x="2.88" y="174.24" class="st2">TRGeometry</text>		</g>
		<g id="shape38-21" transform="translate(144.12,-126.12)">
			<title>Sheet.38</title>
			<desc>TSpatial</desc>
			<rect x="0" y="162.24" width="63" height="18" class="st1"/>
			<text x="13.16" y="174.24" class="st2">TSpatial</text>		</g>
		<g id="shape39-24" transform="translate(283.86,72.12) rotate(90)">
			<title>Sheet.39</title>
			<path d="M0 180.24 L9 180.24" class="st5"/>
		</g>
		<g id="shape40-27" transform="translate(216.12,-81.12)">
			<title>Sheet.40</title>
			<desc>TPose</desc>
			<rect x="0" y="162.24" width="63" height="18" class="st1"/>
			<text x="17.05" y="174.24" class="st2">TPose</text>		</g>
		<g id="shape41-30" transform="translate(427.86,72.12) rotate(90)">
			<title>Sheet.41</title>
			<path d="M0 180.24 L9 180.24" class="st5"/>
		</g>
		<g id="shape42-33" transform="translate(314.995,-72.0367)">
			<title>Sheet.42</title>
			<path d="M4.63 171.16 L0 175.78 L4.46 180.24 L9.13 175.57 L4.63 171.16 Z" class="st6"/>
		</g>
		<g id="shape43-35" transform="translate(256.62,-67.62)">
			<title>Sheet.43</title>
			<path d="M63 175.82 L63 180.24 L0 180.24 L0 166.74" class="st7"/>
		</g>
		<g id="shape44-38" transform="translate(0.12,-81.12)">
			<title>Sheet.44</title>
			<desc>TCbuffer</desc>
			<rect x="0" y="162.24" width="63" height="18" class="st1"/>
			<text x="12.05" y="174.24" class="st2">TCbuffer</text>		</g>
		<g id="shape46-41" transform="translate(355.86,18.12) rotate(90)">
			<title>Sheet.46</title>
			<path d="M7.92 180.24 L8.28 180.24 L18 180.24" class="st3"/>
		</g>
		<g id="shape47-46" transform="translate(67.62,-54.12)">
			<title>Sheet.47</title>
			<path d="M0 180.24 L0 171.24 L72 171.24 L72 180.24" class="st5"/>
		</g>
		<g id="shape48-49" transform="translate(36.12,-36.12)">
			<title>Sheet.48</title>
			<desc>TGeometry</desc>
			<rect x="0" y="162.24" width="63" height="18" class="st1"/>
			<text x="6.5" y="174.24" class="st2">TGeometry</text>		</g>
		<g id="shape49-52" transform="translate(108.12,-36.12)">
			<title>Sheet.49</title>
			<desc>TGeography</desc>
			<rect x="0" y="162.24" width="63" height="18" class="st1"/>
			<text x="3.71" y="174.24" class="st2">TGeography</text>		</g>
		<g id="shape50-55" transform="translate(112.62,-63.12)">
			<title>Sheet.50</title>
			<desc>total/exclusive</desc>
			<text x="2.35" y="174.24" class="st2">total/exclusive</text>		</g>
		<g id="shape51-57" transform="translate(247.86,144.12) rotate(90)">
			<title>Sheet.51</title>
			<path d="M7.92 180.24 L8.28 180.24 L18 180.24" class="st3"/>
		</g>
		<g id="shape52-62" transform="translate(36.12,-0.12)">
			<title>Sheet.52</title>
			<desc>TGeomPoint</desc>
			<rect x="0" y="162.24" width="63" height="18" class="st1"/>
			<text x="3.43" y="174.24" class="st2">TGeomPoint</text>		</g>
		<g id="shape53-65" transform="translate(319.86,144.12) rotate(90)">
			<title>Sheet.53</title>
			<path d="M7.92 180.24 L8.28 180.24 L18 180.24" class="st3"/>
		</g>
		<g id="shape54-70" transform="translate(108.12,-0.12)">
			<title>Sheet.54</title>
			<desc>TGeogPoint</desc>
			<rect x="0" y="162.24" width="63" height="18" class="st1"/>
			<text x="4.82" y="174.24" class="st2">TGeogPoint</text>		</g>
		<g id="shape70-73" transform="translate(144.12,-162.12)">
			<title>Sheet.70</title>
			<desc>Temporal</desc>
			<rect x="0" y="162.24" width="63" height="18" class="st1"/>
			<text x="10.38" y="174.24" class="st2">Temporal</text>		</g>
	</g>
</svg>
