<?xml version="1.0" encoding="UTF-8" standalone="no"?>
<!DOCTYPE svg PUBLIC "-//W3C//DTD SVG 1.0//EN" "http://www.w3.org/TR/2001/REC-SVG-20010904/DTD/svg10.dtd">
<!-- Generated by Microsoft Visio 11.0, SVG Export, v1.0 update.svg Page-1 -->
<svg xmlns="http://www.w3.org/2000/svg" xmlns:xlink="http://www.w3.org/1999/xlink" xmlns:ev="http://www.w3.org/2001/xml-events"
		xmlns:v="http://schemas.microsoft.com/visio/2003/SVGExtensions/" width="2.63167in" height="1.94417in"
		viewBox="0 0 189.48 139.98" xml:space="preserve" color-interpolation-filters="sRGB" class="st9">
	<title>figure12</title>
	<v:documentProperties v:langID="2060" v:viewMarkup="false"/>

	<style type="text/css">
	<![CDATA[
		.st1 {fill:#f2dcda;stroke:#000000;stroke-linecap:round;stroke-linejoin:round;stroke-width:0.24}
		.st2 {fill:#eeeaf2;stroke:#000000;stroke-linecap:round;stroke-linejoin:round;stroke-width:0.24}
		.st3 {marker-end:url(#mrkr5-10);stroke:#000000;stroke-linecap:round;stroke-linejoin:round;stroke-width:0.24}
		.st4 {fill:#000000;fill-opacity:1;stroke:#000000;stroke-opacity:1;stroke-width:0.11764705882353}
		.st5 {fill:none;stroke:none;stroke-linecap:round;stroke-linejoin:round;stroke-width:0.24}
		.st6 {fill:#000000;font-family:Arial;font-size:0.666664em}
		.st7 {stroke:#000000;stroke-linecap:round;stroke-linejoin:round;stroke-width:0.24}
		.st8 {fill:#ffffff;stroke:#000000;stroke-linecap:round;stroke-linejoin:round;stroke-width:0.24}
		.st9 {fill:none;fill-rule:evenodd;font-size:12px;overflow:visible;stroke-linecap:square;stroke-miterlimit:3}
	]]>
	</style>

	<defs id="Markers">
		<g id="lend5">
			<path d="M 2 1 L 0 0 L 1.98117 -0.993387 C 1.67173 -0.364515 1.67301 0.372641 1.98465 1.00043 " style="stroke:none"/>
		</g>
		<marker id="mrkr5-10" class="st4" v:arrowType="5" v:arrowSize="1" v:setback="14.875" refX="-14.875" orient="auto"
				markerUnits="strokeWidth" overflow="visible">
			<use xlink:href="#lend5" transform="scale(-8.5,-8.5) "/>
		</marker>
	</defs>
	<g v:mID="0" v:index="1" v:groupContext="foregroundPage">
		<title>Page-1</title>
		<v:pageProperties v:drawingScale="1" v:pageScale="1" v:drawingUnits="19" v:shadowOffsetX="7.2" v:shadowOffsetY="-7.2"/>
		<g id="shape95-1" v:mID="95" v:groupContext="shape" transform="translate(108.24,-72.24)">
			<title>Sheet.95</title>
			<rect x="0" y="121.98" width="27" height="18" class="st1"/>
		</g>
		<g id="shape80-3" v:mID="80" v:groupContext="shape" transform="translate(18.24,-99.24)">
			<title>Sheet.80</title>
			<rect x="0" y="121.98" width="81" height="18" class="st2"/>
		</g>
		<g id="shape69-5" v:mID="69" v:groupContext="shape" transform="translate(18.24,-126.24)">
			<title>Sheet.69</title>
			<path d="M0 139.98 L32.43 139.98" class="st3"/>
		</g>
		<g id="shape70-11" v:mID="70" v:groupContext="shape" transform="translate(18.24,-126.24)">
			<title>Sheet.70</title>
			<desc>time</desc>
			<v:textBlock v:margins="rect(0,0,0,0)" v:tabSpace="42.5197"/>
			<v:textRect cx="18" cy="133.23" width="36" height="13.5"/>
			<rect x="0" y="126.48" width="36" height="13.5" class="st5"/>
			<text x="10.44" y="135.63" class="st6" v:langID="1036"><v:paragraph v:horizAlign="1"/><v:tabList/>time</text>		</g>
		<g id="shape71-14" v:mID="71" v:groupContext="shape" transform="translate(90.24,-126.24)">
			<title>Sheet.71</title>
			<desc>update</desc>
			<v:textBlock v:margins="rect(0,0,0,0)" v:tabSpace="42.5197"/>
			<v:textRect cx="18" cy="133.23" width="36" height="13.5"/>
			<rect x="0" y="126.48" width="36" height="13.5" class="st5"/>
			<text x="5.77" y="135.63" class="st6" v:langID="1036"><v:paragraph v:horizAlign="1"/><v:tabList/>update</text>		</g>
		<g id="shape73-17" v:mID="73" v:groupContext="shape" transform="translate(221.22,22.74) rotate(90)">
			<title>Sheet.73</title>
			<path d="M0 139.98 L18 139.98" class="st7"/>
		</g>
		<g id="shape74-20" v:mID="74" v:groupContext="shape" transform="translate(230.22,22.74) rotate(90)">
			<title>Sheet.74</title>
			<path d="M0 139.98 L18 139.98" class="st7"/>
		</g>
		<g id="shape83-23" v:mID="83" v:groupContext="shape" transform="translate(203.22,22.74) rotate(90)">
			<title>Sheet.83</title>
			<path d="M0 139.98 L18 139.98" class="st7"/>
		</g>
		<g id="shape84-26" v:mID="84" v:groupContext="shape" transform="translate(194.22,22.74) rotate(90)">
			<title>Sheet.84</title>
			<path d="M0 139.98 L18 139.98" class="st7"/>
		</g>
		<g id="shape85-29" v:mID="85" v:groupContext="shape" transform="translate(185.22,22.74) rotate(90)">
			<title>Sheet.85</title>
			<path d="M0 139.98 L18 139.98" class="st7"/>
		</g>
		<g id="shape86-32" v:mID="86" v:groupContext="shape" transform="translate(176.22,22.74) rotate(90)">
			<title>Sheet.86</title>
			<path d="M0 139.98 L18 139.98" class="st7"/>
		</g>
		<g id="shape87-35" v:mID="87" v:groupContext="shape" transform="translate(167.22,22.74) rotate(90)">
			<title>Sheet.87</title>
			<path d="M0 139.98 L18 139.98" class="st7"/>
		</g>
		<g id="shape88-38" v:mID="88" v:groupContext="shape" transform="translate(212.22,22.74) rotate(90)">
			<title>Sheet.88</title>
			<path d="M0 139.98 L18 139.98" class="st7"/>
		</g>
		<g id="shape50-41" v:mID="50" v:groupContext="shape" transform="translate(54.24,-72.24)">
			<title>Sheet.50</title>
			<rect x="0" y="121.98" width="36" height="18" class="st1"/>
		</g>
		<g id="shape51-43" v:mID="51" v:groupContext="shape" transform="translate(203.22,49.74) rotate(90)">
			<title>Sheet.51</title>
			<path d="M0 139.98 L18 139.98" class="st7"/>
		</g>
		<g id="shape52-46" v:mID="52" v:groupContext="shape" transform="translate(211.887,49.74) rotate(90)">
			<title>Sheet.52</title>
			<path d="M0 139.98 L18 139.98" class="st7"/>
		</g>
		<g id="shape53-49" v:mID="53" v:groupContext="shape" transform="translate(221.22,49.74) rotate(90)">
			<title>Sheet.53</title>
			<path d="M0 139.98 L18 139.98" class="st7"/>
		</g>
		<g id="shape96-52" v:mID="96" v:groupContext="shape" transform="translate(257.22,49.74) rotate(90)">
			<title>Sheet.96</title>
			<path d="M0 139.98 L18 139.98" class="st7"/>
		</g>
		<g id="shape97-55" v:mID="97" v:groupContext="shape" transform="translate(265.887,49.74) rotate(90)">
			<title>Sheet.97</title>
			<path d="M0 139.98 L18 139.98" class="st7"/>
		</g>
		<g id="shape330-58" v:mID="330" v:groupContext="shape" transform="translate(135.24,-0.24)">
			<title>Sheet.330</title>
			<rect x="0" y="121.98" width="27" height="18" class="st2"/>
		</g>
		<g id="shape331-60" v:mID="331" v:groupContext="shape" transform="translate(90.24,-0.24)">
			<title>Sheet.331</title>
			<rect x="0" y="121.98" width="18" height="18" class="st2"/>
		</g>
		<g id="shape332-62" v:mID="332" v:groupContext="shape" transform="translate(18.24,-0.24)">
			<title>Sheet.332</title>
			<rect x="0" y="121.98" width="36" height="18" class="st2"/>
		</g>
		<g id="shape333-64" v:mID="333" v:groupContext="shape" transform="translate(293.22,121.74) rotate(90)">
			<title>Sheet.333</title>
			<path d="M0 139.98 L18 139.98" class="st7"/>
		</g>
		<g id="shape336-67" v:mID="336" v:groupContext="shape" transform="translate(185.22,121.74) rotate(90)">
			<title>Sheet.336</title>
			<path d="M0 139.98 L18 139.98" class="st7"/>
		</g>
		<g id="shape337-70" v:mID="337" v:groupContext="shape" transform="translate(176.22,121.74) rotate(90)">
			<title>Sheet.337</title>
			<path d="M0 139.98 L18 139.98" class="st7"/>
		</g>
		<g id="shape338-73" v:mID="338" v:groupContext="shape" transform="translate(167.22,121.74) rotate(90)">
			<title>Sheet.338</title>
			<path d="M0 139.98 L18 139.98" class="st7"/>
		</g>
		<g id="shape339-76" v:mID="339" v:groupContext="shape" transform="translate(54.24,-0.24)">
			<title>Sheet.339</title>
			<rect x="0" y="121.98" width="36" height="18" class="st1"/>
		</g>
		<g id="shape340-78" v:mID="340" v:groupContext="shape" transform="translate(203.22,121.74) rotate(90)">
			<title>Sheet.340</title>
			<path d="M0 139.98 L18 139.98" class="st7"/>
		</g>
		<g id="shape341-81" v:mID="341" v:groupContext="shape" transform="translate(211.887,121.74) rotate(90)">
			<title>Sheet.341</title>
			<path d="M0 139.98 L18 139.98" class="st7"/>
		</g>
		<g id="shape342-84" v:mID="342" v:groupContext="shape" transform="translate(221.22,121.74) rotate(90)">
			<title>Sheet.342</title>
			<path d="M0 139.98 L18 139.98" class="st7"/>
		</g>
		<g id="shape343-87" v:mID="343" v:groupContext="shape" transform="translate(108.24,-0.24)">
			<title>Sheet.343</title>
			<rect x="0" y="121.98" width="27" height="18" class="st1"/>
		</g>
		<g id="shape344-89" v:mID="344" v:groupContext="shape" transform="translate(257.22,121.74) rotate(90)">
			<title>Sheet.344</title>
			<path d="M0 139.98 L18 139.98" class="st7"/>
		</g>
		<g id="shape345-92" v:mID="345" v:groupContext="shape" transform="translate(265.887,121.74) rotate(90)">
			<title>Sheet.345</title>
			<path d="M0 139.98 L18 139.98" class="st7"/>
		</g>
		<g id="shape346-95" v:mID="346" v:groupContext="shape" transform="translate(144.24,-99.24)">
			<title>Sheet.346</title>
			<rect x="0" y="121.98" width="18" height="18" class="st2"/>
		</g>
		<g id="shape347-97" v:mID="347" v:groupContext="shape" transform="translate(293.387,22.74) rotate(90)">
			<title>Sheet.347</title>
			<path d="M0 139.98 L18 139.98" class="st7"/>
		</g>
		<g id="shape348-100" v:mID="348" v:groupContext="shape" transform="translate(284.387,121.74) rotate(90)">
			<title>Sheet.348</title>
			<path d="M0 139.98 L18 139.98" class="st7"/>
		</g>
		<g id="shape350-103" v:mID="350" v:groupContext="shape" transform="translate(239.22,121.74) rotate(90)">
			<title>Sheet.350</title>
			<path d="M0 139.98 L18 139.98" class="st7"/>
		</g>
		<g id="shape196-106" v:mID="196" v:groupContext="shape" transform="translate(144.24,-27.24)">
			<title>Sheet.196</title>
			<rect x="0" y="121.98" width="18" height="18" class="st2"/>
		</g>
		<g id="shape109-108" v:mID="109" v:groupContext="shape" transform="translate(18.24,-27.24)">
			<title>Sheet.109</title>
			<rect x="0" y="121.98" width="36" height="18" class="st2"/>
		</g>
		<g id="shape110-110" v:mID="110" v:groupContext="shape" transform="translate(293.22,94.74) rotate(90)">
			<title>Sheet.110</title>
			<path d="M0 139.98 L18 139.98" class="st7"/>
		</g>
		<g id="shape114-113" v:mID="114" v:groupContext="shape" transform="translate(185.22,94.74) rotate(90)">
			<title>Sheet.114</title>
			<path d="M0 139.98 L18 139.98" class="st7"/>
		</g>
		<g id="shape115-116" v:mID="115" v:groupContext="shape" transform="translate(176.22,94.74) rotate(90)">
			<title>Sheet.115</title>
			<path d="M0 139.98 L18 139.98" class="st7"/>
		</g>
		<g id="shape116-119" v:mID="116" v:groupContext="shape" transform="translate(167.22,94.74) rotate(90)">
			<title>Sheet.116</title>
			<path d="M0 139.98 L18 139.98" class="st7"/>
		</g>
		<g id="shape189-122" v:mID="189" v:groupContext="shape" transform="translate(54.24,-27.24)">
			<title>Sheet.189</title>
			<rect x="0" y="121.98" width="36" height="18" class="st1"/>
		</g>
		<g id="shape190-124" v:mID="190" v:groupContext="shape" transform="translate(203.22,94.74) rotate(90)">
			<title>Sheet.190</title>
			<path d="M0 139.98 L18 139.98" class="st7"/>
		</g>
		<g id="shape191-127" v:mID="191" v:groupContext="shape" transform="translate(211.887,94.74) rotate(90)">
			<title>Sheet.191</title>
			<path d="M0 139.98 L18 139.98" class="st7"/>
		</g>
		<g id="shape192-130" v:mID="192" v:groupContext="shape" transform="translate(221.22,94.74) rotate(90)">
			<title>Sheet.192</title>
			<path d="M0 139.98 L18 139.98" class="st7"/>
		</g>
		<g id="shape193-133" v:mID="193" v:groupContext="shape" transform="translate(108.24,-27.24)">
			<title>Sheet.193</title>
			<rect x="0" y="121.98" width="27" height="18" class="st1"/>
		</g>
		<g id="shape194-135" v:mID="194" v:groupContext="shape" transform="translate(257.22,94.74) rotate(90)">
			<title>Sheet.194</title>
			<path d="M0 139.98 L18 139.98" class="st7"/>
		</g>
		<g id="shape195-138" v:mID="195" v:groupContext="shape" transform="translate(265.887,94.74) rotate(90)">
			<title>Sheet.195</title>
			<path d="M0 139.98 L18 139.98" class="st7"/>
		</g>
		<g id="shape349-141" v:mID="349" v:groupContext="shape" transform="translate(90.24,-27.24)">
			<title>Sheet.349</title>
			<rect x="0" y="121.98" width="9" height="18" class="st2"/>
		</g>
		<g id="shape430-143" v:mID="430" v:groupContext="shape" transform="translate(117.24,-99.24)">
			<title>Sheet.430</title>
			<rect x="0" y="121.98" width="9" height="18" class="st2"/>
		</g>
		<g id="shape433-145" v:mID="433" v:groupContext="shape" transform="translate(0.24,-27.24)">
			<title>Sheet.433</title>
			<desc>(1)</desc>
			<v:textBlock v:margins="rect(0,0,0,0)" v:tabSpace="42.5197"/>
			<v:textRect cx="9" cy="130.98" width="18" height="18"/>
			<rect x="0" y="121.98" width="18" height="18" class="st5"/>
			<text x="4.11" y="133.38" class="st6" v:langID="1036"><v:paragraph v:horizAlign="1"/><v:tabList/>(1)</text>		</g>
		<g id="shape434-148" v:mID="434" v:groupContext="shape" transform="translate(0.24,-0.24)">
			<title>Sheet.434</title>
			<desc>(2)</desc>
			<v:textBlock v:margins="rect(0,0,0,0)" v:tabSpace="42.5197"/>
			<v:textRect cx="9" cy="130.98" width="18" height="18"/>
			<rect x="0" y="121.98" width="18" height="18" class="st5"/>
			<text x="4.11" y="133.38" class="st6" v:langID="1036"><v:paragraph v:horizAlign="1"/><v:tabList/>(2)</text>		</g>
		<g id="shape447-151" v:mID="447" v:groupContext="shape" transform="translate(171.24,-99.24)">
			<title>Sheet.447</title>
			<rect x="0" y="121.98" width="18" height="18" class="st2"/>
		</g>
		<g id="shape448-153" v:mID="448" v:groupContext="shape" transform="translate(320.387,22.74) rotate(90)">
			<title>Sheet.448</title>
			<path d="M0 139.98 L18 139.98" class="st7"/>
		</g>
		<g id="shape450-156" v:mID="450" v:groupContext="shape" transform="translate(171.24,-27.24)">
			<title>Sheet.450</title>
			<rect x="0" y="121.98" width="18" height="18" class="st2"/>
		</g>
		<g id="shape451-158" v:mID="451" v:groupContext="shape" transform="translate(320.387,94.74) rotate(90)">
			<title>Sheet.451</title>
			<path d="M0 139.98 L18 139.98" class="st7"/>
		</g>
		<g id="shape453-161" v:mID="453" v:groupContext="shape" transform="translate(171.24,-0.24)">
			<title>Sheet.453</title>
			<rect x="0" y="121.98" width="18" height="18" class="st2"/>
		</g>
		<g id="shape454-163" v:mID="454" v:groupContext="shape" transform="translate(320.387,121.74) rotate(90)">
			<title>Sheet.454</title>
			<path d="M0 139.98 L18 139.98" class="st7"/>
		</g>
		<g id="shape421-166" v:mID="421" v:groupContext="shape" transform="translate(85.74,-53.115)">
			<title>Sheet.421</title>
			<path d="M2.25 130.98 L2.25 135.48 L0 135.48 L3.94 139.98 L7.88 135.48 L5.63 135.48 L5.62 130.98 L2.25 130.98 Z"
					class="st8"/>
		</g>
		<g id="shape422-168" v:mID="422" v:groupContext="shape" transform="translate(91.24,-51.99)">
			<title>Sheet.422</title>
			<desc>result</desc>
			<v:textBlock v:margins="rect(0,0,0,0)" v:tabSpace="42.5197"/>
			<v:textRect cx="17.5" cy="134.355" width="35.01" height="11.25"/>
			<rect x="0" y="128.73" width="35" height="11.25" class="st5"/>
			<text x="7.72" y="136.75" class="st6" v:langID="2060"><v:paragraph v:horizAlign="1"/><v:tabList/>result</text>		</g>
	</g>
</svg>
