<?xml version="1.0" encoding="UTF-8" standalone="no"?>
<!DOCTYPE svg PUBLIC "-//W3C//DTD SVG 1.1//EN" "http://www.w3.org/Graphics/SVG/1.1/DTD/svg11.dtd">
<!-- Generated by Microsoft Visio, SVG Export WLOF.svg Page-1 -->
<svg xmlns="http://www.w3.org/2000/svg" xmlns:xlink="http://www.w3.org/1999/xlink" xmlns:ev="http://www.w3.org/2001/xml-events"
		xmlns:v="http://schemas.microsoft.com/visio/2003/SVGExtensions/" width="8.5in" height="11in" viewBox="0 0 612 792"
		xml:space="preserve" color-interpolation-filters="sRGB" class="st6">
	<v:documentProperties v:langID="8192" v:viewMarkup="false">
		<v:userDefs>
			<v:ud v:nameU="msvNoAutoConnect" v:val="VT0(1):26"/>
		</v:userDefs>
	</v:documentProperties>

	<style type="text/css">
	<![CDATA[
		.st1 {stroke:#000000;stroke-linecap:round;stroke-linejoin:round;stroke-width:0.75}
		.st2 {fill:none;stroke:none;stroke-linecap:round;stroke-linejoin:round;stroke-width:0.75}
		.st3 {fill:#000000;font-family:Cambria;font-size:0.833336em}
		.st4 {fill:#0070c0;stroke:#0070c0;stroke-linecap:round;stroke-linejoin:round;stroke-width:0.75}
		.st5 {font-family:Calibri;font-size:1em}
		.st6 {fill:none;fill-rule:evenodd;font-size:12px;overflow:visible;stroke-linecap:square;stroke-miterlimit:3}
	]]>
	</style>

	<g v:mID="0" v:index="1" v:groupContext="foregroundPage">
		<title>Page-1</title>
		<v:pageProperties v:drawingScale="1" v:pageScale="1" v:drawingUnits="19" v:shadowOffsetX="9" v:shadowOffsetY="-9"/>
		<g id="shape1-1" v:mID="1" v:groupContext="shape" transform="translate(864,175.5) rotate(90)">
			<title>Sheet.1</title>
			<path d="M0 792 L117 792" class="st1"/>
		</g>
		<g id="shape2-4" v:mID="2" v:groupContext="shape" transform="translate(67.5,-504)">
			<title>Sheet.2</title>
			<path d="M0 792 L135 792" class="st1"/>
		</g>
		<g id="shape9-7" v:mID="9" v:groupContext="shape" transform="translate(54,-515.25)">
			<title>Sheet.9</title>
			<desc>1</desc>
			<v:textBlock v:margins="rect(4,4,4,4)"/>
			<v:textRect cx="6.35" cy="785.25" width="12.7" height="13.5"/>
			<rect x="0" y="778.5" width="12.7" height="13.5" class="st2"/>
			<text x="4" y="788.25" class="st3" v:langID="1033"><v:paragraph v:horizAlign="1"/><v:tabList/>1</text>		</g>
		<g id="shape14-10" v:mID="14" v:groupContext="shape" transform="translate(67.5,-612)">
			<title>Sheet.14</title>
			<path d="M0 792 L9 792" class="st1"/>
		</g>
		<g id="shape16-13" v:mID="16" v:groupContext="shape" transform="translate(67.5,-576)">
			<title>Sheet.16</title>
			<path d="M0 792 L9 792" class="st1"/>
		</g>
		<g id="shape17-16" v:mID="17" v:groupContext="shape" transform="translate(67.5,-594)">
			<title>Sheet.17</title>
			<path d="M0 792 L9 792" class="st1"/>
		</g>
		<g id="shape18-19" v:mID="18" v:groupContext="shape" transform="translate(67.5,-540)">
			<title>Sheet.18</title>
			<path d="M0 792 L9 792" class="st1"/>
		</g>
		<g id="shape19-22" v:mID="19" v:groupContext="shape" transform="translate(67.5,-558)">
			<title>Sheet.19</title>
			<path d="M0 792 L9 792" class="st1"/>
		</g>
		<g id="shape20-25" v:mID="20" v:groupContext="shape" transform="translate(67.5,-522)">
			<title>Sheet.20</title>
			<path d="M0 792 L9 792" class="st1"/>
		</g>
		<g id="shape22-28" v:mID="22" v:groupContext="shape" transform="translate(900,283.5) rotate(90)">
			<title>Sheet.22</title>
			<path d="M0 792 L9 792" class="st1"/>
		</g>
		<g id="shape23-31" v:mID="23" v:groupContext="shape" transform="translate(882,283.5) rotate(90)">
			<title>Sheet.23</title>
			<path d="M0 792 L9 792" class="st1"/>
		</g>
		<g id="shape24-34" v:mID="24" v:groupContext="shape" transform="translate(936,283.5) rotate(90)">
			<title>Sheet.24</title>
			<path d="M0 792 L9 792" class="st1"/>
		</g>
		<g id="shape25-37" v:mID="25" v:groupContext="shape" transform="translate(918,283.5) rotate(90)">
			<title>Sheet.25</title>
			<path d="M0 792 L9 792" class="st1"/>
		</g>
		<g id="shape26-40" v:mID="26" v:groupContext="shape" transform="translate(972,283.5) rotate(90)">
			<title>Sheet.26</title>
			<path d="M0 792 L9 792" class="st1"/>
		</g>
		<g id="shape27-43" v:mID="27" v:groupContext="shape" transform="translate(954,283.5) rotate(90)">
			<title>Sheet.27</title>
			<path d="M0 792 L9 792" class="st1"/>
		</g>
		<g id="shape29-46" v:mID="29" v:groupContext="shape" transform="translate(990,283.5) rotate(90)">
			<title>Sheet.29</title>
			<path d="M0 792 L9 792" class="st1"/>
		</g>
		<g id="shape30-49" v:mID="30" v:groupContext="shape" transform="translate(87.75,-591.75)">
			<title>Sheet.30</title>
			<ellipse cx="2.25" cy="789.75" rx="2.25" ry="2.25" class="st4"/>
		</g>
		<g id="shape31-51" v:mID="31" v:groupContext="shape" transform="translate(90,-585)">
			<title>Sheet.31</title>
			<desc>B (1,5)</desc>
			<v:textBlock v:margins="rect(0,0,0,0)"/>
			<v:textRect cx="18" cy="783" width="36" height="18"/>
			<rect x="0" y="774" width="36" height="18" class="st2"/>
			<text x="3.46" y="786" class="st3" v:langID="1033"><v:paragraph v:horizAlign="1"/><v:tabList/>B (1,5)</text>		</g>
		<g id="shape32-54" v:mID="32" v:groupContext="shape" transform="translate(159.75,-591.75)">
			<title>Sheet.32</title>
			<ellipse cx="2.25" cy="789.75" rx="2.25" ry="2.25" class="st4"/>
		</g>
		<g id="shape33-56" v:mID="33" v:groupContext="shape" transform="translate(144.4,-594)">
			<title>Sheet.33</title>
			<desc>(5,5)</desc>
			<v:textBlock v:margins="rect(0,0,0,0)"/>
			<v:textRect cx="18" cy="783" width="36" height="18"/>
			<rect x="0" y="774" width="36" height="18" class="st2"/>
			<text x="7.62" y="786" class="st3" v:langID="1033"><v:paragraph v:horizAlign="1"/><v:tabList/>(5,5)</text>		</g>
		<g id="shape34-59" v:mID="34" v:groupContext="shape" transform="translate(54,-533.25)">
			<title>Sheet.34</title>
			<desc>2</desc>
			<v:textBlock v:margins="rect(4,4,4,4)"/>
			<v:textRect cx="6.35" cy="785.25" width="12.7" height="13.5"/>
			<rect x="0" y="778.5" width="12.7" height="13.5" class="st2"/>
			<text x="4" y="788.25" class="st3" v:langID="1033"><v:paragraph v:horizAlign="1"/><v:tabList/>2</text>		</g>
		<g id="shape35-62" v:mID="35" v:groupContext="shape" transform="translate(54,-551.25)">
			<title>Sheet.35</title>
			<desc>3</desc>
			<v:textBlock v:margins="rect(4,4,4,4)"/>
			<v:textRect cx="6.35" cy="785.25" width="12.7" height="13.5"/>
			<rect x="0" y="778.5" width="12.7" height="13.5" class="st2"/>
			<text x="4" y="788.25" class="st3" v:langID="1033"><v:paragraph v:horizAlign="1"/><v:tabList/>3</text>		</g>
		<g id="shape36-65" v:mID="36" v:groupContext="shape" transform="translate(54,-569.25)">
			<title>Sheet.36</title>
			<desc>4</desc>
			<v:textBlock v:margins="rect(4,4,4,4)"/>
			<v:textRect cx="6.35" cy="785.25" width="12.7" height="13.5"/>
			<rect x="0" y="778.5" width="12.7" height="13.5" class="st2"/>
			<text x="4" y="788.25" class="st3" v:langID="1033"><v:paragraph v:horizAlign="1"/><v:tabList/>4</text>		</g>
		<g id="shape37-68" v:mID="37" v:groupContext="shape" transform="translate(54,-587.25)">
			<title>Sheet.37</title>
			<desc>5</desc>
			<v:textBlock v:margins="rect(4,4,4,4)"/>
			<v:textRect cx="6.35" cy="785.25" width="12.7" height="13.5"/>
			<rect x="0" y="778.5" width="12.7" height="13.5" class="st2"/>
			<text x="4" y="788.25" class="st3" v:langID="1033"><v:paragraph v:horizAlign="1"/><v:tabList/>5</text>		</g>
		<g id="shape38-71" v:mID="38" v:groupContext="shape" transform="translate(83.65,-483.75)">
			<title>Sheet.38</title>
			<desc>1</desc>
			<v:textBlock v:margins="rect(4,4,4,4)"/>
			<v:textRect cx="6.35" cy="785.25" width="12.7" height="13.5"/>
			<rect x="0" y="778.5" width="12.7" height="13.5" class="st2"/>
			<text x="4" y="788.25" class="st3" v:langID="1033"><v:paragraph v:horizAlign="1"/><v:tabList/>1</text>		</g>
		<g id="shape39-74" v:mID="39" v:groupContext="shape" transform="translate(101.65,-483.75)">
			<title>Sheet.39</title>
			<desc>2</desc>
			<v:textBlock v:margins="rect(4,4,4,4)"/>
			<v:textRect cx="6.35" cy="785.25" width="12.7" height="13.5"/>
			<rect x="0" y="778.5" width="12.7" height="13.5" class="st2"/>
			<text x="4" y="788.25" class="st3" v:langID="1033"><v:paragraph v:horizAlign="1"/><v:tabList/>2</text>		</g>
		<g id="shape40-77" v:mID="40" v:groupContext="shape" transform="translate(119.65,-483.75)">
			<title>Sheet.40</title>
			<desc>3</desc>
			<v:textBlock v:margins="rect(4,4,4,4)"/>
			<v:textRect cx="6.35" cy="785.25" width="12.7" height="13.5"/>
			<rect x="0" y="778.5" width="12.7" height="13.5" class="st2"/>
			<text x="4" y="788.25" class="st3" v:langID="1033"><v:paragraph v:horizAlign="1"/><v:tabList/>3</text>		</g>
		<g id="shape41-80" v:mID="41" v:groupContext="shape" transform="translate(137.65,-483.75)">
			<title>Sheet.41</title>
			<desc>4</desc>
			<v:textBlock v:margins="rect(4,4,4,4)"/>
			<v:textRect cx="6.35" cy="785.25" width="12.7" height="13.5"/>
			<rect x="0" y="778.5" width="12.7" height="13.5" class="st2"/>
			<text x="4" y="788.25" class="st3" v:langID="1033"><v:paragraph v:horizAlign="1"/><v:tabList/>4</text>		</g>
		<g id="shape42-83" v:mID="42" v:groupContext="shape" transform="translate(155.65,-483.75)">
			<title>Sheet.42</title>
			<desc>5</desc>
			<v:textBlock v:margins="rect(4,4,4,4)"/>
			<v:textRect cx="6.35" cy="785.25" width="12.7" height="13.5"/>
			<rect x="0" y="778.5" width="12.7" height="13.5" class="st2"/>
			<text x="4" y="788.25" class="st3" v:langID="1033"><v:paragraph v:horizAlign="1"/><v:tabList/>5</text>		</g>
		<g id="shape43-86" v:mID="43" v:groupContext="shape" transform="translate(173.65,-483.75)">
			<title>Sheet.43</title>
			<desc>6</desc>
			<v:textBlock v:margins="rect(4,4,4,4)"/>
			<v:textRect cx="6.35" cy="785.25" width="12.7" height="13.5"/>
			<rect x="0" y="778.5" width="12.7" height="13.5" class="st2"/>
			<text x="4" y="788.25" class="st3" v:langID="1033"><v:paragraph v:horizAlign="1"/><v:tabList/>6</text>		</g>
		<g id="shape44-89" v:mID="44" v:groupContext="shape" transform="translate(191.65,-483.75)">
			<title>Sheet.44</title>
			<desc>7</desc>
			<v:textBlock v:margins="rect(4,4,4,4)"/>
			<v:textRect cx="6.35" cy="785.25" width="12.7" height="13.5"/>
			<rect x="0" y="778.5" width="12.7" height="13.5" class="st2"/>
			<text x="4" y="788.25" class="st3" v:langID="1033"><v:paragraph v:horizAlign="1"/><v:tabList/>7</text>		</g>
		<g id="shape45-92" v:mID="45" v:groupContext="shape" transform="translate(123.75,-501.75)">
			<title>Sheet.45</title>
			<ellipse cx="2.25" cy="789.75" rx="2.25" ry="2.25" class="st4"/>
		</g>
		<g id="shape46-94" v:mID="46" v:groupContext="shape" transform="translate(141.75,-501.75)">
			<title>Sheet.46</title>
			<ellipse cx="2.25" cy="789.75" rx="2.25" ry="2.25" class="st4"/>
		</g>
		<g id="shape47-96" v:mID="47" v:groupContext="shape" transform="translate(90,-504)">
			<title>Sheet.47</title>
			<desc>F (3,0)</desc>
			<v:textBlock v:margins="rect(0,0,0,0)"/>
			<v:textRect cx="18" cy="783" width="36" height="18"/>
			<rect x="0" y="774" width="36" height="18" class="st2"/>
			<text x="3.83" y="786" class="st3" v:langID="1033"><v:paragraph v:horizAlign="1"/><v:tabList/>F (3,0)</text>		</g>
		<g id="shape48-99" v:mID="48" v:groupContext="shape" transform="translate(144.4,-504)">
			<title>Sheet.48</title>
			<desc>G (4,0)</desc>
			<v:textBlock v:margins="rect(0,0,0,0)"/>
			<v:textRect cx="18" cy="783" width="36" height="18"/>
			<rect x="0" y="774" width="36" height="18" class="st2"/>
			<text x="3.46" y="786" class="st3" v:langID="1033"><v:paragraph v:horizAlign="1"/><v:tabList/>G (4,0)</text>		</g>
		<g id="shape49-102" v:mID="49" v:groupContext="shape" transform="translate(123.75,-519.525)">
			<title>Sheet.49</title>
			<ellipse cx="2.25" cy="789.75" rx="2.25" ry="2.25" class="st4"/>
		</g>
		<g id="shape50-104" v:mID="50" v:groupContext="shape" transform="translate(141.75,-519.525)">
			<title>Sheet.50</title>
			<ellipse cx="2.25" cy="789.75" rx="2.25" ry="2.25" class="st4"/>
		</g>
		<g id="shape51-106" v:mID="51" v:groupContext="shape" transform="translate(90,-522)">
			<title>Sheet.51</title>
			<desc>E (3,1)</desc>
			<v:textBlock v:margins="rect(0,0,0,0)"/>
			<v:textRect cx="18" cy="783" width="36" height="18"/>
			<rect x="0" y="774" width="36" height="18" class="st2"/>
			<text x="4.65" y="786.08" class="st3" v:langID="2060"><v:paragraph v:horizAlign="1"/><v:tabList/>E<tspan class="st5"
						v:langID="1033"> </tspan><tspan class="st5" v:langID="1033">(3,1)</tspan></text>		</g>
		<g id="shape52-111" v:mID="52" v:groupContext="shape" transform="translate(144,-522)">
			<title>Sheet.52</title>
			<desc>D (4,1)</desc>
			<v:textBlock v:margins="rect(0,0,0,0)"/>
			<v:textRect cx="18" cy="783" width="36" height="18"/>
			<rect x="0" y="774" width="36" height="18" class="st2"/>
			<text x="4.21" y="786.08" class="st3" v:langID="2060"><v:paragraph v:horizAlign="1"/><v:tabList/>D<tspan class="st5"
						v:langID="1033"> </tspan><tspan class="st5" v:langID="1033">(4,1)</tspan></text>		</g>
		<g id="shape53-116" v:mID="53" v:groupContext="shape" transform="translate(54,-605.25)">
			<title>Sheet.53</title>
			<desc>6</desc>
			<v:textBlock v:margins="rect(4,4,4,4)"/>
			<v:textRect cx="6.35" cy="785.25" width="12.7" height="13.5"/>
			<rect x="0" y="778.5" width="12.7" height="13.5" class="st2"/>
			<text x="4" y="788.25" class="st3" v:langID="1033"><v:paragraph v:horizAlign="1"/><v:tabList/>6</text>		</g>
		<g id="shape54-119" v:mID="54" v:groupContext="shape" transform="translate(195.75,-609.75)">
			<title>Sheet.54</title>
			<ellipse cx="2.25" cy="789.75" rx="2.25" ry="2.25" class="st4"/>
		</g>
		<g id="shape55-121" v:mID="55" v:groupContext="shape" transform="translate(180,-594)">
			<title>Sheet.55</title>
			<desc>A (7,6)</desc>
			<v:textBlock v:margins="rect(0,0,0,0)"/>
			<v:textRect cx="18" cy="783" width="36" height="18"/>
			<rect x="0" y="774" width="36" height="18" class="st2"/>
			<text x="4.03" y="786.08" class="st3" v:langID="1033"><v:paragraph v:horizAlign="1"/><v:tabList/>A (7,<tspan
						class="st5" v:langID="2060">6</tspan><tspan class="st5">)</tspan></text>		</g>
		<g id="shape171-126" v:mID="171" v:groupContext="shape" transform="translate(190.885,-609.611)">
			<title>Sheet.171</title>
		</g>
		<g id="shape172-127" v:mID="172" v:groupContext="shape" transform="translate(144,-576)">
			<title>Sheet.172</title>
			<desc>H,I,J,K</desc>
			<v:textBlock v:margins="rect(0,0,0,0)"/>
			<v:textRect cx="18" cy="783" width="36" height="18"/>
			<rect x="0" y="774" width="36" height="18" class="st2"/>
			<text x="5.19" y="786" class="st3" v:langID="1033"><v:paragraph v:horizAlign="1"/><v:tabList/>H,I,J,K</text>		</g>
		<g id="shape173-130" v:mID="173" v:groupContext="shape" transform="translate(87.75,-573.75)">
			<title>Sheet.173</title>
			<ellipse cx="2.25" cy="789.75" rx="2.25" ry="2.25" class="st4"/>
		</g>
		<g id="shape174-132" v:mID="174" v:groupContext="shape" transform="translate(90,-567)">
			<title>Sheet.174</title>
			<desc>C (1,4)</desc>
			<v:textBlock v:margins="rect(0,0,0,0)"/>
			<v:textRect cx="18" cy="783" width="36" height="18"/>
			<rect x="0" y="774" width="36" height="18" class="st2"/>
			<text x="4.71" y="786.08" class="st3" v:langID="2060"><v:paragraph v:horizAlign="1"/><v:tabList/>C<tspan class="st5"
						v:langID="1033"> </tspan><tspan class="st5" v:langID="1033">(1,</tspan><tspan class="st5">4</tspan><tspan
						class="st5" v:langID="1033">)</tspan></text>		</g>
	</g>
</svg>
