<?xml version="1.0" encoding="UTF-8" standalone="no"?>
<!DOCTYPE svg PUBLIC "-//W3C//DTD SVG 1.1//EN" "http://www.w3.org/Graphics/SVG/1.1/DTD/svg11.dtd">
<!-- Généré par Microsoft Visio, SVG Export aggregation.svg Aggreg -->
<svg xmlns="http://www.w3.org/2000/svg" xmlns:xlink="http://www.w3.org/1999/xlink" xmlns:ev="http://www.w3.org/2001/xml-events"
		width="8.26772in" height="11.6929in" viewBox="0 0 595.276 841.89" xml:space="preserve" color-interpolation-filters="sRGB"
		class="st12">
	<title>Aggregation</title>

	<style type="text/css">
	<![CDATA[
		.st1 {fill:#eeeaf2;stroke:#000000;stroke-linecap:round;stroke-linejoin:round;stroke-width:0.24}
		.st2 {stroke:#000000;stroke-linecap:round;stroke-linejoin:round;stroke-width:0.24}
		.st3 {fill:#f2dcda;stroke:#000000;stroke-linecap:round;stroke-linejoin:round;stroke-width:0.24}
		.st4 {fill:#000000;font-family:Arial;font-size:0.666664em}
		.st5 {fill:#ffffff;stroke:#000000;stroke-linecap:round;stroke-linejoin:round;stroke-width:0.24}
		.st6 {fill:none;stroke:none;stroke-linecap:round;stroke-linejoin:round;stroke-width:0.24}
		.st7 {fill:#e5b9b5;stroke:#000000;stroke-linecap:round;stroke-linejoin:round;stroke-width:0.24}
		.st8 {fill:#d9958f;stroke:#000000;stroke-linecap:round;stroke-linejoin:round;stroke-width:0.24}
		.st9 {fill:none;stroke:#000000;stroke-linecap:round;stroke-linejoin:round;stroke-width:0.24}
		.st10 {font-size:1em}
		.st11 {fill:#1f477d;stroke:#1f477d;stroke-linecap:round;stroke-linejoin:round;stroke-width:0.24}
		.st12 {fill:none;fill-rule:evenodd;font-size:12px;overflow:visible;stroke-linecap:square;stroke-miterlimit:3}
	]]>
	</style>

	<g>
		<title>Aggreg</title>
		<g id="group1-1" transform="translate(306,-522)">
			<title>Feuille.1</title>
			<g id="shape2-2">
				<title>Feuille.2</title>
				<rect x="0" y="823.89" width="144" height="18" class="st1"/>
			</g>
			<g id="shape3-4" transform="translate(904.89,823.89) rotate(90)">
				<title>Feuille.3</title>
				<path d="M0 841.89 L18 841.89" class="st2"/>
			</g>
			<g id="shape4-7" transform="translate(913.556,823.89) rotate(90)">
				<title>Feuille.4</title>
				<path d="M0 841.89 L18 841.89" class="st2"/>
			</g>
			<g id="shape5-10" transform="translate(922.89,823.89) rotate(90)">
				<title>Feuille.5</title>
				<path d="M0 841.89 L18 841.89" class="st2"/>
			</g>
			<g id="shape6-13" transform="translate(949.556,823.89) rotate(90)">
				<title>Feuille.6</title>
				<path d="M0 841.89 L18 841.89" class="st2"/>
			</g>
			<g id="shape7-16" transform="translate(967.89,823.89) rotate(90)">
				<title>Feuille.7</title>
				<path d="M0 841.89 L18 841.89" class="st2"/>
			</g>
			<g id="shape8-19" transform="translate(958.89,823.89) rotate(90)">
				<title>Feuille.8</title>
				<path d="M0 841.89 L18 841.89" class="st2"/>
			</g>
			<g id="shape9-22" transform="translate(976.89,823.89) rotate(90)">
				<title>Feuille.9</title>
				<path d="M0 841.89 L18 841.89" class="st2"/>
			</g>
			<g id="shape10-25" transform="translate(931.223,823.89) rotate(90)">
				<title>Feuille.10</title>
				<path d="M0 841.89 L18 841.89" class="st2"/>
			</g>
			<g id="shape11-28" transform="translate(886.89,823.89) rotate(90)">
				<title>Feuille.11</title>
				<path d="M0 841.89 L18 841.89" class="st2"/>
			</g>
			<g id="shape12-31" transform="translate(877.89,823.89) rotate(90)">
				<title>Feuille.12</title>
				<path d="M0 841.89 L18 841.89" class="st2"/>
			</g>
			<g id="shape13-34" transform="translate(868.89,823.89) rotate(90)">
				<title>Feuille.13</title>
				<path d="M0 841.89 L18 841.89" class="st2"/>
			</g>
			<g id="shape14-37" transform="translate(859.89,823.89) rotate(90)">
				<title>Feuille.14</title>
				<path d="M0 841.89 L18 841.89" class="st2"/>
			</g>
			<g id="shape15-40" transform="translate(850.89,823.89) rotate(90)">
				<title>Feuille.15</title>
				<path d="M0 841.89 L18 841.89" class="st2"/>
			</g>
			<g id="shape16-43" transform="translate(940.89,823.89) rotate(90)">
				<title>Feuille.16</title>
				<path d="M0 841.89 L18 841.89" class="st2"/>
			</g>
		</g>
		<g id="shape17-46" transform="translate(1202.06,301.89) rotate(90)">
			<title>Feuille.17</title>
			<path d="M0 841.89 L18 841.89" class="st2"/>
		</g>
		<g id="shape21-49" transform="translate(342,-486)">
			<title>Feuille.21</title>
			<desc>State</desc>
			<rect x="0" y="823.89" width="22.5" height="18" class="st3"/>
			<text x="1.91" y="835.29" class="st4">State</text>		</g>
		<g id="shape26-52" transform="translate(324,-510.75)">
			<title>Feuille.26</title>
			<path d="M2.25 832.89 L2.25 837.39 L0 837.39 L3.94 841.89 L7.88 837.39 L5.63 837.39 L5.62 832.89 L2.25 832.89 Z"
					class="st5"/>
		</g>
		<g id="shape29-54" transform="translate(324,-486)">
			<title>Feuille.29</title>
			<rect x="0" y="823.89" width="9" height="18" class="st1"/>
		</g>
		<g id="shape30-56" transform="translate(-389.64,351.952) rotate(-90)">
			<title>Feuille.30</title>
			<path d="M2.25 832.89 L2.25 837.39 L0 837.39 L3.94 841.89 L7.88 837.39 L5.63 837.39 L5.62 832.89 L2.25 832.89 Z"
					class="st5"/>
		</g>
		<g id="shape32-58" transform="translate(333.094,-486)">
			<title>Feuille.32</title>
			<desc>+</desc>
			<rect x="0" y="823.89" width="8.90625" height="18" class="st6"/>
			<text x="2.12" y="835.29" class="st4">+</text>		</g>
		<g id="shape33-61" transform="translate(410.75,-486)">
			<title>Feuille.33</title>
			<desc>State</desc>
			<rect x="0" y="823.89" width="22.5" height="18" class="st7"/>
			<text x="1.91" y="835.29" class="st4">State</text>		</g>
		<g id="shape34-64" transform="translate(454.5,-486)">
			<title>Feuille.34</title>
			<desc>State</desc>
			<rect x="0" y="823.89" width="22.5" height="18" class="st8"/>
			<text x="1.91" y="835.29" class="st4">State</text>		</g>
		<g id="shape37-67" transform="translate(319.5,-481.5)">
			<title>Feuille.37</title>
			<rect x="0" y="814.89" width="49.5" height="27" class="st9"/>
		</g>
		<g id="shape38-69" transform="translate(319.5,-459)">
			<title>Feuille.38</title>
			<desc>Transition Function</desc>
			<rect x="0" y="819.39" width="49.5" height="22.5" class="st6"/>
			<text x="7.19" y="828.64" class="st4">Transition <tspan x="9.41" dy="1em" class="st10">Function</tspan></text>		</g>
		<g id="shape39-73" transform="translate(276.75,-486)">
			<title>Feuille.39</title>
			<desc>State</desc>
			<rect x="0" y="823.89" width="22.5" height="18" class="st5"/>
			<text x="1.91" y="835.29" class="st4">State</text>		</g>
		<g id="shape40-76" transform="translate(276.75,-459)">
			<title>Feuille.40</title>
			<desc>Initial State</desc>
			<rect x="0" y="819.39" width="22.5" height="22.5" class="st6"/>
			<text x="1.91" y="828.64" class="st4">Initial <tspan x="1.91" dy="1em" class="st10">State</tspan></text>		</g>
		<g id="group48-80" transform="translate(301.5,-491.062)">
			<title>Feuille.48</title>
			<g id="shape41-81" transform="translate(-832.89,841.89) rotate(-90)">
				<title>Feuille.41</title>
				<path d="M2.25 832.89 L2.25 837.39 L0 837.39 L3.94 841.89 L7.88 837.39 L5.63 837.39 L5.62 832.89 L2.25 832.89 Z"
						class="st5"/>
			</g>
			<g id="group45-83" transform="translate(10.7578,-3.51563)">
				<title>Feuille.45</title>
				<g id="shape42-84">
					<title>Feuille.42</title>
					<ellipse cx="0.492188" cy="841.398" rx="0.492188" ry="0.492188" class="st11"/>
				</g>
				<g id="shape43-86" transform="translate(2.03905,-1.13687E-13)">
					<title>Feuille.43</title>
					<ellipse cx="0.492188" cy="841.398" rx="0.492188" ry="0.492188" class="st11"/>
				</g>
				<g id="shape44-88" transform="translate(4.0078,-1.13687E-13)">
					<title>Feuille.44</title>
					<ellipse cx="0.492188" cy="841.398" rx="0.492188" ry="0.492188" class="st11"/>
				</g>
			</g>
		</g>
		<g id="shape62-90" transform="translate(405,-481.5)">
			<title>Feuille.62</title>
			<rect x="0" y="814.89" width="34.875" height="27" class="st9"/>
		</g>
		<g id="shape63-92" transform="translate(405,-459)">
			<title>Feuille.63</title>
			<desc>Final Function</desc>
			<rect x="0" y="819.39" width="34.875" height="22.5" class="st6"/>
			<text x="8.77" y="828.64" class="st4">Final <tspan x="2.1" dy="1em" class="st10">Function</tspan></text>		</g>
		<g id="group65-96" transform="translate(373.5,-491.062)">
			<title>Feuille.65</title>
			<g id="shape57-97" transform="translate(-832.89,841.89) rotate(-90)">
				<title>Feuille.57</title>
				<path d="M2.25 832.89 L2.25 837.39 L0 837.39 L3.94 841.89 L7.88 837.39 L5.63 837.39 L5.62 832.89 L2.25 832.89 Z"
						class="st5"/>
			</g>
			<g id="group58-99" transform="translate(10.7578,-3.51563)">
				<title>Feuille.58</title>
				<g id="shape59-100">
					<title>Feuille.59</title>
					<ellipse cx="0.492188" cy="841.398" rx="0.492188" ry="0.492188" class="st11"/>
				</g>
				<g id="shape60-102" transform="translate(2.03905,-1.13687E-13)">
					<title>Feuille.60</title>
					<ellipse cx="0.492188" cy="841.398" rx="0.492188" ry="0.492188" class="st11"/>
				</g>
				<g id="shape61-104" transform="translate(4.0078,-1.13687E-13)">
					<title>Feuille.61</title>
					<ellipse cx="0.492188" cy="841.398" rx="0.492188" ry="0.492188" class="st11"/>
				</g>
			</g>
			<g id="shape64-106" transform="translate(-814.89,841.89) rotate(-90)">
				<title>Feuille.64</title>
				<path d="M2.25 832.89 L2.25 837.39 L0 837.39 L3.94 841.89 L7.88 837.39 L5.63 837.39 L5.62 832.89 L2.25 832.89 Z"
						class="st5"/>
			</g>
		</g>
		<g id="shape66-108" transform="translate(455.667,-459)">
			<title>Feuille.66</title>
			<desc>FinalState</desc>
			<rect x="0" y="819.39" width="22.5" height="22.5" class="st6"/>
			<text x="2.58" y="828.64" class="st4">Final<tspan x="1.91" dy="1em" class="st10">State</tspan></text>		</g>
	</g>
</svg>
