<?xml version="1.0" encoding="UTF-8" standalone="no"?>
<!-- Generator: Adobe Illustrator 16.0.0, SVG Export Plug-In . SVG Version: 6.00 Build 0)  -->

<svg
   xmlns:dc="http://purl.org/dc/elements/1.1/"
   xmlns:cc="http://creativecommons.org/ns#"
   xmlns:rdf="http://www.w3.org/1999/02/22-rdf-syntax-ns#"
   xmlns:svg="http://www.w3.org/2000/svg"
   xmlns="http://www.w3.org/2000/svg"
   xmlns:sodipodi="http://sodipodi.sourceforge.net/DTD/sodipodi-0.dtd"
   xmlns:inkscape="http://www.inkscape.org/namespaces/inkscape"
   version="1.1"
   id="Capa_1"
   x="0px"
   y="0px"
   width="128"
   height="128"
   viewBox="0 0 128 128.00001"
   xml:space="preserve"
   sodipodi:docname="python.svg"
   inkscape:version="0.92.3 (2405546, 2018-03-11)"><metadata
   id="metadata43"><rdf:RDF><cc:Work
       rdf:about=""><dc:format>image/svg+xml</dc:format><dc:type
         rdf:resource="http://purl.org/dc/dcmitype/StillImage" /><dc:title></dc:title></cc:Work></rdf:RDF></metadata><defs
   id="defs41"><inkscape:perspective
     sodipodi:type="inkscape:persp3d"
     inkscape:vp_x="0 : 71.981748 : 1"
     inkscape:vp_y="0 : 1000 : 0"
     inkscape:vp_z="128 : 71.981748 : 1"
     inkscape:persp3d-origin="64 : 47.987833 : 1"
     id="perspective835" /></defs><sodipodi:namedview
   pagecolor="#ffffff"
   bordercolor="#666666"
   borderopacity="1"
   objecttolerance="10"
   gridtolerance="10"
   guidetolerance="10"
   inkscape:pageopacity="0"
   inkscape:pageshadow="2"
   inkscape:window-width="1680"
   inkscape:window-height="997"
   id="namedview39"
   showgrid="false"
   inkscape:zoom="1.4077326"
   inkscape:cx="73.27514"
   inkscape:cy="60.132557"
   inkscape:window-x="-8"
   inkscape:window-y="-8"
   inkscape:window-maximized="1"
   inkscape:current-layer="g4"
   fit-margin-top="0"
   fit-margin-left="0"
   fit-margin-right="0"
   fit-margin-bottom="0" />
<g
   id="g6"
   transform="matrix(0.02530019,0,0,0.02530019,189.54857,52.972462)"
   style="stroke-width:39.52539825">
	<g
   id="g4"
   style="stroke-width:316.20315552;stroke-miterlimit:4;stroke-dasharray:none"
   transform="translate(-89.341532,198.53684)">
		
	<path
   d="m -4873.0154,-2292.2943 c -446.424,0 -749.3192,106.574 -941.7906,261.2109 -192.3611,154.637 -268.0301,353.5976 -268.0301,519.0131 v 539.57996 h 1099.8368 v 109.98387 H -6622.416 c -201.0505,0 -405.1802,87.2169 -549.9187,271.5497 -144.8483,184.3329 -230.306,459.292 -230.306,828.2877 0,368.99514 85.4577,643.95424 230.306,828.28717 144.7385,184.3323 348.8682,271.5498 549.9187,271.5498 h 539.5799 v 649.5637 c 0,165.4156 75.669,364.3762 268.1399,519.0132 192.472,154.6369 495.147,261.2115 941.6808,261.2115 446.424,0 749.3191,-106.5746 941.7906,-261.2115 192.4714,-154.637 268.0301,-353.5976 268.0301,-519.0132 v -539.5805 h -1099.8369 v -109.9832 h 1639.4173 c 201.0498,0 405.1796,-87.2175 549.9181,-271.5498 144.8488,-184.33293 230.3059,-459.29203 230.3059,-828.28717 0,-368.9957 -85.4571,-643.9548 -230.3059,-828.2877 -144.7385,-184.3328 -348.8683,-271.5497 -549.9181,-271.5497 h -539.5804 v -649.56383 c 0,-169.7044 -75.2286,-369.1048 -268.1399,-522.4223 -192.6917,-153.4274 -495.5868,-257.8017 -941.6808,-257.8017 z m 0,219.9671 c 411.9988,0 661.6618,96.2358 804.3111,209.6289 142.4284,113.5036 185.5424,245.2638 185.5424,350.628 v 1309.46573 a 329.95111,329.95111 0 0 1 -329.9509,329.9516 h -1319.8046 c -226.4569,0 -421.458,139.6792 -505.2657,336.88 a 528.36172,528.36172 0 0 0 -34.3148,103.05494 545.73914,545.73914 0 0 0 -10.3376,109.9832 v 439.93553 h -539.5799 c -139.6792,0 -269.0201,-54.5521 -374.6047,-189.06222 -105.8047,-134.29041 -185.6535,-356.12721 -185.6535,-690.80755 0,-334.6803 79.9586,-556.4079 185.6529,-690.8081 105.4742,-134.5101 234.9255,-189.0616 374.6047,-189.0616 h 1859.3844 v -549.91873 h -1099.8368 v -319.6128 c 0,-98.4353 42.5632,-232.5055 185.6523,-347.1083 142.9787,-114.823 392.6417,-213.1486 804.2007,-213.1486 z m -549.9187,329.951 c -121.2018,0 -219.9672,98.7654 -219.9672,219.9677 0,121.2017 98.7654,219.9671 219.9672,219.9671 121.2023,0 219.9677,-98.7654 219.9677,-219.9671 0,-121.2023 -98.7654,-219.9677 -219.9677,-219.9677 z m 1759.7394,1099.83743 h 539.5804 c 139.6791,0 269.0201,54.5515 374.7138,189.0616 105.5846,134.2904 185.5425,356.1278 185.5425,690.8081 0,334.68034 -79.9579,556.40734 -185.6523,690.80755 -105.5839,134.51012 -234.9249,189.06222 -374.604,189.06222 h -1859.385 v 549.9182 h 1099.8374 v 319.6127 c 0,98.4354 -42.5638,232.5056 -185.6528,347.2182 -142.9787,114.6034 -392.6418,213.0388 -804.2007,213.0388 -411.559,0 -661.222,-98.4354 -804.3105,-213.1486 -142.9793,-114.6028 -185.5425,-248.673 -185.5425,-346.9986 V 677.26517 a 331.05096,331.05096 0 0 1 329.951,-329.95094 h 1319.8046 c 302.0149,0 549.9181,-247.9033 549.9181,-549.9188 z m -659.902,2419.64147 c -121.2023,0 -219.9677,98.7654 -219.9677,219.9672 0,121.2023 98.7654,219.9677 219.9677,219.9677 121.2017,0 219.9671,-98.7654 219.9671,-219.9677 0,-121.2018 -98.7654,-219.9672 -219.9671,-219.9672 z"
   id="surface1"
   inkscape:connector-curvature="0"
   style="fill:#000000;stroke-width:237.15808105" /></g>
</g>
<g
   id="g8"
   transform="matrix(0.02530019,0,0,0.02530019,189.54857,52.972462)"
   style="stroke-width:39.52539825">
</g>
<g
   id="g10"
   transform="matrix(0.02530019,0,0,0.02530019,189.54857,52.972462)"
   style="stroke-width:39.52539825">
</g>
<g
   id="g12"
   transform="matrix(0.02530019,0,0,0.02530019,189.54857,52.972462)"
   style="stroke-width:39.52539825">
</g>
<g
   id="g14"
   transform="matrix(0.02530019,0,0,0.02530019,189.54857,52.972462)"
   style="stroke-width:39.52539825">
</g>
<g
   id="g16"
   transform="matrix(0.02530019,0,0,0.02530019,189.54857,52.972462)"
   style="stroke-width:39.52539825">
</g>
<g
   id="g18"
   transform="matrix(0.02530019,0,0,0.02530019,189.54857,52.972462)"
   style="stroke-width:39.52539825">
</g>
<g
   id="g20"
   transform="matrix(0.02530019,0,0,0.02530019,189.54857,52.972462)"
   style="stroke-width:39.52539825">
</g>
<g
   id="g22"
   transform="matrix(0.02530019,0,0,0.02530019,189.54857,52.972462)"
   style="stroke-width:39.52539825">
</g>
<g
   id="g24"
   transform="matrix(0.02530019,0,0,0.02530019,189.54857,52.972462)"
   style="stroke-width:39.52539825">
</g>
<g
   id="g26"
   transform="matrix(0.02530019,0,0,0.02530019,189.54857,52.972462)"
   style="stroke-width:39.52539825">
</g>
<g
   id="g28"
   transform="matrix(0.02530019,0,0,0.02530019,189.54857,52.972462)"
   style="stroke-width:39.52539825">
</g>
<g
   id="g30"
   transform="matrix(0.02530019,0,0,0.02530019,189.54857,52.972462)"
   style="stroke-width:39.52539825">
</g>
<g
   id="g32"
   transform="matrix(0.02530019,0,0,0.02530019,189.54857,52.972462)"
   style="stroke-width:39.52539825">
</g>
<g
   id="g34"
   transform="matrix(0.02530019,0,0,0.02530019,189.54857,52.972462)"
   style="stroke-width:39.52539825">
</g>
<g
   id="g36"
   transform="matrix(0.02530019,0,0,0.02530019,189.54857,52.972462)"
   style="stroke-width:39.52539825">
</g>
</svg>