<?xml version="1.0" encoding="UTF-8" standalone="no"?>
<!DOCTYPE svg PUBLIC "-//W3C//DTD SVG 1.0//EN" "http://www.w3.org/TR/2001/REC-SVG-20010904/DTD/svg10.dtd">
<!-- Generated by Microsoft Visio 11.0, SVG Export, v1.0 delete.svg Page-1 -->
<svg xmlns="http://www.w3.org/2000/svg" xmlns:xlink="http://www.w3.org/1999/xlink" xmlns:ev="http://www.w3.org/2001/xml-events"
		xmlns:v="http://schemas.microsoft.com/visio/2003/SVGExtensions/" width="2.63167in" height="1.78792in"
		viewBox="0 0 189.48 128.73" xml:space="preserve" color-interpolation-filters="sRGB" class="st10">
	<title>figure12</title>
	<v:documentProperties v:langID="2060" v:viewMarkup="false"/>

	<style type="text/css">
	<![CDATA[
		.st1 {fill:#eeeaf2;stroke:#000000;stroke-linecap:round;stroke-linejoin:round;stroke-width:0.24}
		.st2 {stroke:#000000;stroke-linecap:round;stroke-linejoin:round;stroke-width:0.24}
		.st3 {stroke:#000000;stroke-linecap:round;stroke-linejoin:round;stroke-width:0.5}
		.st4 {marker-end:url(#mrkr5-116);stroke:#000000;stroke-linecap:round;stroke-linejoin:round;stroke-width:0.24}
		.st5 {fill:#000000;fill-opacity:1;stroke:#000000;stroke-opacity:1;stroke-width:0.11764705882353}
		.st6 {fill:none;stroke:none;stroke-linecap:round;stroke-linejoin:round;stroke-width:0.24}
		.st7 {fill:#000000;font-family:Arial;font-size:0.666664em}
		.st8 {stroke:#000000;stroke-dasharray:1.68,1.2;stroke-linecap:round;stroke-linejoin:round;stroke-width:0.24}
		.st9 {fill:#ffffff;stroke:#000000;stroke-linecap:round;stroke-linejoin:round;stroke-width:0.24}
		.st10 {fill:none;fill-rule:evenodd;font-size:12px;overflow:visible;stroke-linecap:square;stroke-miterlimit:3}
	]]>
	</style>

	<defs id="Markers">
		<g id="lend5">
			<path d="M 2 1 L 0 0 L 1.98117 -0.993387 C 1.67173 -0.364515 1.67301 0.372641 1.98465 1.00043 " style="stroke:none"/>
		</g>
		<marker id="mrkr5-116" class="st5" v:arrowType="5" v:arrowSize="1" v:setback="14.875" refX="-14.875" orient="auto"
				markerUnits="strokeWidth" overflow="visible">
			<use xlink:href="#lend5" transform="scale(-8.5,-8.5) "/>
		</marker>
	</defs>
	<g v:mID="0" v:index="1" v:groupContext="foregroundPage">
		<title>Page-1</title>
		<v:pageProperties v:drawingScale="1" v:pageScale="1" v:drawingUnits="19" v:shadowOffsetX="7.2" v:shadowOffsetY="-7.2"/>
		<g id="shape415-1" v:mID="415" v:groupContext="shape" transform="translate(18.24,-85.74)">
			<title>Sheet.415</title>
			<rect x="0" y="110.73" width="144" height="18" class="st1"/>
		</g>
		<g id="shape2-3" v:mID="2" v:groupContext="shape" transform="translate(209.97,24.99) rotate(90)">
			<title>Sheet.2</title>
			<path d="M0 128.73 L18 128.73" class="st2"/>
		</g>
		<g id="shape3-6" v:mID="3" v:groupContext="shape" transform="translate(218.637,24.99) rotate(90)">
			<title>Sheet.3</title>
			<path d="M0 128.73 L18 128.73" class="st2"/>
		</g>
		<g id="shape4-9" v:mID="4" v:groupContext="shape" transform="translate(227.97,24.99) rotate(90)">
			<title>Sheet.4</title>
			<path d="M0 128.73 L18 128.73" class="st2"/>
		</g>
		<g id="shape6-12" v:mID="6" v:groupContext="shape" transform="translate(254.637,24.99) rotate(90)">
			<title>Sheet.6</title>
			<path d="M0 128.73 L18 128.73" class="st2"/>
		</g>
		<g id="shape7-15" v:mID="7" v:groupContext="shape" transform="translate(272.97,24.99) rotate(90)">
			<title>Sheet.7</title>
			<path d="M0 128.73 L18 128.73" class="st2"/>
		</g>
		<g id="shape8-18" v:mID="8" v:groupContext="shape" transform="translate(263.97,24.99) rotate(90)">
			<title>Sheet.8</title>
			<path d="M0 128.73 L18 128.73" class="st2"/>
		</g>
		<g id="shape10-21" v:mID="10" v:groupContext="shape" transform="translate(281.97,24.99) rotate(90)">
			<title>Sheet.10</title>
			<path d="M0 128.73 L18 128.73" class="st2"/>
		</g>
		<g id="shape11-24" v:mID="11" v:groupContext="shape" transform="translate(236.303,24.99) rotate(90)">
			<title>Sheet.11</title>
			<path d="M0 128.73 L18 128.73" class="st2"/>
		</g>
		<g id="shape12-27" v:mID="12" v:groupContext="shape" transform="translate(191.97,24.99) rotate(90)">
			<title>Sheet.12</title>
			<path d="M0 128.73 L18 128.73" class="st2"/>
		</g>
		<g id="shape13-30" v:mID="13" v:groupContext="shape" transform="translate(182.97,24.99) rotate(90)">
			<title>Sheet.13</title>
			<path d="M0 128.73 L18 128.73" class="st2"/>
		</g>
		<g id="shape14-33" v:mID="14" v:groupContext="shape" transform="translate(173.97,24.99) rotate(90)">
			<title>Sheet.14</title>
			<path d="M0 128.73 L18 128.73" class="st2"/>
		</g>
		<g id="shape15-36" v:mID="15" v:groupContext="shape" transform="translate(164.97,24.99) rotate(90)">
			<title>Sheet.15</title>
			<path d="M0 128.73 L18 128.73" class="st2"/>
		</g>
		<g id="shape16-39" v:mID="16" v:groupContext="shape" transform="translate(155.97,24.99) rotate(90)">
			<title>Sheet.16</title>
			<path d="M0 128.73 L18 128.73" class="st2"/>
		</g>
		<g id="shape409-42" v:mID="409" v:groupContext="shape" transform="translate(245.97,24.99) rotate(90)">
			<title>Sheet.409</title>
			<path d="M0 128.73 L18 128.73" class="st2"/>
		</g>
		<g id="shape418-45" v:mID="418" v:groupContext="shape" transform="translate(18.24,-4.74)">
			<title>Sheet.418</title>
			<rect x="0" y="110.73" width="171" height="18" class="st1"/>
		</g>
		<g id="shape417-47" v:mID="417" v:groupContext="shape" transform="translate(130.74,-31.74)">
			<title>Sheet.417</title>
			<rect x="0" y="110.73" width="27" height="18" class="st1"/>
		</g>
		<g id="shape416-49" v:mID="416" v:groupContext="shape" transform="translate(18.24,-31.74)">
			<title>Sheet.416</title>
			<rect x="0" y="110.73" width="76.5" height="18" class="st1"/>
		</g>
		<g id="shape17-51" v:mID="17" v:groupContext="shape" transform="translate(223.47,49.74) rotate(90)">
			<title>Sheet.17</title>
			<path d="M0 128.73 L4.5 128.73" class="st3"/>
		</g>
		<g id="shape18-54" v:mID="18" v:groupContext="shape" transform="translate(94.74,-76.74)">
			<title>Sheet.18</title>
			<path d="M0 128.73 L36 128.73" class="st3"/>
		</g>
		<g id="shape19-57" v:mID="19" v:groupContext="shape" transform="translate(259.47,49.74) rotate(90)">
			<title>Sheet.19</title>
			<path d="M0 128.73 L4.5 128.73" class="st3"/>
		</g>
		<g id="shape22-60" v:mID="22" v:groupContext="shape" transform="translate(272.637,78.99) rotate(90)">
			<title>Sheet.22</title>
			<path d="M0 128.73 L18 128.73" class="st2"/>
		</g>
		<g id="shape23-63" v:mID="23" v:groupContext="shape" transform="translate(164.97,78.99) rotate(90)">
			<title>Sheet.23</title>
			<path d="M0 128.73 L18 128.73" class="st2"/>
		</g>
		<g id="shape24-66" v:mID="24" v:groupContext="shape" transform="translate(281.97,78.99) rotate(90)">
			<title>Sheet.24</title>
			<path d="M0 128.73 L18 128.73" class="st2"/>
		</g>
		<g id="shape27-69" v:mID="27" v:groupContext="shape" transform="translate(200.97,78.99) rotate(90)">
			<title>Sheet.27</title>
			<path d="M0 128.73 L18 128.73" class="st2"/>
		</g>
		<g id="shape28-72" v:mID="28" v:groupContext="shape" transform="translate(191.97,78.99) rotate(90)">
			<title>Sheet.28</title>
			<path d="M0 128.73 L18 128.73" class="st2"/>
		</g>
		<g id="shape29-75" v:mID="29" v:groupContext="shape" transform="translate(182.97,78.99) rotate(90)">
			<title>Sheet.29</title>
			<path d="M0 128.73 L18 128.73" class="st2"/>
		</g>
		<g id="shape30-78" v:mID="30" v:groupContext="shape" transform="translate(173.97,78.99) rotate(90)">
			<title>Sheet.30</title>
			<path d="M0 128.73 L18 128.73" class="st2"/>
		</g>
		<g id="shape31-81" v:mID="31" v:groupContext="shape" transform="translate(155.97,78.99) rotate(90)">
			<title>Sheet.31</title>
			<path d="M0 128.73 L18 128.73" class="st2"/>
		</g>
		<g id="shape34-84" v:mID="34" v:groupContext="shape" transform="translate(263.97,105.99) rotate(90)">
			<title>Sheet.34</title>
			<path d="M0 128.73 L18 128.73" class="st2"/>
		</g>
		<g id="shape35-87" v:mID="35" v:groupContext="shape" transform="translate(282.303,105.99) rotate(90)">
			<title>Sheet.35</title>
			<path d="M0 128.73 L18 128.73" class="st2"/>
		</g>
		<g id="shape36-90" v:mID="36" v:groupContext="shape" transform="translate(273.303,105.99) rotate(90)">
			<title>Sheet.36</title>
			<path d="M0 128.73 L18 128.73" class="st2"/>
		</g>
		<g id="shape38-93" v:mID="38" v:groupContext="shape" transform="translate(308.97,105.99) rotate(90)">
			<title>Sheet.38</title>
			<path d="M0 128.73 L18 128.73" class="st2"/>
		</g>
		<g id="shape39-96" v:mID="39" v:groupContext="shape" transform="translate(192.137,105.99) rotate(90)">
			<title>Sheet.39</title>
			<path d="M0 128.73 L18 128.73" class="st2"/>
		</g>
		<g id="shape40-99" v:mID="40" v:groupContext="shape" transform="translate(183.137,105.99) rotate(90)">
			<title>Sheet.40</title>
			<path d="M0 128.73 L18 128.73" class="st2"/>
		</g>
		<g id="shape41-102" v:mID="41" v:groupContext="shape" transform="translate(174.137,105.99) rotate(90)">
			<title>Sheet.41</title>
			<path d="M0 128.73 L18 128.73" class="st2"/>
		</g>
		<g id="shape42-105" v:mID="42" v:groupContext="shape" transform="translate(165.137,105.99) rotate(90)">
			<title>Sheet.42</title>
			<path d="M0 128.73 L18 128.73" class="st2"/>
		</g>
		<g id="shape43-108" v:mID="43" v:groupContext="shape" transform="translate(155.97,105.99) rotate(90)">
			<title>Sheet.43</title>
			<path d="M0 128.73 L18 128.73" class="st2"/>
		</g>
		<g id="shape44-111" v:mID="44" v:groupContext="shape" transform="translate(18.24,-114.99)">
			<title>Sheet.44</title>
			<path d="M0 128.73 L32.43 128.73" class="st4"/>
		</g>
		<g id="shape45-117" v:mID="45" v:groupContext="shape" transform="translate(0.24,-31.74)">
			<title>Sheet.45</title>
			<desc>(1)</desc>
			<v:textBlock v:margins="rect(0,0,0,0)" v:tabSpace="42.5197"/>
			<v:textRect cx="9" cy="119.73" width="18" height="18"/>
			<rect x="0" y="110.73" width="18" height="18" class="st6"/>
			<text x="4.11" y="122.13" class="st7" v:langID="1036"><v:paragraph v:horizAlign="1"/><v:tabList/>(1)</text>		</g>
		<g id="shape49-120" v:mID="49" v:groupContext="shape" transform="translate(90.24,-114.99)">
			<title>Sheet.49</title>
			<desc>delete</desc>
			<v:textBlock v:margins="rect(0,0,0,0)" v:tabSpace="42.5197"/>
			<v:textRect cx="18" cy="121.98" width="36" height="13.5"/>
			<rect x="0" y="115.23" width="36" height="13.5" class="st6"/>
			<text x="7.1" y="124.38" class="st7" v:langID="1036"><v:paragraph v:horizAlign="1"/><v:tabList/>delete</text>		</g>
		<g id="shape410-123" v:mID="410" v:groupContext="shape" transform="translate(209.97,78.99) rotate(90)">
			<title>Sheet.410</title>
			<path d="M0 128.73 L18 128.73" class="st2"/>
		</g>
		<g id="shape411-126" v:mID="411" v:groupContext="shape" transform="translate(263.97,78.99) rotate(90)">
			<title>Sheet.411</title>
			<path d="M0 128.73 L18 128.73" class="st2"/>
		</g>
		<g id="shape412-129" v:mID="412" v:groupContext="shape" transform="translate(200.97,105.99) rotate(90)">
			<title>Sheet.412</title>
			<path d="M0 128.73 L18 128.73" class="st2"/>
		</g>
		<g id="shape47-132" v:mID="47" v:groupContext="shape" transform="translate(259.47,69.99) rotate(90)">
			<title>Sheet.47</title>
			<path d="M0 128.73 L58.5 128.73" class="st8"/>
		</g>
		<g id="shape431-135" v:mID="431" v:groupContext="shape" transform="translate(201.137,24.99) rotate(90)">
			<title>Sheet.431</title>
			<path d="M0 128.73 L18 128.73" class="st2"/>
		</g>
		<g id="shape432-138" v:mID="432" v:groupContext="shape" transform="translate(0.24,-4.74)">
			<title>Sheet.432</title>
			<desc>(2)</desc>
			<v:textBlock v:margins="rect(0,0,0,0)" v:tabSpace="42.5197"/>
			<v:textRect cx="9" cy="119.73" width="18" height="18"/>
			<rect x="0" y="110.73" width="18" height="18" class="st6"/>
			<text x="4.11" y="122.13" class="st7" v:langID="1036"><v:paragraph v:horizAlign="1"/><v:tabList/>(2)</text>		</g>
		<g id="shape456-141" v:mID="456" v:groupContext="shape" transform="translate(171.24,-85.74)">
			<title>Sheet.456</title>
			<rect x="0" y="110.73" width="18" height="18" class="st1"/>
		</g>
		<g id="shape457-143" v:mID="457" v:groupContext="shape" transform="translate(309.137,24.99) rotate(90)">
			<title>Sheet.457</title>
			<path d="M0 128.73 L18 128.73" class="st2"/>
		</g>
		<g id="shape459-146" v:mID="459" v:groupContext="shape" transform="translate(175.74,-31.74)">
			<title>Sheet.459</title>
			<rect x="0" y="110.73" width="13.5" height="18" class="st1"/>
		</g>
		<g id="shape460-148" v:mID="460" v:groupContext="shape" transform="translate(309.137,78.99) rotate(90)">
			<title>Sheet.460</title>
			<path d="M0 128.73 L18 128.73" class="st2"/>
		</g>
		<g id="shape464-151" v:mID="464" v:groupContext="shape" transform="translate(18.24,-114.99)">
			<title>Sheet.464</title>
			<desc>time</desc>
			<v:textBlock v:margins="rect(0,0,0,0)" v:tabSpace="42.5197"/>
			<v:textRect cx="18" cy="121.98" width="36" height="13.5"/>
			<rect x="0" y="115.23" width="36" height="13.5" class="st6"/>
			<text x="10.44" y="124.38" class="st7" v:langID="1036"><v:paragraph v:horizAlign="1"/><v:tabList/>time</text>		</g>
		<g id="shape46-154" v:mID="46" v:groupContext="shape" transform="translate(223.47,69.99) rotate(90)">
			<title>Sheet.46</title>
			<path d="M0 128.73 L58.5 128.73" class="st8"/>
		</g>
		<g id="shape423-157" v:mID="423" v:groupContext="shape" transform="translate(286.47,49.74) rotate(90)">
			<title>Sheet.423</title>
			<path d="M0 128.73 L4.5 128.73" class="st3"/>
		</g>
		<g id="shape424-160" v:mID="424" v:groupContext="shape" transform="translate(157.74,-76.74)">
			<title>Sheet.424</title>
			<path d="M0 128.73 L18 128.73" class="st3"/>
		</g>
		<g id="shape465-163" v:mID="465" v:groupContext="shape" transform="translate(304.47,49.74) rotate(90)">
			<title>Sheet.465</title>
			<path d="M0 128.73 L4.5 128.73" class="st3"/>
		</g>
		<g id="shape466-166" v:mID="466" v:groupContext="shape" transform="translate(304.47,69.99) rotate(90)">
			<title>Sheet.466</title>
			<path d="M0 128.73 L58.5 128.73" class="st8"/>
		</g>
		<g id="shape467-169" v:mID="467" v:groupContext="shape" transform="translate(286.47,69.99) rotate(90)">
			<title>Sheet.467</title>
			<path d="M0 128.73 L58.5 128.73" class="st8"/>
		</g>
		<g id="shape75-172" v:mID="75" v:groupContext="shape" transform="translate(218.97,78.99) rotate(90)">
			<title>Sheet.75</title>
			<path d="M0 128.73 L18 128.73" class="st2"/>
		</g>
		<g id="shape76-175" v:mID="76" v:groupContext="shape" transform="translate(209.97,105.99) rotate(90)">
			<title>Sheet.76</title>
			<path d="M0 128.73 L18 128.73" class="st2"/>
		</g>
		<g id="shape77-178" v:mID="77" v:groupContext="shape" transform="translate(218.97,105.99) rotate(90)">
			<title>Sheet.77</title>
			<path d="M0 128.73 L18 128.73" class="st2"/>
		</g>
		<g id="shape25-181" v:mID="25" v:groupContext="shape" transform="translate(85.74,-59.865)">
			<title>Sheet.25</title>
			<path d="M2.25 119.73 L2.25 124.23 L0 124.23 L3.94 128.73 L7.88 124.23 L5.63 124.23 L5.62 119.73 L2.25 119.73 Z"
					class="st9"/>
		</g>
		<g id="shape26-183" v:mID="26" v:groupContext="shape" transform="translate(91.24,-58.74)">
			<title>Sheet.26</title>
			<desc>result</desc>
			<v:textBlock v:margins="rect(0,0,0,0)" v:tabSpace="42.5197"/>
			<v:textRect cx="17.5" cy="123.105" width="35.01" height="11.25"/>
			<rect x="0" y="117.48" width="35" height="11.25" class="st6"/>
			<text x="7.72" y="125.5" class="st7" v:langID="2060"><v:paragraph v:horizAlign="1"/><v:tabList/>result</text>		</g>
	</g>
</svg>
