<?xml version="1.0" encoding="UTF-8" standalone="no"?>
<!-- Generator: Adobe Illustrator 22.1.0, SVG Export Plug-In . SVG Version: 6.00 Build 0)  -->

<svg
   xmlns:dc="http://purl.org/dc/elements/1.1/"
   xmlns:cc="http://creativecommons.org/ns#"
   xmlns:rdf="http://www.w3.org/1999/02/22-rdf-syntax-ns#"
   xmlns:svg="http://www.w3.org/2000/svg"
   xmlns="http://www.w3.org/2000/svg"
   xmlns:sodipodi="http://sodipodi.sourceforge.net/DTD/sodipodi-0.dtd"
   xmlns:inkscape="http://www.inkscape.org/namespaces/inkscape"
   version="1.1"
   id="Layer_1"
   x="0px"
   y="0px"
   viewBox="0 0 424 451"
   style="enable-background:new 0 0 424 451;"
   xml:space="preserve"
   inkscape:version="0.91 r13725"
   sodipodi:docname="textdown.svg"><metadata
     id="metadata3456"><rdf:RDF><cc:Work
         rdf:about=""><dc:format>image/svg+xml</dc:format><dc:type
           rdf:resource="http://purl.org/dc/dcmitype/StillImage" /></cc:Work></rdf:RDF></metadata><defs
     id="defs3454" /><sodipodi:namedview
     pagecolor="#ffffff"
     bordercolor="#666666"
     borderopacity="1"
     objecttolerance="10"
     gridtolerance="10"
     guidetolerance="10"
     inkscape:pageopacity="0"
     inkscape:pageshadow="2"
     inkscape:window-width="1920"
     inkscape:window-height="1027"
     id="namedview3452"
     showgrid="false"
     inkscape:zoom="1.902439"
     inkscape:cx="209.87179"
     inkscape:cy="225.5"
     inkscape:window-x="-8"
     inkscape:window-y="-8"
     inkscape:window-maximized="1"
     inkscape:current-layer="Layer_1" /><style
     type="text/css"
     id="style3402">
	.st0{fill:#5086B7;stroke:#FFFFFF;stroke-linecap:round;stroke-linejoin:round;stroke-miterlimit:10;}
	.st1{fill:#5086B7;stroke:#FFFFFF;stroke-width:0.6717;stroke-linecap:round;stroke-linejoin:round;stroke-miterlimit:10;}
	.st2{fill:#5086B7;stroke:#FFFFFF;stroke-miterlimit:10;}
	.st3{fill:#F15B25;}
	.st4{fill:#FFFFFF;}
	.st5{fill:none;stroke:#F15B25;stroke-width:5;stroke-linecap:round;stroke-linejoin:round;stroke-miterlimit:10;}
	.st6{fill:#5086B7;}
	.st7{font-family:'ArialNarrow';}
	.st8{font-size:67.6581px;}
</style><g
     id="g3404"><path
       class="st0"
       d="M378.5,98.4c-1.1,1.4-2.3,2.8-3.5,4.1c0,0-0.1,0.1-0.1,0.1c-23.7,24-59.1,29.4-88,16.1   c-5.2-2.4-10.2-5.4-14.9-9c3.9,4.2,8.3,8,12.9,11.2c-6.4,6.4-15.1,10.5-24.8,11.2c-0.8,0-1.5,0.1-2.3,0.1   c-13,0.1-24.5-6.1-31.7-15.8c5.8-1.9,10.6-6,13.5-11.3c1.9-3.5,3-7.5,2.9-11.7c-0.1-10.7-7.1-19.7-16.8-22.7   c7-9.8,18.4-16.3,31.4-16.4c17.6-0.1,32.5,11.4,37.5,27.3c18,11.8,42.1,10.2,58.4-4.7c0.4-0.2,0.7-0.4,1.1-0.6c0,0,0,0-0.1,0l0.1,0   c0,0,0,0,0,0c1.4-0.9,2.3-2.1,2.8-3.5c6.9-8.6,8.2-20.1,4.2-29.8c-1.3-3.2-3.3-6.2-5.8-8.9c-0.2-0.3-0.5-0.5-0.8-0.8   c-3.2-3.2-7.4-4.9-11.6-5.2c-1.5-0.1-3,0-4.5,0.2c-1.4,0.2-2.8,0.6-4.1,1.2c-2.1,0.9-4.1,2.2-5.9,4c-3.6,3.7-4.2,9.2-1.7,13.5   c0.5,0.9,1.1,1.7,1.9,2.5c1.2,1.2,2.8,1.9,4.4,2c2,0.2,4.1-0.5,5.6-2.1l0,0c0.1-0.2,0.3-0.3,0.4-0.5c0.7,0.3,1.5,0.5,2.3,0.6   c0.4,0.1,0.8,0.1,1.3,0.2c-0.3,0.8-0.8,1.6-1.5,2.2c0,0,0,0,0,0c-1,1-2.2,1.8-3.4,2.3c-0.7,0.3-1.5,0.6-2.3,0.7   c-2.6,0.6-5.3,0.2-7.7-1c-1-0.5-2-1.2-2.9-2.1c-7.2-7.1-7.3-18.6-0.3-25.8c0,0,0,0,0,0c10-10.2,25.5-11.6,37.1-4.4   c1.8,1.1,3.5,2.5,5.1,4.1c2.8,2.7,5.2,5.7,7.1,8.9c3.2,5.2,5.4,10.8,6.4,16.6c2.7,14.8-1.5,30.7-12.9,42.3c0,0-0.1,0.1-0.1,0.1   c-20.5,20.8-49.9,27.6-76.2,20.4C320,127,354.9,121.8,378.5,98.4z"
       id="path3406" /><path
       class="st1"
       d="M232.9,112.6c-0.3,0.2-0.6,0.4-0.9,0.6C232.3,113,232.6,112.8,232.9,112.6z"
       id="path3408" /><path
       class="st1"
       d="M235,110.8c-0.7,0.6-1.4,1.2-2.1,1.8C233.6,112,234.3,111.4,235,110.8z"
       id="path3410" /><path
       class="st2"
       d="M291.5,179.3l-11.8,20.8c-1.2,2.2-4,3-6.2,1.7l-13.7-7.8c-2.2-1.2-3-4-1.7-6.2l3.8-6.8   c0.9-1.5,0.3-3.5-1.2-4.3c-0.6,1.6-1.2,3.2-2,4.7c-0.7,1.6-1.5,3.1-2.4,4.6c-6.5,11.5-16.1,20.2-27.1,25.5   c-1.2,0.6-2.3,1.1-3.5,1.6c-1.9,0.8-3.8,1.5-5.8,2.1c2.7,1.5,3.7,4.9,2.4,7.7c-0.1,0.1-0.1,0.2-0.2,0.4l-14.8,26.1   c-0.5,0.8-1.2,1.5-1.9,1.8c-1.3,0.7-2.9,0.7-4.3-0.1l-13.7-7.8c-0.1,0-0.2-0.1-0.3-0.2c-2-1.3-2.7-4-1.5-6.1l3.8-6.8   c0.9-1.5,0.3-3.5-1.2-4.3l-26.5-15c-0.8-0.5-1.6-1.1-2.1-1.8c-1.6-2.1-1.9-5.1-0.5-7.5c-10.7-9.7-17.5-22.5-19.8-36.3   c-2.3-13.7-0.1-28.3,7.3-41.3c10.3-18.2,28.4-29.3,47.7-31.5c0,0.3,0,0.7,0,1.1c0.1,13.3,11,23.9,24.2,23.8c2.6,0,5.1-0.5,7.4-1.2   c7.2,9.7,18.7,16,31.7,15.8c0.8,0,1.5,0,2.3-0.1c1.6,4.2,2.8,8.5,3.6,12.9c0.3,1.7,0.5,3.5,0.6,5.2l22.7,12.9   C292.7,166.2,294.8,173.5,291.5,179.3z"
       id="path3412" /><path
       class="st0"
       d="M236.5,109.2c-0.1,0.1-0.2,0.3-0.4,0.4c-0.4,0.4-0.8,0.8-1.2,1.2c-0.7,0.6-1.4,1.2-2.1,1.8c0,0,0,0,0,0   c-0.3,0.2-0.6,0.4-0.9,0.6c-1.8,1.2-3.8,2.2-5.9,3c-2.3,0.8-4.8,1.2-7.4,1.2c-13.3,0.1-24.1-10.6-24.2-23.8c0-0.4,0-0.7,0-1.1   c0.4-12.8,10.9-23.1,23.8-23.2c2.6,0,5.1,0.4,7.4,1.1c9.7,3,16.7,12,16.8,22.7c0,4.3-1,8.2-2.9,11.7   C238.7,106.5,237.7,107.9,236.5,109.2z"
       id="path3414" /><line
       class="st0"
       x1="219.9"
       y1="215.3"
       x2="168.1"
       y2="186"
       id="line3416" /><line
       class="st0"
       x1="264.3"
       y1="150.1"
       x2="240.5"
       y2="136.6"
       id="line3418" /><line
       class="st0"
       x1="260.7"
       y1="176.7"
       x2="228.2"
       y2="158.3"
       id="line3420" /><path
       class="st0"
       d="M297.6,177.8l-11.8,20.8c-1.2,2.2-4,3-6.2,1.7l11.9-21.1c3.3-5.8,1.2-13.1-4.5-16.3l-22.7-12.9   c-0.1-1.8-0.4-3.5-0.6-5.2l29.4,16.7C298.8,164.8,300.9,172.1,297.6,177.8z"
       id="path3422" /><path
       class="st3"
       d="M161.8,211.1c-0.8-0.5-1.6-1.1-2.1-1.8l-3.8,0c-3.9,0-7.1,3.3-7.1,7.2c0,2.6,1.5,4.9,3.6,6.1   c1.1,0.6,2.3,0.9,3.6,0.9l27.3-0.2L161.8,211.1z M376.7,295.4c-5.2-26-28.1-44.7-54.6-44.5c-3.4,0-6.9,0.4-10.3,1.1   c-2.4,0.5-4.8,1.1-7.1,1.9l-11.4-26.5l-1-2.4l-8.4-19.5c-0.6-1.4-2.2-2.1-3.6-1.6c-0.9,0.4-1.4,1.2-1.5,2.1l-21.7,0.2   c-1.4,0-2.6,1.2-2.6,2.6c0,1,0.5,1.8,1.3,2.2c0.4,0.2,0.8,0.3,1.3,0.3l23.5-0.2l5.8,13.4l-60,0.5l-3,5.3l65.3-0.6l4.8,11.2   l-61.1,61.3c-1.1-0.8-2.2-1.5-3.5-2.1c1.4-4.2,2.2-6.5,2.7-7.8l4.2,0c0.9,0,1.6-0.8,1.6-1.7c0-0.9-0.8-1.6-1.7-1.6l-11.3,0.1   c-0.9,0-1.6,0.8-1.6,1.7c0,0.9,0.8,1.6,1.7,1.6l3.7,0c-0.5,1.4-1.3,3.6-2.3,6.8c-1.4-0.4-2.9-0.5-4.5-0.5c-0.5,0-1,0-1.6,0.1   l-14.6-47.6c-1.3,0.7-2.9,0.7-4.3-0.1l-1.6-0.9l15.3,49.9c-0.4,0.2-0.8,0.3-1.2,0.5l-5.4,0.6c-1.6-16.9-10.8-31.6-24.1-40.6   l7.6-14.8l-4.4-2.5c-0.1,0-0.2-0.1-0.3-0.2l-7.5,14.6c-8-4.4-17.1-6.8-26.8-6.7c-30.5,0.3-55,25.2-54.8,55.7   c0.3,30.5,25.2,55,55.7,54.8c22.7-0.2,42.1-14.1,50.4-33.8l5.8,2.2c1.3,1.2,2.9,2.1,4.5,2.9c-0.7,2.2-1.5,4.7-2.5,7.5l-4.4,0   c-0.9,0-1.6,0.8-1.6,1.7c0,0.9,0.8,1.6,1.7,1.6l5.5,0l5.8,0c0.9,0,1.6-0.8,1.6-1.7c0-0.9-0.8-1.6-1.7-1.6l-3.5,0   c0.8-2.4,1.5-4.5,2.1-6.5c1.4,0.3,2.8,0.5,4.3,0.5c4.5,0,8.8-1.8,12.1-4.9c3.6-3.4,5.6-8.2,5.6-13.1c0-3.8-1.3-7.3-3.3-10.2   l59.6-59.9l4.1,9.4c-9.3,4.2-17.3,10.9-23.2,19.6c-8.2,12.3-11.2,27-8.3,41.5c5.1,26,28.1,44.7,54.6,44.5c0,0,0,0,0,0   c3.4,0,6.9-0.4,10.3-1.1C363.2,354.4,382.7,325.3,376.7,295.4z M211.4,302c-1.1,0.8-2.1,1.7-3,2.7c0-0.8-0.1-1.6-0.1-2.3L211.4,302   z M201,316.7c-0.6,2.7-1.4,5.3-2.4,7.8l-32.4-12.5L201,316.7z M201.8,311.4l-23.9-3.2l24,1.4C201.9,310.3,201.9,310.8,201.8,311.4z    M202.1,306c0,0.9,0,1.8,0,2.6l-34.2-2l34.1-3.6C202,304,202,305,202.1,306z M201.9,301.9l-39.7,4.2l-1.3-0.2l1.1-2.2l35.7-17.7   C199.9,291,201.3,296.3,201.9,301.9z M197.2,285.2l-34.4,17l18.4-35.8C188,271.1,193.5,277.6,197.2,285.2z M176.7,263.5l-17.4,33.9   l-3.5,5.3c0,0-0.1,0-0.1,0l0.4-45.1C163.5,258,170.5,260.1,176.7,263.5z M152.8,257.5c0.8,0,1.5,0,2.3,0l-0.4,45.1   c-0.7,0.1-1.4,0.3-2,0.7l-20.7-41C138.3,259.3,145.3,257.6,152.8,257.5z M131,262.9l20.8,41.3c-0.1,0.1-0.2,0.3-0.3,0.4l-38.9-25.3   C117.2,272.3,123.5,266.7,131,262.9z M112,280.1l39,25.4c0,0,0,0.1,0,0.1l-46.5-2.7C105,294.6,107.7,286.8,112,280.1z M104.3,306.8   c0-0.9,0-1.8,0.1-2.7l46.3,2.7c0,0.1,0,0.3,0,0.4c0,0.3,0,0.7,0.1,1l-41.2,20.4C106.3,322,104.4,314.6,104.3,306.8z M110.1,329.4   l41-20.3c0.1,0.1,0.1,0.2,0.2,0.4l-24.7,37.9C119.8,342.9,114.1,336.7,110.1,329.4z M153.6,355.2c-9.5,0.1-18.5-2.6-26.1-7.3   l24.6-37.6c0.7,0.6,1.5,1,2.4,1.1l-0.4,43.8C153.9,355.2,153.8,355.2,153.6,355.2z M155.1,355.2l0.4-43.5l19.4,38.4   C168.9,353.1,162.2,354.9,155.1,355.2z M175.9,349.6l-19.3-38.4c0.2-0.1,0.3-0.1,0.4-0.2c0.2,0,0.4-0.1,0.6-0.1l2.1,0.3l34.1,22.2   C189.3,340.2,183.1,345.8,175.9,349.6z M194.4,332.5l-31.7-20.7l35.4,13.6C197.1,328,195.8,330.3,194.4,332.5z M221.5,302   c1.2,0,2.3,0.1,3.4,0.4c-0.6,1.8-1.3,3.9-2.1,6.2l-2-6.6C221.1,302,221.3,302,221.5,302z M208.3,310.6c0.3-0.7,0.6-1.3,1-1.9   c1.6-2.5,3.8-4.4,6.4-5.5l3.2,10.5l-10.8-1.4C208.2,311.7,208.2,311.2,208.3,310.6z M204.5,326.8c0.4-0.9,0.7-1.8,1-2.7   c0.7,1.5,1.6,2.8,2.6,4L204.5,326.8z M207.1,318.4c0.1-0.3,0.1-0.6,0.2-0.9l11.4,1.5c0.1,0.1,0.2,0.2,0.3,0.3   c-0.7,2-1.8,5.3-3.6,10.5C211,327.8,207.7,323.5,207.1,318.4z M226.2,308.7c0.7-2,1.2-3.7,1.8-5.3c0.8,0.4,1.5,0.8,2.2,1.3   L226.2,308.7z M236.3,316.5c0,4.1-1.6,7.9-4.6,10.7c-2.7,2.6-6.2,4-10,4c-1.1,0-2.2-0.1-3.3-0.4c1.7-5.3,2.9-8.5,3.6-10.5   c1.8-0.2,3.2-1.6,3.4-3.4l8.4-8.5C235.4,310.8,236.3,313.5,236.3,316.5z M367.9,324.2l-39.2-16.1c0.3-0.7,0.4-1.5,0.2-2.3l42.1-5.5   C372.1,308.6,370.9,316.8,367.9,324.2z M370.5,296.7c0.2,0.9,0.3,1.7,0.4,2.6l-42.3,5.5c-0.1-0.3-0.3-0.6-0.5-0.9l34.3-25.9   C366.3,283.4,369.1,289.8,370.5,296.7z M361.9,277.1l-34.4,26c-0.5-0.4-1.1-0.8-1.8-0.9l0-0.1l16.8-40.7   C350.1,264.9,356.8,270.3,361.9,277.1z M322.2,257.3c6.8-0.1,13.2,1.3,19.2,3.8L325,300.8l-1.6-3.7l-7.1-39.4   C318.3,257.4,320.3,257.3,322.2,257.3z M313.1,258.2c0.7-0.1,1.5-0.3,2.2-0.4l6.3,35l-14.3-33.1   C309.2,259.1,311.1,258.6,313.1,258.2z M302.3,261.6l16.5,38.4l-25.4-33.2C296.2,264.8,299.2,263.1,302.3,261.6z M282,278.9   c3-4.4,6.6-8.3,10.7-11.5l28,36.5l0.1,0.3c-0.1,0.1-0.1,0.3-0.2,0.4L277.6,287C278.8,284.2,280.2,281.5,282,278.9z M274,311.9   c-1-8.2,0.1-16.3,3.1-23.9l43,17.7c0,0,0,0.1,0,0.1L274,311.9z M274.6,315.6c-0.2-0.9-0.3-1.8-0.5-2.7l46-6c0,0.1,0,0.3,0.1,0.4   c0.1,0.3,0.2,0.7,0.3,1L283.9,336C279.4,330.1,276.1,323.2,274.6,315.6z M284.5,336.8l36.6-27.6c0.1,0.1,0.2,0.2,0.3,0.3   l-17.3,41.9C296.4,348.2,289.7,343.2,284.5,336.8z M332,354.1c-3,0.6-6.1,0.9-9.1,0.9c0,0,0,0,0,0c-6.3,0.1-12.3-1.1-17.9-3.2   l17.2-41.5c0.8,0.5,1.6,0.7,2.6,0.7l7.7,43.1C332.3,354,332.2,354,332,354.1z M333.5,353.7l-7.7-42.8l26.2,34.2   C346.7,349.1,340.5,352.1,333.5,353.7z M326.8,310.3c0.6-0.3,1.1-0.8,1.4-1.3l39.3,16.2c-3.2,7.5-8.2,14.1-14.6,19.2L326.8,310.3z"
       id="path3424" /><path
       class="st0"
       d="M228.1,222l-14.5,25.6c-1.2,2.2-4,3-6.2,1.7l14.7-26c0.1-0.1,0.1-0.2,0.2-0.4c1.3-2.8,0.3-6.1-2.4-7.7   c2-0.6,3.9-1.3,5.8-2.1c1.5,0.9,2.6,2.3,3,3.9c0.3,1.1,0.3,2.3,0,3.5C228.6,221.1,228.4,221.6,228.1,222z"
       id="path3426" /><circle
       class="st4"
       cx="275.1"
       cy="83.9"
       r="9.2"
       id="circle3428" /><circle
       class="st3"
       cx="276.9"
       cy="84.6"
       r="6"
       id="circle3430" /><g
       id="g3432"><line
         class="st5"
         x1="131.5"
         y1="259.6"
         x2="91.9"
         y2="260"
         id="line3434" /><line
         class="st5"
         x1="108.8"
         y1="278.6"
         x2="81.4"
         y2="278.9"
         id="line3436" /><line
         class="st5"
         x1="98.6"
         y1="297.5"
         x2="70.7"
         y2="297.8"
         id="line3438" /><line
         class="st5"
         x1="108.4"
         y1="335"
         x2="49.3"
         y2="335.5"
         id="line3440" /><line
         class="st5"
         x1="131"
         y1="353.7"
         x2="38.6"
         y2="354.4"
         id="line3442" /><line
         class="st5"
         x1="98.8"
         y1="316.3"
         x2="60"
         y2="316.6"
         id="line3444" /></g></g><text
     id="text3446"
     x="49.820297"
     y="424.2666"
     sodipodi:linespacing="125%"
     style="line-height:125%"><tspan
       x="49.820297"
       y="424.2666"
       class="st6 st7 st8"
       id="tspan3448"
       style="font-style:normal;font-variant:normal;font-weight:normal;font-stretch:normal;font-size:67.65750122px;line-height:125%;font-family:Arial;-inkscape-font-specification:'Arial, Normal';text-align:start;writing-mode:lr-tb;text-anchor:start;fill:#5086b7">Mobility<tspan
   style="font-style:normal;font-variant:normal;font-weight:normal;font-stretch:normal;font-size:67.65750122px;line-height:125%;font-family:Arial;-inkscape-font-specification:'Arial, Normal';text-align:start;writing-mode:lr-tb;text-anchor:start;fill:#f15b25;fill-opacity:1"
   id="tspan4258">DB</tspan></tspan></text>
</svg>