<?xml version="1.0" encoding="UTF-8" standalone="no"?>
<!DOCTYPE svg PUBLIC "-//W3C//DTD SVG 1.1//EN" "http://www.w3.org/Graphics/SVG/1.1/DTD/svg11.dtd">
<!-- Généré par Microsoft Visio, SVG Export tsample.svg Page-1 -->
<svg xmlns="http://www.w3.org/2000/svg" xmlns:xlink="http://www.w3.org/1999/xlink" xmlns:ev="http://www.w3.org/2001/xml-events"
		width="8.5in" height="11in" viewBox="0 0 612 792" xml:space="preserve" color-interpolation-filters="sRGB" class="st15">
	<style type="text/css">
	<![CDATA[
		.st1 {marker-start:url(#mrkr5-6);stroke:#000000;stroke-linecap:round;stroke-linejoin:round;stroke-width:0.25}
		.st2 {fill:#000000;fill-opacity:1;stroke:#000000;stroke-opacity:1;stroke-width:0.1219512195122}
		.st3 {marker-end:url(#mrkr5-12);stroke:#000000;stroke-linecap:round;stroke-linejoin:round;stroke-width:0.25}
		.st4 {stroke:#000000;stroke-dasharray:1.75,1.25;stroke-linecap:round;stroke-linejoin:round;stroke-width:0.25}
		.st5 {fill:none;stroke:none;stroke-linecap:round;stroke-linejoin:round;stroke-width:0.75}
		.st6 {fill:#000000;font-family:Cambria;font-size:1.00001em}
		.st7 {marker-end:url(#mrkr2-33);marker-start:url(#mrkr2-31);stroke:#000000;stroke-linecap:round;stroke-linejoin:round;stroke-width:0.25}
		.st8 {stroke:#000000;stroke-linecap:round;stroke-linejoin:round;stroke-width:0.25}
		.st9 {fill:#0070c0;stroke:#0070c0;stroke-linecap:round;stroke-linejoin:round;stroke-width:0.75}
		.st10 {fill:#ffffff;stroke:#0070c0;stroke-linecap:round;stroke-linejoin:round;stroke-width:0.75}
		.st11 {fill:#ff0000;stroke:#ff0000;stroke-linecap:round;stroke-linejoin:round;stroke-width:0.75}
		.st12 {stroke:#a5a5a5;stroke-linecap:round;stroke-linejoin:round;stroke-width:0.25}
		.st13 {fill:#a5a5a5;stroke:#a5a5a5;stroke-linecap:round;stroke-linejoin:round;stroke-width:0.25}
		.st14 {fill:#ffffff;stroke:#a5a5a5;stroke-linecap:round;stroke-linejoin:round;stroke-width:0.75}
		.st15 {fill:none;fill-rule:evenodd;font-size:12px;overflow:visible;stroke-linecap:square;stroke-miterlimit:3}
	]]>
	</style>

	<defs id="Markers">
		<g id="lend5">
			<path d="M 2 1 L 0 0 L 1.98117 -0.993387 C 1.67173 -0.364515 1.67301 0.372641 1.98465 1.00043 " style="stroke:none"/>
		</g>
		<marker id="mrkr5-6" class="st2" refX="12.91" orient="auto" markerUnits="strokeWidth" overflow="visible">
			<use xlink:href="#lend5" transform="scale(8.2) "/>
		</marker>
		<marker id="mrkr5-12" class="st2" refX="-14.35" orient="auto" markerUnits="strokeWidth" overflow="visible">
			<use xlink:href="#lend5" transform="scale(-8.2,-8.2) "/>
		</marker>
		<g id="lend2">
			<path d="M 1 1 L 0 0 L 1 -1 L 1 1 " style="stroke:none"/>
		</g>
		<marker id="mrkr2-31" class="st2" refX="6.76" orient="auto" markerUnits="strokeWidth" overflow="visible">
			<use xlink:href="#lend2" transform="scale(8.2) "/>
		</marker>
		<marker id="mrkr2-33" class="st2" refX="-8.2" orient="auto" markerUnits="strokeWidth" overflow="visible">
			<use xlink:href="#lend2" transform="scale(-8.2,-8.2) "/>
		</marker>
	</defs>
	<g>
		<title>Page 1</title>
		<g id="shape175-1" transform="translate(864,468) rotate(90)">
			<title>Feuille.175</title>
			<path d="M3.23 792 L3.59 792 L112.5 792" class="st1"/>
		</g>
		<g id="shape176-7" transform="translate(67.5,-216)">
			<title>Feuille.176</title>
			<path d="M0 792 L225.91 792" class="st3"/>
		</g>
		<g id="shape178-13" transform="translate(900,472.5) rotate(90)">
			<title>Feuille.178</title>
			<path d="M0 792 L108 792" class="st4"/>
		</g>
		<g id="shape179-16" transform="translate(31.5,-302.32)">
			<title>Feuille.179</title>
			<desc>Value</desc>
			<rect x="0" y="774.82" width="40.5" height="17.1798" class="st5"/>
			<text x="5.83" y="787.01" class="st6">Value</text>		</g>
		<g id="shape180-19" transform="translate(252,-193.5)">
			<title>Feuille.180</title>
			<desc>Time</desc>
			<rect x="0" y="774.82" width="36" height="17.1798" class="st5"/>
			<text x="4.86" y="787.01" class="st6">Time</text>		</g>
		<g id="shape181-22" transform="translate(99,-180)">
			<title>Feuille.181</title>
			<desc>duration</desc>
			<rect x="0" y="765" width="54" height="27" class="st5"/>
			<text x="4.72" y="782.1" class="st6">duration</text>		</g>
		<g id="shape182-25" transform="translate(108,-207)">
			<title>Feuille.182</title>
			<path d="M1.69 792 L2.05 792 L33.95 792" class="st7"/>
		</g>
		<g id="shape341-34" transform="translate(936,472.5) rotate(90)">
			<title>Feuille.341</title>
			<path d="M0 792 L108 792" class="st4"/>
		</g>
		<g id="shape344-37" transform="translate(972,472.5) rotate(90)">
			<title>Feuille.344</title>
			<path d="M0 792 L108 792" class="st4"/>
		</g>
		<g id="shape345-40" transform="translate(1008,472.5) rotate(90)">
			<title>Feuille.345</title>
			<path d="M0 792 L108 792" class="st4"/>
		</g>
		<g id="shape348-43" transform="translate(1044,472.5) rotate(90)">
			<title>Feuille.348</title>
			<path d="M0 792 L108 792" class="st4"/>
		</g>
		<g id="shape349-46" transform="translate(1080,472.5) rotate(90)">
			<title>Feuille.349</title>
			<path d="M0 792 L108 792" class="st4"/>
		</g>
		<g id="shape177-49" transform="translate(238.34,-256.5)">
			<title>Feuille.177</title>
			<path d="M0 766.85 L24.29 752.74 L37.28 792" class="st8"/>
		</g>
		<g id="shape183-52" transform="translate(101.351,-231.328)">
			<title>Feuille.183</title>
			<path d="M0 792 L42.65 760.08 L73.02 772.45 L123.65 747.7" class="st8"/>
		</g>
		<g id="shape185-55" transform="translate(99.4995,-229.359)">
			<title>Feuille.185</title>
			<ellipse cx="1.85121" cy="790.031" rx="1.85121" ry="1.96875" class="st9"/>
		</g>
		<g id="shape186-57" transform="translate(172.49,-249.07)">
			<title>Feuille.186</title>
			<ellipse cx="1.85121" cy="790.031" rx="1.85121" ry="1.96875" class="st9"/>
		</g>
		<g id="shape188-59" transform="translate(236.25,-280.008)">
			<title>Feuille.188</title>
			<ellipse cx="1.85121" cy="790.031" rx="1.85121" ry="1.96875" class="st9"/>
		</g>
		<g id="shape189-61" transform="translate(261,-293.508)">
			<title>Feuille.189</title>
			<ellipse cx="1.85121" cy="790.031" rx="1.85121" ry="1.96875" class="st9"/>
		</g>
		<g id="shape190-63" transform="translate(273.774,-254.812)">
			<title>Feuille.190</title>
			<ellipse cx="1.85121" cy="790.031" rx="1.85121" ry="1.96875" class="st9"/>
		</g>
		<g id="shape187-65" transform="translate(223.312,-273.937)">
			<title>Feuille.187</title>
			<ellipse cx="1.85121" cy="790.031" rx="1.85121" ry="1.96875" class="st9"/>
		</g>
		<g id="shape184-67" transform="translate(142.548,-261.164)">
			<title>Feuille.184</title>
			<ellipse cx="1.85121" cy="790.031" rx="1.85121" ry="1.96875" class="st9"/>
		</g>
		<g id="shape362-69" transform="translate(864,351) rotate(90)">
			<title>Feuille.362</title>
			<path d="M3.23 792 L3.59 792 L112.5 792" class="st1"/>
		</g>
		<g id="shape363-74" transform="translate(67.5,-333)">
			<title>Feuille.363</title>
			<path d="M0 792 L225.91 792" class="st3"/>
		</g>
		<g id="shape364-79" transform="translate(900,355.5) rotate(90)">
			<title>Feuille.364</title>
			<path d="M0 792 L108 792" class="st4"/>
		</g>
		<g id="shape365-82" transform="translate(31.5,-419.32)">
			<title>Feuille.365</title>
			<desc>Value</desc>
			<rect x="0" y="774.82" width="40.5" height="17.1798" class="st5"/>
			<text x="5.83" y="787.01" class="st6">Value</text>		</g>
		<g id="shape366-85" transform="translate(936,355.5) rotate(90)">
			<title>Feuille.366</title>
			<path d="M0 792 L108 792" class="st4"/>
		</g>
		<g id="shape367-88" transform="translate(972,355.5) rotate(90)">
			<title>Feuille.367</title>
			<path d="M0 792 L108 792" class="st4"/>
		</g>
		<g id="shape368-91" transform="translate(1008,355.5) rotate(90)">
			<title>Feuille.368</title>
			<path d="M0 792 L108 792" class="st4"/>
		</g>
		<g id="shape369-94" transform="translate(1044,355.5) rotate(90)">
			<title>Feuille.369</title>
			<path d="M0 792 L108 792" class="st4"/>
		</g>
		<g id="shape370-97" transform="translate(1080,355.5) rotate(90)">
			<title>Feuille.370</title>
			<path d="M0 792 L108 792" class="st4"/>
		</g>
		<g id="shape378-100" transform="translate(273.774,-371.812)">
			<title>Feuille.378</title>
			<ellipse cx="1.85121" cy="790.031" rx="1.85121" ry="1.96875" class="st9"/>
		</g>
		<g id="shape380-102" transform="translate(222.797,-390.937)">
			<title>Feuille.380</title>
			<ellipse cx="1.85121" cy="790.031" rx="1.85121" ry="1.96875" class="st9"/>
		</g>
		<g id="shape386-104" transform="translate(864,234) rotate(90)">
			<title>Feuille.386</title>
			<path d="M3.23 792 L3.59 792 L112.5 792" class="st1"/>
		</g>
		<g id="shape387-109" transform="translate(67.5,-450)">
			<title>Feuille.387</title>
			<path d="M0 792 L225.91 792" class="st3"/>
		</g>
		<g id="shape388-114" transform="translate(900,238.5) rotate(90)">
			<title>Feuille.388</title>
			<path d="M0 792 L108 792" class="st4"/>
		</g>
		<g id="shape389-117" transform="translate(31.5,-538.57)">
			<title>Feuille.389</title>
			<desc>Value</desc>
			<rect x="0" y="774.82" width="40.5" height="17.1798" class="st5"/>
			<text x="5.83" y="787.01" class="st6">Value</text>		</g>
		<g id="shape390-120" transform="translate(936,238.5) rotate(90)">
			<title>Feuille.390</title>
			<path d="M0 792 L108 792" class="st4"/>
		</g>
		<g id="shape391-123" transform="translate(972,238.5) rotate(90)">
			<title>Feuille.391</title>
			<path d="M0 792 L108 792" class="st4"/>
		</g>
		<g id="shape392-126" transform="translate(1008,238.5) rotate(90)">
			<title>Feuille.392</title>
			<path d="M0 792 L108 792" class="st4"/>
		</g>
		<g id="shape393-129" transform="translate(1044,238.5) rotate(90)">
			<title>Feuille.393</title>
			<path d="M0 792 L108 792" class="st4"/>
		</g>
		<g id="shape394-132" transform="translate(1080,238.5) rotate(90)">
			<title>Feuille.394</title>
			<path d="M0 792 L108 792" class="st4"/>
		</g>
		<g id="shape398-135" transform="translate(99.4995,-463.359)">
			<title>Feuille.398</title>
			<ellipse cx="1.85121" cy="790.031" rx="1.85121" ry="1.96875" class="st9"/>
		</g>
		<g id="shape399-137" transform="translate(172.49,-483.07)">
			<title>Feuille.399</title>
			<ellipse cx="1.85121" cy="790.031" rx="1.85121" ry="1.96875" class="st9"/>
		</g>
		<g id="shape400-139" transform="translate(236.25,-514.008)">
			<title>Feuille.400</title>
			<ellipse cx="1.85121" cy="790.031" rx="1.85121" ry="1.96875" class="st9"/>
		</g>
		<g id="shape401-141" transform="translate(261,-527.508)">
			<title>Feuille.401</title>
			<ellipse cx="1.85121" cy="790.031" rx="1.85121" ry="1.96875" class="st9"/>
		</g>
		<g id="shape402-143" transform="translate(273.774,-488.812)">
			<title>Feuille.402</title>
			<ellipse cx="1.85121" cy="790.031" rx="1.85121" ry="1.96875" class="st9"/>
		</g>
		<g id="shape404-145" transform="translate(223.313,-507.938)">
			<title>Feuille.404</title>
			<ellipse cx="1.85121" cy="790.031" rx="1.85121" ry="1.96875" class="st9"/>
		</g>
		<g id="shape405-147" transform="translate(142.548,-495.164)">
			<title>Feuille.405</title>
			<ellipse cx="1.85121" cy="790.031" rx="1.85121" ry="1.96875" class="st9"/>
		</g>
		<g id="shape407-149" transform="translate(262.65,-412.477)">
			<title>Feuille.407</title>
			<path d="M0 792 L12.23 792" class="st8"/>
		</g>
		<g id="shape408-152" transform="translate(272.906,-410.508)">
			<title>Feuille.408</title>
			<ellipse cx="1.96875" cy="790.031" rx="1.96875" ry="1.96875" class="st10"/>
		</g>
		<g id="shape410-154" transform="translate(238.5,-398.977)">
			<title>Feuille.410</title>
			<path d="M0 792 L24.52 792" class="st8"/>
		</g>
		<g id="shape411-157" transform="translate(261.047,-397.008)">
			<title>Feuille.411</title>
			<ellipse cx="1.96875" cy="790.031" rx="1.96875" ry="1.96875" class="st10"/>
		</g>
		<g id="shape413-159" transform="translate(174.375,-368.039)">
			<title>Feuille.413</title>
			<path d="M0 792 L50.39 792" class="st8"/>
		</g>
		<g id="shape414-162" transform="translate(222.797,-366.07)">
			<title>Feuille.414</title>
			<ellipse cx="1.96875" cy="790.031" rx="1.96875" ry="1.96875" class="st10"/>
		</g>
		<g id="shape416-164" transform="translate(147.097,-380.244) rotate(0.224013)">
			<title>Feuille.416</title>
			<path d="M0 792 L29.94 792" class="st8"/>
		</g>
		<g id="shape417-167" transform="translate(171.972,-378.164)">
			<title>Feuille.417</title>
			<ellipse cx="1.96875" cy="790.031" rx="1.96875" ry="1.96875" class="st10"/>
		</g>
		<g id="shape419-169" transform="translate(101.25,-348.328)">
			<title>Feuille.419</title>
			<path d="M0 792 L42.87 792" class="st8"/>
		</g>
		<g id="shape420-172" transform="translate(142.154,-346.359)">
			<title>Feuille.420</title>
			<ellipse cx="1.96875" cy="790.031" rx="1.96875" ry="1.96875" class="st10"/>
		</g>
		<g id="shape376-174" transform="translate(236.25,-397.008)">
			<title>Feuille.376</title>
			<ellipse cx="1.85121" cy="790.031" rx="1.85121" ry="1.96875" class="st9"/>
		</g>
		<g id="shape377-176" transform="translate(261,-410.508)">
			<title>Feuille.377</title>
			<ellipse cx="1.85121" cy="790.031" rx="1.85121" ry="1.96875" class="st9"/>
		</g>
		<g id="shape381-178" transform="translate(142.548,-378.164)">
			<title>Feuille.381</title>
			<ellipse cx="1.85121" cy="790.031" rx="1.85121" ry="1.96875" class="st9"/>
		</g>
		<g id="shape374-180" transform="translate(99.4995,-346.359)">
			<title>Feuille.374</title>
			<ellipse cx="1.85121" cy="790.031" rx="1.85121" ry="1.96875" class="st9"/>
		</g>
		<g id="shape510-182" transform="translate(369,-207)">
			<title>Feuille.510</title>
			<path d="M1.69 792 L2.05 792 L33.95 792" class="st7"/>
		</g>
		<g id="shape544-189" transform="translate(1161,238.5) rotate(90)">
			<title>Feuille.544</title>
			<path d="M0 792 L108 792" class="st4"/>
		</g>
		<g id="shape545-192" transform="translate(1197,238.5) rotate(90)">
			<title>Feuille.545</title>
			<path d="M0 792 L108 792" class="st4"/>
		</g>
		<g id="shape546-195" transform="translate(1233,238.5) rotate(90)">
			<title>Feuille.546</title>
			<path d="M0 792 L108 792" class="st4"/>
		</g>
		<g id="shape547-198" transform="translate(1269,238.5) rotate(90)">
			<title>Feuille.547</title>
			<path d="M0 792 L108 792" class="st4"/>
		</g>
		<g id="shape548-201" transform="translate(1305,238.5) rotate(90)">
			<title>Feuille.548</title>
			<path d="M0 792 L108 792" class="st4"/>
		</g>
		<g id="shape549-204" transform="translate(1341,238.5) rotate(90)">
			<title>Feuille.549</title>
			<path d="M0 792 L108 792" class="st4"/>
		</g>
		<g id="shape375-207" transform="translate(172.49,-366.07)">
			<title>Feuille.375</title>
			<ellipse cx="1.85121" cy="790.031" rx="1.85121" ry="1.96875" class="st9"/>
		</g>
		<g id="shape599-209" transform="translate(513,-193.5)">
			<title>Feuille.599</title>
			<desc>Time</desc>
			<rect x="0" y="774.82" width="36" height="17.1798" class="st5"/>
			<text x="4.86" y="787.01" class="st6">Time</text>		</g>
		<g id="shape600-212" transform="translate(360,-180)">
			<title>Feuille.600</title>
			<desc>duration</desc>
			<rect x="0" y="765" width="54" height="27" class="st5"/>
			<text x="4.72" y="782.1" class="st6">duration</text>		</g>
		<g id="shape601-215" transform="translate(403.548,-495.164)">
			<title>Feuille.601</title>
			<ellipse cx="1.85121" cy="790.031" rx="1.85121" ry="1.96875" class="st11"/>
		</g>
		<g id="shape628-217" transform="translate(1125,468) rotate(90)">
			<title>Feuille.628</title>
			<path d="M3.23 792 L3.59 792 L112.5 792" class="st1"/>
		</g>
		<g id="shape629-222" transform="translate(328.5,-216)">
			<title>Feuille.629</title>
			<path d="M0 792 L225.91 792" class="st3"/>
		</g>
		<g id="shape630-227" transform="translate(1161,472.5) rotate(90)">
			<title>Feuille.630</title>
			<path d="M0 792 L108 792" class="st4"/>
		</g>
		<g id="shape631-230" transform="translate(1197,472.5) rotate(90)">
			<title>Feuille.631</title>
			<path d="M0 792 L108 792" class="st4"/>
		</g>
		<g id="shape632-233" transform="translate(1233,472.5) rotate(90)">
			<title>Feuille.632</title>
			<path d="M0 792 L108 792" class="st4"/>
		</g>
		<g id="shape633-236" transform="translate(1269,472.5) rotate(90)">
			<title>Feuille.633</title>
			<path d="M0 792 L108 792" class="st4"/>
		</g>
		<g id="shape634-239" transform="translate(1305,472.5) rotate(90)">
			<title>Feuille.634</title>
			<path d="M0 792 L108 792" class="st4"/>
		</g>
		<g id="shape635-242" transform="translate(1341,472.5) rotate(90)">
			<title>Feuille.635</title>
			<path d="M0 792 L108 792" class="st4"/>
		</g>
		<g id="shape636-245" transform="translate(499.34,-256.5)">
			<title>Feuille.636</title>
			<path d="M0 766.85 L24.29 752.74 L37.28 792" class="st12"/>
		</g>
		<g id="shape637-248" transform="translate(362.351,-231.328)">
			<title>Feuille.637</title>
			<path d="M0 792 L42.65 760.08 L73.02 772.45 L123.65 747.7" class="st12"/>
		</g>
		<g id="shape638-251" transform="translate(360.5,-229.359)">
			<title>Feuille.638</title>
			<ellipse cx="1.85121" cy="790.031" rx="1.85121" ry="1.96875" class="st13"/>
		</g>
		<g id="shape639-253" transform="translate(433.49,-249.07)">
			<title>Feuille.639</title>
			<ellipse cx="1.85121" cy="790.031" rx="1.85121" ry="1.96875" class="st13"/>
		</g>
		<g id="shape640-255" transform="translate(497.25,-280.008)">
			<title>Feuille.640</title>
			<ellipse cx="1.85121" cy="790.031" rx="1.85121" ry="1.96875" class="st13"/>
		</g>
		<g id="shape641-257" transform="translate(522,-293.508)">
			<title>Feuille.641</title>
			<ellipse cx="1.85121" cy="790.031" rx="1.85121" ry="1.96875" class="st13"/>
		</g>
		<g id="shape642-259" transform="translate(534.774,-254.813)">
			<title>Feuille.642</title>
			<ellipse cx="1.85121" cy="790.031" rx="1.85121" ry="1.96875" class="st13"/>
		</g>
		<g id="shape643-261" transform="translate(484.313,-273.938)">
			<title>Feuille.643</title>
			<ellipse cx="1.85121" cy="790.031" rx="1.85121" ry="1.96875" class="st13"/>
		</g>
		<g id="shape645-263" transform="translate(403.548,-261.281)">
			<title>Feuille.645</title>
			<ellipse cx="1.85121" cy="790.031" rx="1.85121" ry="1.96875" class="st11"/>
		</g>
		<g id="shape646-265" transform="translate(439.548,-251.437)">
			<title>Feuille.646</title>
			<ellipse cx="1.85121" cy="790.031" rx="1.85121" ry="1.96875" class="st11"/>
		</g>
		<g id="shape647-267" transform="translate(367.149,-234)">
			<title>Feuille.647</title>
			<ellipse cx="1.85121" cy="790.031" rx="1.85121" ry="1.96875" class="st11"/>
		</g>
		<g id="shape648-269" transform="translate(475.149,-269.437)">
			<title>Feuille.648</title>
			<ellipse cx="1.85121" cy="790.031" rx="1.85121" ry="1.96875" class="st11"/>
		</g>
		<g id="shape649-271" transform="translate(511.149,-288)">
			<title>Feuille.649</title>
			<ellipse cx="1.85121" cy="790.031" rx="1.85121" ry="1.96875" class="st11"/>
		</g>
		<g id="shape650-273" transform="translate(1125,351) rotate(90)">
			<title>Feuille.650</title>
			<path d="M3.23 792 L3.59 792 L112.5 792" class="st1"/>
		</g>
		<g id="shape651-278" transform="translate(328.5,-333)">
			<title>Feuille.651</title>
			<path d="M0 792 L225.91 792" class="st3"/>
		</g>
		<g id="shape652-283" transform="translate(1161,355.5) rotate(90)">
			<title>Feuille.652</title>
			<path d="M0 792 L108 792" class="st4"/>
		</g>
		<g id="shape653-286" transform="translate(1197,355.5) rotate(90)">
			<title>Feuille.653</title>
			<path d="M0 792 L108 792" class="st4"/>
		</g>
		<g id="shape654-289" transform="translate(1233,355.5) rotate(90)">
			<title>Feuille.654</title>
			<path d="M0 792 L108 792" class="st4"/>
		</g>
		<g id="shape655-292" transform="translate(1269,355.5) rotate(90)">
			<title>Feuille.655</title>
			<path d="M0 792 L108 792" class="st4"/>
		</g>
		<g id="shape656-295" transform="translate(1305,355.5) rotate(90)">
			<title>Feuille.656</title>
			<path d="M0 792 L108 792" class="st4"/>
		</g>
		<g id="shape657-298" transform="translate(1341,355.5) rotate(90)">
			<title>Feuille.657</title>
			<path d="M0 792 L108 792" class="st4"/>
		</g>
		<g id="shape658-301" transform="translate(534.774,-371.812)">
			<title>Feuille.658</title>
			<ellipse cx="1.85121" cy="790.031" rx="1.85121" ry="1.96875" class="st13"/>
		</g>
		<g id="shape659-303" transform="translate(483.797,-390.938)">
			<title>Feuille.659</title>
			<ellipse cx="1.85121" cy="790.031" rx="1.85121" ry="1.96875" class="st13"/>
		</g>
		<g id="shape660-305" transform="translate(523.65,-412.477)">
			<title>Feuille.660</title>
			<path d="M0 792 L12.23 792" class="st12"/>
		</g>
		<g id="shape661-308" transform="translate(533.906,-410.508)">
			<title>Feuille.661</title>
			<ellipse cx="1.96875" cy="790.031" rx="1.96875" ry="1.96875" class="st14"/>
		</g>
		<g id="shape662-310" transform="translate(499.5,-398.977)">
			<title>Feuille.662</title>
			<path d="M0 792 L24.52 792" class="st12"/>
		</g>
		<g id="shape663-313" transform="translate(522.047,-397.008)">
			<title>Feuille.663</title>
			<ellipse cx="1.96875" cy="790.031" rx="1.96875" ry="1.96875" class="st14"/>
		</g>
		<g id="shape664-315" transform="translate(435.375,-368.039)">
			<title>Feuille.664</title>
			<path d="M0 792 L50.39 792" class="st12"/>
		</g>
		<g id="shape665-318" transform="translate(483.797,-366.07)">
			<title>Feuille.665</title>
			<ellipse cx="1.96875" cy="790.031" rx="1.96875" ry="1.96875" class="st14"/>
		</g>
		<g id="shape668-320" transform="translate(362.25,-348.328)">
			<title>Feuille.668</title>
			<path d="M0 792 L42.87 792" class="st12"/>
		</g>
		<g id="shape669-323" transform="translate(403.154,-346.359)">
			<title>Feuille.669</title>
			<ellipse cx="1.96875" cy="790.031" rx="1.96875" ry="1.96875" class="st14"/>
		</g>
		<g id="shape670-325" transform="translate(497.25,-397.008)">
			<title>Feuille.670</title>
			<ellipse cx="1.85121" cy="790.031" rx="1.85121" ry="1.96875" class="st13"/>
		</g>
		<g id="shape671-327" transform="translate(522,-410.508)">
			<title>Feuille.671</title>
			<ellipse cx="1.85121" cy="790.031" rx="1.85121" ry="1.96875" class="st13"/>
		</g>
		<g id="shape673-329" transform="translate(360.5,-346.359)">
			<title>Feuille.673</title>
			<ellipse cx="1.85121" cy="790.031" rx="1.85121" ry="1.96875" class="st13"/>
		</g>
		<g id="shape674-331" transform="translate(433.49,-366.07)">
			<title>Feuille.674</title>
			<ellipse cx="1.85121" cy="790.031" rx="1.85121" ry="1.96875" class="st13"/>
		</g>
		<g id="shape624-333" transform="translate(403.548,-378.164)">
			<title>Feuille.624</title>
			<ellipse cx="1.85121" cy="790.031" rx="1.85121" ry="1.96875" class="st11"/>
		</g>
		<g id="shape625-335" transform="translate(367.149,-346.359)">
			<title>Feuille.625</title>
			<ellipse cx="1.85121" cy="790.031" rx="1.85121" ry="1.96875" class="st11"/>
		</g>
		<g id="shape626-337" transform="translate(439.149,-366.07)">
			<title>Feuille.626</title>
			<ellipse cx="1.85121" cy="790.031" rx="1.85121" ry="1.96875" class="st11"/>
		</g>
		<g id="shape627-339" transform="translate(475.149,-366.07)">
			<title>Feuille.627</title>
			<ellipse cx="1.85121" cy="790.031" rx="1.85121" ry="1.96875" class="st11"/>
		</g>
		<g id="shape622-341" transform="translate(511.312,-397.008)">
			<title>Feuille.622</title>
			<ellipse cx="1.85121" cy="790.031" rx="1.85121" ry="1.96875" class="st11"/>
		</g>
		<g id="shape666-343" transform="translate(408.097,-380.244) rotate(0.224013)">
			<title>Feuille.666</title>
			<path d="M0 792 L29.94 792" class="st12"/>
		</g>
		<g id="shape667-346" transform="translate(432.972,-378.164)">
			<title>Feuille.667</title>
			<ellipse cx="1.96875" cy="790.031" rx="1.96875" ry="1.96875" class="st14"/>
		</g>
		<g id="shape675-348" transform="translate(1125,234) rotate(90)">
			<title>Feuille.675</title>
			<path d="M3.23 792 L3.59 792 L112.5 792" class="st1"/>
		</g>
		<g id="shape676-353" transform="translate(328.5,-450)">
			<title>Feuille.676</title>
			<path d="M0 792 L225.91 792" class="st3"/>
		</g>
		<g id="shape677-358" transform="translate(360.5,-463.359)">
			<title>Feuille.677</title>
			<ellipse cx="1.85121" cy="790.031" rx="1.85121" ry="1.96875" class="st13"/>
		</g>
		<g id="shape678-360" transform="translate(433.49,-483.07)">
			<title>Feuille.678</title>
			<ellipse cx="1.85121" cy="790.031" rx="1.85121" ry="1.96875" class="st13"/>
		</g>
		<g id="shape679-362" transform="translate(497.25,-514.008)">
			<title>Feuille.679</title>
			<ellipse cx="1.85121" cy="790.031" rx="1.85121" ry="1.96875" class="st13"/>
		</g>
		<g id="shape680-364" transform="translate(522,-527.508)">
			<title>Feuille.680</title>
			<ellipse cx="1.85121" cy="790.031" rx="1.85121" ry="1.96875" class="st13"/>
		</g>
		<g id="shape681-366" transform="translate(534.774,-488.812)">
			<title>Feuille.681</title>
			<ellipse cx="1.85121" cy="790.031" rx="1.85121" ry="1.96875" class="st13"/>
		</g>
		<g id="shape682-368" transform="translate(484.313,-507.937)">
			<title>Feuille.682</title>
			<ellipse cx="1.85121" cy="790.031" rx="1.85121" ry="1.96875" class="st13"/>
		</g>
	</g>
</svg>
