<?xml version="1.0" encoding="UTF-8" standalone="no"?>
<!-- Generator: Adobe Illustrator 16.0.0, SVG Export Plug-In . SVG Version: 6.00 Build 0)  -->

<svg
   xmlns:dc="http://purl.org/dc/elements/1.1/"
   xmlns:cc="http://creativecommons.org/ns#"
   xmlns:rdf="http://www.w3.org/1999/02/22-rdf-syntax-ns#"
   xmlns:svg="http://www.w3.org/2000/svg"
   xmlns="http://www.w3.org/2000/svg"
   xmlns:sodipodi="http://sodipodi.sourceforge.net/DTD/sodipodi-0.dtd"
   xmlns:inkscape="http://www.inkscape.org/namespaces/inkscape"
   version="1.1"
   id="Capa_1"
   x="0px"
   y="0px"
   width="130.65854"
   height="130.65843"
   viewBox="0 0 130.65854 130.65844"
   xml:space="preserve"
   sodipodi:docname="world.svg"
   inkscape:version="0.92.3 (2405546, 2018-03-11)"><metadata
   id="metadata43"><rdf:RDF><cc:Work
       rdf:about=""><dc:format>image/svg+xml</dc:format><dc:type
         rdf:resource="http://purl.org/dc/dcmitype/StillImage" /><dc:title></dc:title></cc:Work></rdf:RDF></metadata><defs
   id="defs41"><inkscape:perspective
     sodipodi:type="inkscape:persp3d"
     inkscape:vp_x="0 : 71.981747 : 1"
     inkscape:vp_y="0 : 1000 : 0"
     inkscape:vp_z="128 : 71.981747 : 1"
     inkscape:persp3d-origin="64.000001 : 47.987832 : 1"
     id="perspective835" /></defs><sodipodi:namedview
   pagecolor="#ffffff"
   bordercolor="#666666"
   borderopacity="1"
   objecttolerance="10"
   gridtolerance="10"
   guidetolerance="10"
   inkscape:pageopacity="0"
   inkscape:pageshadow="2"
   inkscape:window-width="1680"
   inkscape:window-height="997"
   id="namedview39"
   showgrid="false"
   inkscape:zoom="1.4077326"
   inkscape:cx="-196.13606"
   inkscape:cy="61.461774"
   inkscape:window-x="-8"
   inkscape:window-y="-8"
   inkscape:window-maximized="1"
   inkscape:current-layer="g4"
   fit-margin-top="0"
   fit-margin-left="0"
   fit-margin-right="0"
   fit-margin-bottom="0" />
<g
   id="g6"
   transform="matrix(0.02530019,0,0,0.02530019,-79.862624,54.30168)"
   style="stroke-width:39.52539825">
	<g
   id="g4"
   style="stroke-width:316.20315552;stroke-miterlimit:4;stroke-dasharray:none"
   transform="translate(-89.341532,198.53684)">
		
	<g
   id="g954"
   transform="translate(-178.68313,-119.12209)"><path
     sodipodi:nodetypes="csc"
     inkscape:connector-curvature="0"
     id="path4651"
     d="m 7642.226,-1493.313 c -435.7638,384.8814 -1008.3228,618.4458 -1635.4343,618.4458 -630.2064,0 -1205.3214,-235.8678 -1641.8772,-624.1554"
     style="fill:none;stroke:#000000;stroke-width:221.34220886;stroke-miterlimit:4;stroke-dasharray:none;stroke-opacity:1" /><path
     sodipodi:nodetypes="ccs"
     inkscape:connector-curvature="0"
     id="path4649"
     d="m 4373.1753,2213.4701 c 435.5382,-383.922 1007.3772,-616.8408 1633.6164,-616.8408 626.4791,0 1198.5161,233.0976 1634.1149,617.289"
     style="fill:none;stroke:#000000;stroke-width:221.34220886;stroke-miterlimit:4;stroke-dasharray:none;stroke-opacity:1" /><path
     sodipodi:nodetypes="cc"
     inkscape:connector-curvature="0"
     id="path4647"
     d="M 6006.7917,-2115.039 V 2827.9451"
     style="fill:none;stroke:#000000;stroke-width:221.34220886;stroke-miterlimit:4;stroke-dasharray:none;stroke-opacity:1" /><path
     inkscape:connector-curvature="0"
     id="path4645"
     d="M 3535.2975,356.45755 H 8478.2859"
     style="fill:none;stroke:#000000;stroke-width:221.34220886;stroke-miterlimit:4;stroke-dasharray:none;stroke-opacity:1" /><path
     inkscape:connector-curvature="0"
     id="path4520-3-6"
     d="m 8478.2859,356.45755 c 0,1364.96695 -1106.5255,2471.48755 -2471.4942,2471.48755 -1364.9688,0 -2471.4942,-1106.5206 -2471.4942,-2471.48755 0,-1364.97595 1106.5254,-2471.49655 2471.4942,-2471.49655 1364.9687,0 2471.4942,1106.5206 2471.4942,2471.49655 z"
     style="fill:none;stroke:#000000;stroke-width:221.34220886;stroke-miterlimit:4;stroke-dasharray:none;stroke-opacity:1" /><path
     sodipodi:nodetypes="cc"
     inkscape:connector-curvature="0"
     id="path4624"
     d="m 6007.0323,-2115.066 c 0,0 -2758.5942,2179.814951 0,4938.4043"
     style="fill:none;stroke:#000000;stroke-width:221.34220886;stroke-linecap:butt;stroke-linejoin:miter;stroke-miterlimit:4;stroke-dasharray:none;stroke-opacity:1" /><path
     sodipodi:nodetypes="cc"
     inkscape:connector-curvature="0"
     id="path4624-3"
     d="m 6007.0323,-2115.066 c 0,0 2758.5936,2179.814951 0,4938.4043"
     style="fill:none;stroke:#000000;stroke-width:221.34220886;stroke-linecap:butt;stroke-linejoin:miter;stroke-miterlimit:4;stroke-dasharray:none;stroke-opacity:1" /></g></g>
</g>
<g
   id="g8"
   transform="matrix(0.02530019,0,0,0.02530019,-79.862624,54.30168)"
   style="stroke-width:39.52539825">
</g>
<g
   id="g10"
   transform="matrix(0.02530019,0,0,0.02530019,-79.862624,54.30168)"
   style="stroke-width:39.52539825">
</g>
<g
   id="g12"
   transform="matrix(0.02530019,0,0,0.02530019,-79.862624,54.30168)"
   style="stroke-width:39.52539825">
</g>
<g
   id="g14"
   transform="matrix(0.02530019,0,0,0.02530019,-79.862624,54.30168)"
   style="stroke-width:39.52539825">
</g>
<g
   id="g16"
   transform="matrix(0.02530019,0,0,0.02530019,-79.862624,54.30168)"
   style="stroke-width:39.52539825">
</g>
<g
   id="g18"
   transform="matrix(0.02530019,0,0,0.02530019,-79.862624,54.30168)"
   style="stroke-width:39.52539825">
</g>
<g
   id="g20"
   transform="matrix(0.02530019,0,0,0.02530019,-79.862624,54.30168)"
   style="stroke-width:39.52539825">
</g>
<g
   id="g22"
   transform="matrix(0.02530019,0,0,0.02530019,-79.862624,54.30168)"
   style="stroke-width:39.52539825">
</g>
<g
   id="g24"
   transform="matrix(0.02530019,0,0,0.02530019,-79.862624,54.30168)"
   style="stroke-width:39.52539825">
</g>
<g
   id="g26"
   transform="matrix(0.02530019,0,0,0.02530019,-79.862624,54.30168)"
   style="stroke-width:39.52539825">
</g>
<g
   id="g28"
   transform="matrix(0.02530019,0,0,0.02530019,-79.862624,54.30168)"
   style="stroke-width:39.52539825">
</g>
<g
   id="g30"
   transform="matrix(0.02530019,0,0,0.02530019,-79.862624,54.30168)"
   style="stroke-width:39.52539825">
</g>
<g
   id="g32"
   transform="matrix(0.02530019,0,0,0.02530019,-79.862624,54.30168)"
   style="stroke-width:39.52539825">
</g>
<g
   id="g34"
   transform="matrix(0.02530019,0,0,0.02530019,-79.862624,54.30168)"
   style="stroke-width:39.52539825">
</g>
<g
   id="g36"
   transform="matrix(0.02530019,0,0,0.02530019,-79.862624,54.30168)"
   style="stroke-width:39.52539825">
</g>
</svg>